<?xml version="1.0" encoding="utf-8"?>
<svg viewBox="0 0 152.788 155.565" xmlns="http://www.w3.org/2000/svg">
  <g id="Group_179" data-name="Group 179">
    <g id="Group_177" data-name="Group 177">
      <path id="Path_171" data-name="Path 171" d="M76.393,3.4l44.935,78.243H31.457L76.393,3.4m0-3.4L28.528,83.343h95.73L76.393,0Z" style="fill: rgb(191, 191, 191);"/>
      <g id="Group_176" data-name="Group 176">
        <path id="Path_172" data-name="Path 172" d="M77.109,3.249,137.233,68.67,50.3,87.153l26.813-83.9ZM76.393,0,47.827,89.387,140.446,69.7,76.393,0Z" style="fill: rgb(191, 191, 191);"/>
        <path id="Path_173" data-name="Path 173" d="M75.677,3.249l26.813,83.9L15.552,68.67,75.677,3.249ZM76.393,0,12.34,69.7l92.618,19.691L76.393,0Z" style="fill: rgb(191, 191, 191);"/>
      </g>
    </g>
    <g id="Group_178" data-name="Group 178">
      <path id="Path_174" data-name="Path 174" d="M0,155.087H25.682v-6.757H7.042v-7.8H23.975v-6.757H7.042v-7.757H25.682v-6.757H0Z" style="fill: rgb(191, 191, 191);"/>
      <path id="Path_175" data-name="Path 175" d="M66.2,143.516l-7.521-24.262H52.875l-7.526,24.278-7.418-24.278H30.538l11.7,35.833h6.281l7.205-22.974,7.206,22.974h6.375l11.7-35.833H73.621Z" style="fill: rgb(191, 191, 191);"/>
      <path id="Path_176" data-name="Path 176" d="M113.318,123.947c-3.257-3.427-7.626-5.166-12.988-5.166s-9.729,1.739-12.987,5.166a19.015,19.015,0,0,0-5.023,13.2v.05a19.009,19.009,0,0,0,5.023,13.2c3.256,3.428,7.625,5.168,12.987,5.168s9.731-1.74,12.988-5.168a19.005,19.005,0,0,0,5.024-13.2v-.05A19.013,19.013,0,0,0,113.318,123.947Zm-4.985,21.63a10.18,10.18,0,0,1-8.025,3.228,10.1,10.1,0,0,1-8-3.224,13.47,13.47,0,0,1,0-16.82,10.1,10.1,0,0,1,8-3.223,10.178,10.178,0,0,1,8.025,3.227,13.388,13.388,0,0,1,0,16.812Z" style="fill: rgb(191, 191, 191);"/>
      <path id="Path_177" data-name="Path 177" d="M148.327,138.812a9.5,9.5,0,0,0,2.657-2.6,10.4,10.4,0,0,0,1.8-5.962,9.941,9.941,0,0,0-3.723-8.023c-2.391-1.968-5.938-2.967-10.543-2.967H123.973v35.832h7.041v-12.9h8.456c1.947,0,3.294.43,4,1.282a10.516,10.516,0,0,1,.99,1.57l.031.055c.255.459.677,1.68.722,4.759v5.235h7.047v-5.442C152.264,144.355,150.943,140.727,148.327,138.812ZM143.95,134a10.2,10.2,0,0,1-5.713,1.38h-7.223v-9.322H138c3.747,0,5.46.683,6.237,1.253A4.222,4.222,0,0,1,143.95,134Z" style="fill: rgb(191, 191, 191);"/>
    </g>
  </g>
</svg>