<?xml version="1.0" encoding="utf-8"?>
<svg viewBox="18.559 58.091 458.138 58.71" xmlns="http://www.w3.org/2000/svg">
  <defs>
    <style type="text/css">
	.st0{fill:#514F4F;}
	.st1{fill:#EC2227;}
	.st2{fill:#8080B2;}
	.st3{fill:#D4EEF6;}
	.st4{display:none;}
	.st5{display:inline;}
	.st6{display:none;fill:#FFFFFF;}
	.st7{display:inline;clip-path:url(#SVGID_2_);}
	.st8{fill:#24B3CB;}
	.st9{fill:#492754;}
	.st10{fill:#EED813;}
	.st11{display:none;opacity:0.82;fill:url(#SVGID_3_);}
	.st12{display:inline;clip-path:url(#SVGID_5_);}
	.st13{display:none;fill:#12416B;}
	.st14{display:none;fill:#492754;}
	.st15{display:none;fill:#26B4CC;}
	.st16{display:none;fill:#59BB5A;}
	.st17{display:none;fill:#BB2025;}
	.st18{display:none;fill:#EFD912;}
	.st19{fill:none;stroke:#D4EEF6;stroke-miterlimit:10;}
	.st20{fill:none;stroke:#FFFFFF;stroke-miterlimit:10;}
	.st21{fill:#EAEDED;}
	.st22{fill:#292929;}
	.st23{fill:#D32027;}
	.st24{clip-path:url(#SVGID_7_);}
	.st25{clip-path:url(#SVGID_9_);}
	.st26{clip-path:url(#SVGID_11_);}
	.st27{opacity:0.95;}
	.st28{fill:#FFFFFF;}
	.st29{fill:#EAEAEA;}
	.st30{fill:#E97D85;}
	.st31{fill:#EFB465;}
	.st32{fill:#8FCD95;}
	.st33{fill:#231F20;}
	.st34{fill:#24205C;}
	.st35{clip-path:url(#SVGID_17_);}
	.st36{clip-path:url(#SVGID_19_);}
	.st37{clip-path:url(#SVGID_21_);}
	.st38{fill:none;stroke:#EC2227;stroke-miterlimit:10;}
	.st39{clip-path:url(#SVGID_25_);}
	.st40{clip-path:url(#SVGID_29_);}
	.st41{clip-path:url(#SVGID_33_);}
	.st42{clip-path:url(#SVGID_37_);}
	.st43{clip-path:url(#SVGID_39_);}
	.st44{clip-path:url(#SVGID_43_);}
	.st45{fill:none;stroke:#231F20;stroke-width:13.2701;stroke-linecap:square;stroke-miterlimit:10;}
	.st46{fill:#292562;}
	.st47{fill:#E9262A;}
	.st48{fill:none;stroke:#000000;stroke-miterlimit:10;}
	.st49{fill:#292561;}
	.st50{fill:none;stroke:#292561;stroke-width:0.5742;stroke-miterlimit:10;}
	.st51{clip-path:url(#SVGID_51_);}
	.st52{clip-path:url(#SVGID_53_);}
	.st53{clip-path:url(#SVGID_55_);}
	.st54{clip-path:url(#SVGID_57_);}
	.st55{clip-path:url(#SVGID_59_);}
	.st56{clip-path:url(#SVGID_61_);}
	.st57{clip-path:url(#SVGID_63_);}
	.st58{clip-path:url(#SVGID_65_);}
	.st59{fill:none;stroke:#FFFFFF;stroke-width:0.5;stroke-miterlimit:10;}
	.st60{clip-path:url(#SVGID_67_);}
	.st61{clip-path:url(#SVGID_69_);}
	.st62{clip-path:url(#SVGID_71_);}
	.st63{clip-path:url(#SVGID_73_);}
	.st64{clip-path:url(#SVGID_75_);}
	.st65{clip-path:url(#SVGID_77_);}
	.st66{clip-path:url(#SVGID_79_);}
	.st67{clip-path:url(#SVGID_81_);}
	.st68{fill:none;stroke:#292561;stroke-width:0.5;stroke-miterlimit:10;}
	.st69{clip-path:url(#SVGID_83_);}
	.st70{fill:none;}
	.st71{clip-path:url(#SVGID_85_);}
	.st72{clip-path:url(#SVGID_87_);}
	.st73{clip-path:url(#SVGID_89_);}
	.st74{clip-path:url(#SVGID_91_);}
	.st75{clip-path:url(#SVGID_93_);}
	.st76{fill:none;stroke:#FFFFFF;stroke-width:0.5562;stroke-miterlimit:10;}
	.st77{clip-path:url(#SVGID_95_);}
	.st78{fill:none;stroke:#EC2227;stroke-width:0.5;stroke-miterlimit:10;}
	.st79{clip-path:url(#SVGID_97_);}
	.st80{clip-path:url(#SVGID_99_);}
	.st81{clip-path:url(#SVGID_101_);}
	.st82{clip-path:url(#SVGID_103_);}
	.st83{clip-path:url(#SVGID_105_);}
	.st84{fill:none;stroke:#EC2227;stroke-width:0.5683;stroke-miterlimit:10;}
	.st85{clip-path:url(#SVGID_107_);}
	.st86{clip-path:url(#SVGID_109_);}
	.st87{fill:none;stroke:#292561;stroke-width:0.75;stroke-miterlimit:10;}
	.st88{fill:none;stroke:#292561;stroke-width:0.704;stroke-miterlimit:10;}
	.st89{clip-path:url(#SVGID_111_);}
	.st90{clip-path:url(#SVGID_113_);}
	.st91{clip-path:url(#SVGID_115_);}
	.st92{clip-path:url(#SVGID_117_);}
	.st93{clip-path:url(#SVGID_119_);}
	.st94{clip-path:url(#SVGID_121_);}
	.st95{fill:none;stroke:#FFFFFF;stroke-width:0.5728;stroke-miterlimit:10;}
	.st96{clip-path:url(#SVGID_123_);}
	.st97{clip-path:url(#SVGID_125_);}
	.st98{clip-path:url(#SVGID_127_);}
	.st99{clip-path:url(#SVGID_129_);}
	.st100{clip-path:url(#SVGID_131_);}
	.st101{clip-path:url(#SVGID_133_);}
	.st102{fill:none;stroke:#FFFFFF;stroke-width:2.5708;stroke-miterlimit:10;}
	.st103{clip-path:url(#SVGID_135_);}
	.st104{fill:none;stroke:#FFFFFF;stroke-width:2.5031;stroke-miterlimit:10;}
	.st105{clip-path:url(#SVGID_137_);}
	.st106{fill:none;stroke:#FFFFFF;stroke-width:2.925;stroke-miterlimit:10;}
	.st107{fill:none;stroke:#EC2227;stroke-width:1.9293;stroke-miterlimit:10;}
	.st108{clip-path:url(#SVGID_139_);}
	.st109{fill:none;stroke:#FFFFFF;stroke-width:1.9446;stroke-miterlimit:10;}
	.st110{fill:none;stroke:#EC2227;stroke-width:1.6976;stroke-miterlimit:10;}
	.st111{clip-path:url(#SVGID_141_);}
	.st112{clip-path:url(#SVGID_143_);}
	.st113{fill:none;stroke:#FFFFFF;stroke-width:2.21;stroke-miterlimit:10;}
	.st114{fill:#FCE8E8;}
	.st115{fill:none;stroke:#FFFFFF;stroke-width:0.6085;stroke-miterlimit:10;}
	.st116{clip-path:url(#SVGID_145_);}
	.st117{fill:none;stroke:#FFFFFF;stroke-width:0.6915;stroke-miterlimit:10;}
	.st118{fill:none;stroke:#292561;stroke-width:0.25;stroke-miterlimit:10;}
	.st119{clip-path:url(#SVGID_147_);}
	.st120{fill:none;stroke:#EC2227;stroke-width:9;stroke-miterlimit:10;}
	.st121{clip-path:url(#SVGID_149_);}
	.st122{fill:#FFFFFF;stroke:#000000;stroke-miterlimit:10;}
</style>
  </defs>
  <g id="Layer_1" transform="matrix(1, 0, 0, 1, -168.62262, -206.94931)">
    <g>
      <g>
        <path class="st1" d="M187.29,310.22h4.41c0.12,1.71,0.63,3.24,1.53,4.59c0.9,1.34,2.13,2.41,3.7,3.18 c1.57,0.77,3.42,1.16,5.54,1.16c1.84,0,3.38-0.28,4.62-0.83c1.24-0.55,2.18-1.32,2.81-2.3c0.63-0.98,0.95-2.12,0.95-3.43 c0-1.34-0.33-2.43-0.98-3.24c-0.65-0.82-1.59-1.51-2.81-2.08c-1.23-0.57-2.67-1.12-4.35-1.65c-1.59-0.49-3.2-1.06-4.83-1.71 c-1.63-0.65-3.15-1.45-4.56-2.39c-1.41-0.94-2.54-2.07-3.4-3.4c-0.86-1.33-1.29-2.93-1.29-4.8c0-1.84,0.5-3.56,1.5-5.17 c1-1.61,2.47-2.92,4.41-3.92c1.94-1,4.27-1.5,7.01-1.5c4.28,0,7.49,1.16,9.61,3.49c2.12,2.33,3.14,5.41,3.06,9.24h-4.41 c-0.08-2.9-0.9-4.98-2.45-6.24c-1.55-1.26-3.57-1.9-6.06-1.9c-2.08,0-3.9,0.48-5.45,1.44c-1.55,0.96-2.33,2.46-2.33,4.5 c0,0.9,0.17,1.68,0.52,2.35c0.35,0.68,0.92,1.3,1.71,1.87s1.88,1.13,3.24,1.68c1.37,0.55,3.05,1.15,5.05,1.8 c1.31,0.41,2.64,0.9,4.01,1.47c1.37,0.57,2.63,1.29,3.8,2.14c1.16,0.86,2.1,1.95,2.81,3.27c0.71,1.33,1.07,2.99,1.07,4.99 c0,1.92-0.46,3.71-1.38,5.36c-0.92,1.65-2.35,2.99-4.28,4.01c-1.94,1.02-4.44,1.53-7.5,1.53c-2.61,0-4.85-0.36-6.7-1.07 c-1.86-0.71-3.38-1.64-4.56-2.78c-1.18-1.14-2.09-2.34-2.72-3.58c-0.63-1.24-1.05-2.42-1.26-3.52 C187.15,311.69,187.13,310.83,187.29,310.22z" style="fill: rgb(178, 178, 178);"/>
        <path class="st1" d="M224.32,283.35h4.9v39.79h-4.9V283.35z" style="fill: rgb(178, 178, 178);"/>
        <path class="st1" d="M257.13,323.75c-2.9,0-5.5-0.49-7.8-1.47c-2.31-0.98-4.27-2.36-5.91-4.13c-1.63-1.77-2.88-3.91-3.73-6.4 c-0.86-2.49-1.29-5.22-1.29-8.2c0-3.02,0.47-5.81,1.41-8.35c0.94-2.55,2.26-4.76,3.98-6.61c1.71-1.86,3.74-3.29,6.09-4.31 c2.35-1.02,4.93-1.53,7.74-1.53c3.06,0,5.77,0.58,8.14,1.74c2.36,1.16,4.28,2.79,5.75,4.89c1.47,2.1,2.35,4.56,2.63,7.37h-4.16 c-0.53-1.96-1.39-3.64-2.57-5.05c-1.18-1.41-2.6-2.49-4.25-3.25c-1.65-0.75-3.5-1.13-5.54-1.13c-2.82,0-5.3,0.71-7.44,2.11 c-2.14,1.4-3.83,3.34-5.05,5.78c-1.22,2.45-1.84,5.22-1.84,8.32s0.55,5.82,1.65,8.17c1.1,2.35,2.69,4.17,4.77,5.48 c2.08,1.3,4.55,1.96,7.41,1.96c2.2,0,4.13-0.43,5.78-1.29c1.65-0.86,2.99-2.11,4.01-3.77c1.02-1.65,1.71-3.68,2.08-6.09h3 c-0.65,5.26-2.31,9.2-4.96,11.81C264.39,322.44,261.09,323.75,257.13,323.75z M271.03,323.14c0-1.34,0.03-2.87,0.09-4.56 c0.06-1.69,0.15-3.41,0.27-5.17c0.12-1.76,0.22-3.32,0.31-4.71h-13.47v-4.59h17.57v19.03H271.03z" style="fill: rgb(178, 178, 178);"/>
        <path class="st1" d="M307.38,320.2h-1.96l18.12-36.85h4.9v39.79h-4.9v-31.28l0.98,0.24l-15.67,31.03h-4.9l-15.67-30.97l0.98-0.25 v31.22h-4.9v-39.79h4.9L307.38,320.2z" style="fill: rgb(178, 178, 178);"/>
        <path class="st1" d="M334.56,323.14l15.12-39.79h5.14l15.24,39.79h-5.26l-13.28-35.99h1.47l-13.28,35.99H334.56z M342.64,312.73 v-4.59h19.1v4.59H342.64z" style="fill: rgb(178, 178, 178);"/>
      </g>
      <g>
        <g>
          <g>
            <path class="st1" d="M388.92,290.52c-1.37-1.61-2.63-3.24-3.79-4.88c-1.16-1.64-2.09-3.27-2.8-4.91 c-0.7-1.63-1.06-3.22-1.06-4.75c0-1.53,0.26-2.96,0.78-4.29c0.52-1.33,1.26-2.49,2.24-3.48c0.97-0.99,2.16-1.77,3.57-2.33 c1.41-0.56,2.98-0.84,4.72-0.84c2.11,0,4.05,0.49,5.81,1.46c1.76,0.98,3.14,2.28,4.13,3.92c0.99,1.64,1.39,3.49,1.18,5.56 h-4.35c0-1.86-0.68-3.38-2.05-4.54c-1.37-1.16-2.94-1.74-4.72-1.74c-1.24,0-2.34,0.26-3.29,0.78c-0.95,0.52-1.7,1.25-2.24,2.21 c-0.54,0.95-0.81,2.05-0.81,3.29c0,0.7,0.07,1.4,0.22,2.08c0.14,0.68,0.43,1.44,0.87,2.27c0.43,0.83,1.05,1.81,1.83,2.95 c0.79,1.14,1.83,2.52,3.14,4.13c1.3,1.62,2.9,3.57,4.78,5.84c1.89,2.28,4.13,4.99,6.74,8.14v4.66h-23.61v-4.66h20.13 l-0.81,1.74l-6.65-7.95C391.62,293.7,390.29,292.14,388.92,290.52z" style="fill: rgb(178, 178, 178);"/>
          </g>
        </g>
        <g>
          <path class="st1" d="M484.88,290.15v-24.49h4.9v24.49c0,2.25-0.27,4.23-0.8,5.97c-0.53,1.74-1.28,3.24-2.23,4.5 c-0.96,1.26-2.11,2.29-3.46,3.09c-1.35,0.8-2.85,1.39-4.5,1.77c-1.65,0.39-3.42,0.58-5.29,0.58c-1.92,0-3.71-0.19-5.39-0.58 c-1.67-0.38-3.19-0.98-4.56-1.77s-2.53-1.83-3.49-3.09c-0.96-1.27-1.7-2.76-2.23-4.5c-0.53-1.73-0.8-3.72-0.8-5.97v-24.49h4.9 v24.49c0,3.06,0.53,5.41,1.59,7.04s2.47,2.75,4.22,3.37c1.75,0.61,3.67,0.92,5.75,0.92c2.04,0,3.92-0.31,5.63-0.92 c1.71-0.61,3.1-1.73,4.16-3.37S484.88,293.21,484.88,290.15z" style="fill: rgb(178, 178, 178);"/>
          <path class="st1" d="M493.45,305.45l15.12-39.79h5.14l15.24,39.79h-5.26l-13.28-35.99h1.47l-13.28,35.99H493.45z M501.53,295.04 v-4.59h19.1v4.59H501.53z" style="fill: rgb(178, 178, 178);"/>
          <path class="st1" d="M535.07,305.45v-39.79h17.57c2.77,0,5.14,0.42,7.1,1.26c1.96,0.84,3.46,2.09,4.5,3.77 c1.04,1.67,1.56,3.77,1.56,6.3c0,1.71-0.27,3.18-0.83,4.41s-1.32,2.26-2.3,3.09c-0.98,0.84-2.13,1.48-3.46,1.93 c-1.33,0.45-2.76,0.73-4.32,0.86l-0.18-0.31c2.16,0.08,4.02,0.35,5.57,0.8c1.55,0.45,2.75,1.27,3.61,2.45 c0.86,1.18,1.29,2.96,1.29,5.33v9.92h-4.9v-9.92c0-1.63-0.28-2.91-0.83-3.83c-0.55-0.92-1.47-1.57-2.75-1.96 c-1.29-0.39-3.05-0.58-5.3-0.58h-11.45v16.28H535.07z M539.97,284.57h12.67c2.77,0,4.85-0.7,6.21-2.11 c1.37-1.41,2.05-3.24,2.05-5.48c0-2.16-0.69-3.83-2.05-4.99c-1.37-1.16-3.44-1.74-6.21-1.74h-12.67V284.57z" style="fill: rgb(178, 178, 178);"/>
          <path class="st1" d="M579.27,287.94v12.92h23.32v4.59h-28.22v-39.79h28.16v4.59h-23.26v13.1h19.04v4.59H579.27z" style="fill: rgb(178, 178, 178);"/>
          <path class="st1" d="M624.08,265.66c4,0,7.36,0.52,10.07,1.56c2.71,1.04,4.89,2.48,6.52,4.32c1.63,1.84,2.82,3.94,3.55,6.31 c0.73,2.36,1.1,4.88,1.1,7.53s-0.39,5.18-1.16,7.59c-0.78,2.41-2.01,4.55-3.7,6.43c-1.69,1.88-3.89,3.36-6.58,4.44 c-2.69,1.08-5.96,1.62-9.79,1.62h-12.92v-39.79H624.08z M616.06,300.86h8.02c3.22,0,5.89-0.45,7.99-1.35 c2.1-0.9,3.76-2.09,4.99-3.58c1.23-1.49,2.09-3.15,2.6-4.99c0.51-1.84,0.77-3.69,0.77-5.57c0-1.88-0.26-3.71-0.77-5.51 c-0.51-1.79-1.38-3.41-2.6-4.86c-1.22-1.45-2.89-2.6-4.99-3.46c-2.1-0.86-4.77-1.29-7.99-1.29h-8.02V300.86z" style="fill: rgb(178, 178, 178);"/>
          <g>
            <path class="st1" d="M429.48,306.06c-3.63,0-6.93-0.85-9.89-2.54s-5.32-4.07-7.07-7.13s-2.63-6.67-2.63-10.83 s0.88-7.78,2.63-10.86s4.11-5.46,7.07-7.13c2.96-1.67,6.25-2.51,9.89-2.51s6.93,0.84,9.89,2.51c2.96,1.67,5.31,4.05,7.07,7.13 c1.75,3.08,2.63,6.7,2.63,10.86s-0.88,7.77-2.63,10.83c-1.76,3.06-4.11,5.44-7.07,7.13S433.11,306.06,429.48,306.06z M429.48,301.47c2.77,0,5.26-0.6,7.47-1.8c2.2-1.2,3.96-2.99,5.26-5.36c1.31-2.36,1.96-5.28,1.96-8.75 c0-3.47-0.65-6.37-1.96-8.72c-1.31-2.34-3.06-4.13-5.26-5.35c-2.2-1.23-4.69-1.84-7.47-1.84c-2.73,0-5.21,0.61-7.44,1.84 c-2.22,1.23-3.99,3.01-5.3,5.35c-1.31,2.35-1.96,5.26-1.96,8.72c0,3.47,0.65,6.39,1.96,8.75c1.31,2.37,3.07,4.15,5.3,5.36 C424.27,300.87,426.75,301.47,429.48,301.47z" style="fill: rgb(178, 178, 178);"/>
            <rect x="428.3" y="301.47" class="st1" width="22.29" height="4.59" style="fill: rgb(178, 178, 178);"/>
          </g>
        </g>
      </g>
    </g>
  </g>
</svg>