<svg xmlns="http://www.w3.org/2000/svg" version="1.0" width="994.000000" height="998.000000" preserveAspectRatio="xMidYMid meet" style=""><rect id="backgroundrect" width="100%" height="100%" x="0" y="0" fill="none" stroke="none"/>
<metadata>
Created by potrace 1.15, written by Peter Selinger 2001-2017
</metadata>

<g class="currentLayer" style=""><title>Layer 1</title><g transform="translate(0.000000,998.000000) scale(0.100000,-0.100000)" fill="#000000" stroke="none" id="svg_1" class="" stroke-width="1" filter="url(#f068)">
<path d="M5660 9623 c-238 -11 -517 -49 -498 -68 3 -3 52 1 109 10 115 16 453 45 530 45 27 0 49 5 49 10 0 7 -26 10 -67 8 -38 -2 -93 -4 -123 -5z" id="svg_2" stroke-width="1" filter="url(#f068)"/>
<path d="M4790 9594 c-146 -38 -269 -114 -396 -246 -97 -100 -121 -131 -252 -320 -73 -105 -116 -156 -148 -179 -25 -17 -43 -33 -41 -36 18 -18 127 96 212 221 148 217 281 365 395 438 31 19 94 52 140 73 82 37 90 39 220 44 83 3 124 7 105 12 -52 12 -178 8 -235 -7z" id="svg_3" stroke-width="1" filter="url(#f068)"/>
<path d="M6384 9449 c27 -16 50 -28 53 -25 7 6 -69 56 -86 56 -8 0 7 -14 33 -31z" id="svg_4" stroke-width="1" filter="url(#f068)"/>
<path d="M6605 9233 c4 -10 16 -40 27 -66 35 -91 76 -162 138 -242 35 -44 101 -138 148 -210 91 -140 130 -191 232 -301 100 -109 125 -172 185 -465 43 -215 33 -303 -51 -471 -46 -91 -55 -117 -28 -83 44 57 114 227 129 315 12 70 -79 490 -125 579 -21 41 -64 95 -164 208 -38 43 -84 103 -104 133 -82 128 -129 197 -201 293 -68 91 -94 138 -156 285 -10 23 -22 42 -28 42 -5 0 -6 -8 -2 -17z" id="svg_5" stroke-width="1" filter="url(#f068)"/>
<path d="M3870 8794 c-14 -8 -79 -39 -145 -71 -134 -64 -183 -98 -246 -175 l-44 -53 45 39 c25 22 47 42 50 46 28 33 121 92 234 145 75 36 136 70 136 75 0 12 2 12 -30 -6z" id="svg_6" stroke-width="1" filter="url(#f068)"/>
<path d="M4386 8377 c-31 -40 -78 -151 -140 -330 -30 -85 -67 -167 -96 -215 -188 -301 -189 -304 -197 -423 -6 -79 11 -235 29 -260 7 -10 8 -1 4 31 -15 112 -18 239 -7 294 14 77 35 119 133 268 93 143 110 177 169 353 24 72 64 172 90 223 25 50 45 92 43 92 -2 0 -14 -15 -28 -33z" id="svg_7" stroke-width="1" filter="url(#f068)"/>
<path d="M3186 8312 c-18 -29 -28 -173 -23 -332 5 -149 9 -189 32 -270 15 -52 45 -168 66 -258 62 -258 83 -310 198 -492 102 -162 98 -150 68 -217 -44 -98 -58 -238 -36 -359 33 -187 213 -617 288 -688 25 -24 42 -30 91 -34 77 -6 102 1 137 38 15 16 31 30 35 30 8 0 22 -40 77 -211 l41 -127 0 -305 c0 -168 -3 -312 -6 -321 -3 -8 -26 -25 -51 -37 -49 -24 -111 -93 -194 -218 -54 -80 -54 -81 -112 -92 -105 -21 -151 -58 -259 -209 -119 -167 -395 -469 -447 -489 -80 -32 -331 -164 -1301 -688 -378 -203 -519 -278 -790 -415 -325 -165 -424 -238 -484 -356 -33 -65 -41 -105 -67 -327 -14 -122 -23 -278 -27 -485 -4 -168 -11 -310 -15 -317 -24 -38 -120 -390 -132 -488 -19 -150 -35 -393 -34 -528 1 -177 15 -94 22 128 13 376 44 554 145 830 25 67 26 82 33 365 9 405 44 722 90 811 65 129 133 180 464 346 295 148 813 422 1225 648 113 62 255 138 315 171 61 32 146 78 190 101 44 24 144 76 222 115 115 59 145 70 155 60 10 -10 13 -112 13 -462 0 -247 3 -451 6 -454 7 -7 19 443 19 721 0 111 4 212 9 225 9 23 52 72 242 281 52 57 127 151 166 208 39 57 82 114 94 126 39 35 179 81 179 57 0 -3 -24 -49 -52 -102 -47 -86 -52 -103 -51 -153 2 -82 33 -153 324 -729 282 -557 314 -627 454 -981 153 -385 238 -616 646 -1758 128 -359 235 -649 237 -642 5 15 -100 319 -383 1106 -30 83 -93 258 -140 390 -170 473 -332 894 -472 1225 -59 138 -172 366 -475 960 -191 373 -203 424 -135 558 68 132 231 377 283 424 11 9 32 22 48 28 l29 11 -7 -91 c-8 -102 -19 -146 -31 -118 -4 10 -10 50 -15 90 l-7 73 -2 -76 c-1 -79 22 -165 69 -259 63 -126 233 -307 680 -724 459 -428 563 -543 610 -677 7 -20 26 -53 41 -75 58 -81 101 -166 145 -286 24 -68 54 -147 65 -176 28 -69 19 -106 -66 -273 -98 -193 -107 -234 -112 -541 -3 -142 -1 -258 4 -258 4 0 9 98 10 218 3 304 30 431 132 611 43 77 48 89 66 157 29 107 211 416 339 574 33 41 89 108 123 148 35 40 70 89 79 110 8 20 33 109 54 197 21 88 59 228 84 310 72 239 84 300 94 458 5 81 12 150 15 154 11 10 34 -16 55 -60 34 -74 108 -431 137 -667 9 -69 20 -163 26 -209 13 -99 11 -113 -29 -256 -29 -107 -45 -196 -57 -320 -3 -33 -14 -143 -25 -245 -75 -700 -101 -913 -140 -1150 -52 -320 -72 -455 -100 -670 -17 -129 -44 -329 -60 -444 -33 -229 -34 -245 -21 -230 10 11 48 259 91 599 17 132 47 341 66 465 92 595 133 919 199 1575 26 257 36 323 65 419 37 121 42 170 31 269 -30 251 -81 549 -122 709 -10 42 -19 79 -19 83 0 22 30 -13 89 -100 75 -113 78 -116 431 -345 183 -119 293 -182 620 -360 182 -99 515 -293 720 -420 8 -5 112 -65 230 -133 418 -241 442 -258 511 -359 101 -148 162 -360 209 -730 11 -84 37 -232 59 -328 102 -457 124 -668 106 -1025 -5 -92 -3 -171 4 -230 17 -123 35 -138 24 -20 -4 50 -8 117 -7 150 7 459 6 488 -20 660 -23 157 -42 255 -110 584 -14 68 -35 190 -46 270 -56 421 -147 658 -301 783 -39 32 -204 138 -214 138 -3 0 -48 26 -102 58 -54 32 -125 74 -158 92 -33 19 -168 99 -300 179 -320 193 -426 254 -710 406 -251 135 -379 212 -685 417 l-184 123 -73 109 c-68 102 -127 179 -165 218 -9 9 -21 26 -27 37 -23 42 -9 373 30 731 10 91 18 119 61 215 92 201 123 324 154 595 9 80 20 149 25 154 5 6 34 -4 73 -24 59 -29 70 -32 120 -26 46 6 60 13 86 42 16 19 30 36 30 37 0 16 34 274 45 342 8 50 19 153 25 230 11 132 10 147 -10 230 -26 110 -79 245 -102 258 -11 8 -36 6 -86 -6 -38 -9 -99 -17 -134 -17 -56 0 -71 4 -105 29 -57 42 -99 95 -178 226 -38 64 -85 134 -103 156 -35 40 -112 99 -131 99 -25 0 -8 -20 34 -40 56 -27 89 -67 199 -242 66 -104 104 -152 155 -198 l67 -60 27 -114 c18 -75 27 -141 27 -196 0 -69 5 -92 30 -150 34 -77 38 -129 15 -202 -18 -62 -2 -63 19 -1 24 70 20 125 -14 203 -36 83 -38 110 -8 110 l21 0 -21 23 c-37 40 -25 162 29 287 17 40 28 51 63 64 72 28 91 23 114 -31 11 -27 33 -91 49 -143 24 -82 28 -111 27 -210 0 -63 -8 -162 -17 -220 -9 -58 -23 -163 -32 -235 -26 -228 -36 -245 -136 -248 -49 -1 -74 4 -107 21 -63 33 -68 52 -49 174 16 101 20 144 18 182 -2 38 -10 9 -21 -79 -7 -50 -18 -119 -25 -155 -7 -36 -21 -126 -30 -200 -43 -365 -74 -482 -180 -690 -66 -128 -136 -220 -256 -335 -174 -166 -228 -202 -372 -249 -243 -79 -635 -111 -811 -66 -116 29 -294 126 -541 294 -100 68 -278 238 -319 304 -15 24 -30 41 -33 38 -13 -12 74 -121 165 -206 131 -123 426 -321 604 -405 140 -66 297 -85 503 -61 264 31 445 74 555 132 79 42 283 223 383 340 39 46 75 84 80 84 5 0 7 -14 3 -31 -19 -97 -37 -371 -46 -706 -6 -210 -15 -406 -21 -435 -14 -64 -67 -262 -103 -378 -14 -47 -45 -163 -69 -257 l-44 -173 -70 -77 c-133 -149 -250 -311 -343 -473 -86 -150 -104 -180 -111 -180 -4 0 -20 37 -35 82 -47 145 -103 270 -154 346 -28 40 -62 100 -76 134 -58 138 -158 248 -624 683 -387 363 -549 528 -618 633 -88 132 -90 142 -61 309 20 121 23 180 27 471 l4 332 -67 203 c-93 278 -110 348 -150 606 -32 204 -54 285 -73 267 -3 -4 0 -12 6 -18 22 -22 14 -41 -13 -34 -27 7 -72 -12 -94 -38 -18 -21 -9 -20 33 5 23 13 43 18 57 14 26 -9 24 -17 -42 -187 -27 -70 -49 -134 -49 -143 0 -25 -37 -17 -59 13 -14 18 -20 22 -21 11 0 -17 36 -59 51 -59 20 0 49 21 49 35 0 7 20 69 45 137 26 68 48 129 51 137 11 32 23 -9 38 -123 8 -65 13 -123 10 -127 -3 -5 -14 -9 -24 -9 -26 0 -50 -10 -50 -22 0 -5 5 -6 11 -3 6 4 25 4 44 1 30 -6 33 -10 39 -50 4 -23 19 -88 35 -143 31 -114 28 -133 -33 -169 -43 -25 -148 -25 -177 2 -89 80 -286 579 -297 750 -8 134 28 314 62 314 8 0 48 -39 89 -87 41 -49 92 -104 113 -123 24 -22 16 -10 -22 35 -100 116 -175 222 -266 375 -113 191 -138 252 -198 493 -27 111 -59 236 -71 277 -26 94 -38 371 -20 499 10 80 10 103 -3 83z m3688 -1260 c4 -8 -31 -141 -41 -152 -13 -15 -50 131 -38 150 7 12 72 13 79 2z" id="svg_8" stroke-width="1" filter="url(#f068)"/>
<path d="M5180 8304 c0 -15 126 -230 198 -338 80 -120 204 -253 286 -309 58 -39 234 -113 244 -102 8 8 3 11 -108 55 -57 23 -126 57 -152 76 -115 85 -247 256 -392 509 -59 102 -76 127 -76 109z" id="svg_9" stroke-width="1" filter="url(#f068)"/>
<path d="M6045 7583 c-39 -10 -101 -42 -119 -62 -25 -28 -14 -26 32 3 51 33 97 46 194 55 l83 8 -85 0 c-47 1 -94 -2 -105 -4z" id="svg_10" stroke-width="1" filter="url(#f068)"/>
<path d="M6180 7448 c-36 -3 -103 -16 -150 -27 -47 -12 -97 -21 -112 -21 -15 0 -30 -5 -34 -11 -8 -14 68 -6 161 17 33 8 105 20 160 27 110 14 88 27 -25 15z" id="svg_11" stroke-width="1" filter="url(#f068)"/>
<path d="M4492 7415 c-126 -24 -175 -43 -234 -90 -65 -51 -79 -82 -53 -121 16 -25 20 -26 80 -21 35 3 89 16 121 28 91 33 129 38 274 39 74 0 145 3 158 6 56 15 0 105 -89 143 -64 28 -162 34 -257 16z m237 -26 c50 -15 130 -84 115 -98 -5 -5 -74 -13 -154 -16 -123 -6 -163 -12 -267 -41 -77 -23 -137 -34 -165 -32 -40 3 -43 5 -46 34 -2 25 4 37 34 64 52 45 110 69 223 91 104 20 190 19 260 -2z" id="svg_12" stroke-width="1" filter="url(#f068)"/>
<path d="M5957 7310 c-49 -13 -127 -52 -166 -86 -48 -40 -30 -40 26 -1 26 20 77 45 113 57 55 19 81 21 170 18 110 -5 145 -16 238 -73 23 -14 42 -23 42 -18 0 9 -101 73 -145 92 -37 16 -227 24 -278 11z" id="svg_13" stroke-width="1" filter="url(#f068)"/>
<path d="M5970 7236 c-78 -30 -240 -134 -240 -156 0 -13 95 -12 285 1 152 10 229 24 307 58 l43 18 -62 32 c-112 56 -254 76 -333 47z m168 -68 l-3 -63 -97 -3 -97 -3 -7 27 c-9 37 6 76 36 91 14 7 58 13 98 13 l73 0 -3 -62z m115 26 c52 -18 67 -32 46 -45 -24 -15 -119 -40 -129 -34 -6 3 -10 26 -10 51 0 39 2 44 23 44 13 0 44 -7 70 -16z m-333 -61 c0 -35 1 -35 -120 -48 -55 -6 -55 -6 -35 14 11 11 47 36 79 55 65 39 76 37 76 -21z" id="svg_14" stroke-width="1" filter="url(#f068)"/>
<path d="M6065 7180 c-7 -12 2 -30 16 -30 12 0 12 27 0 35 -5 3 -12 1 -16 -5z" id="svg_15" stroke-width="1" filter="url(#f068)"/>
<path d="M5986 7155 c4 -8 8 -15 10 -15 2 0 4 7 4 15 0 8 -4 15 -10 15 -5 0 -7 -7 -4 -15z" id="svg_16" stroke-width="1" filter="url(#f068)"/>
<path d="M4700 7170 c0 -6 28 -10 63 -10 35 0 87 -7 116 -16 72 -21 76 -11 6 15 -59 22 -185 30 -185 11z" id="svg_17" stroke-width="1" filter="url(#f068)"/>
<path d="M4558 7145 c-26 -7 -64 -22 -84 -34 -45 -27 -136 -103 -130 -109 3 -2 26 14 53 36 55 46 140 89 196 98 20 4 37 10 37 15 0 11 -14 10 -72 -6z" id="svg_18" stroke-width="1" filter="url(#f068)"/>
<path d="M7120 7148 c-25 -6 -39 -13 -32 -15 20 -8 102 7 102 18 0 11 -10 10 -70 -3z" id="svg_19" stroke-width="1" filter="url(#f068)"/>
<path d="M4031 7039 c-43 -93 -52 -130 -81 -334 -33 -232 -33 -231 -23 -220 12 13 28 99 48 255 22 167 30 201 71 293 20 43 33 81 30 84 -3 3 -23 -32 -45 -78z" id="svg_20" stroke-width="1" filter="url(#f068)"/>
<path d="M4635 7092 c-25 -9 -156 -76 -213 -109 -49 -29 -49 -40 0 -23 30 11 42 10 92 -9 92 -34 325 -23 390 19 17 11 49 29 71 39 l40 20 -38 15 c-20 9 -54 23 -74 32 -41 18 -232 29 -268 16z m162 -16 c14 -13 7 -107 -8 -117 -26 -16 -31 -10 -24 31 8 45 -4 76 -16 44 -4 -10 -8 -31 -8 -47 -1 -32 -30 -47 -92 -47 -33 0 -41 4 -49 26 -14 36 -12 80 4 93 30 25 173 37 193 17z m108 -23 c46 -22 42 -42 -13 -70 -54 -27 -72 -21 -72 22 0 68 19 79 85 48z m-334 -61 c8 -41 -7 -50 -50 -27 -37 19 -39 29 -8 50 32 22 50 15 58 -23z" id="svg_21" stroke-width="1" filter="url(#f068)"/>
<path d="M4670 7015 c0 -8 7 -15 16 -15 14 0 14 3 4 15 -7 8 -14 15 -16 15 -2 0 -4 -7 -4 -15z" id="svg_22" stroke-width="1" filter="url(#f068)"/>
<path d="M6895 6770 c3 -5 11 -10 16 -10 6 0 7 5 4 10 -3 6 -11 10 -16 10 -6 0 -7 -4 -4 -10z" id="svg_23" stroke-width="1" filter="url(#f068)"/>
<path d="M7013 6744 c3 -10 19 -55 36 -100 16 -44 32 -101 36 -127 4 -26 11 -45 15 -42 22 13 -51 262 -83 282 -6 4 -8 -1 -4 -13z" id="svg_24" stroke-width="1" filter="url(#f068)"/>
<path d="M7036 6512 c-2 -4 -1 -23 4 -42 l8 -35 1 43 c1 41 -3 50 -13 34z" id="svg_25" stroke-width="1" filter="url(#f068)"/>
<path d="M3820 6496 c0 -2 8 -10 18 -17 15 -13 16 -12 3 4 -13 16 -21 21 -21 13z" id="svg_26" stroke-width="1" filter="url(#f068)"/>
<path d="M3551 6422 c10 -38 27 -89 38 -115 11 -26 26 -76 32 -112 6 -35 17 -72 26 -82 14 -17 14 -16 8 7 -3 14 -10 51 -16 83 -9 57 -9 59 27 187 11 41 -13 11 -28 -34 -7 -22 -18 -41 -24 -43 -6 -2 -19 24 -28 59 -22 80 -36 118 -46 118 -4 0 1 -31 11 -68z" id="svg_27" stroke-width="1" filter="url(#f068)"/>
<path d="M5844 6419 c4 -13 9 -47 13 -76 5 -48 4 -54 -25 -82 -26 -27 -33 -29 -62 -21 -17 5 -38 14 -46 21 -8 7 -37 10 -72 7 -49 -3 -67 -11 -117 -46 -32 -23 -68 -42 -79 -42 -12 0 -57 16 -101 35 -44 19 -89 35 -100 35 -11 0 -34 -13 -52 -30 -43 -40 -97 -48 -142 -20 l-33 21 4 85 c5 103 -12 99 -20 -5 l-5 -71 37 -35 c59 -55 98 -49 187 28 18 16 32 12 146 -36 34 -15 70 -27 80 -27 10 0 47 20 82 45 55 38 72 45 113 45 27 0 65 -7 85 -15 49 -21 79 -19 103 7 30 33 41 83 29 139 -6 27 -15 52 -21 55 -8 5 -9 -1 -4 -17z" id="svg_28" stroke-width="1" filter="url(#f068)"/>
<path d="M6926 6406 c8 -21 55 -35 82 -25 34 13 26 22 -12 16 -24 -4 -39 -1 -47 9 -15 18 -30 18 -23 0z" id="svg_29" stroke-width="1" filter="url(#f068)"/>
<path d="M7045 6310 c-10 -11 -16 -22 -13 -25 3 -3 13 4 23 15 10 11 16 22 13 25 -3 3 -13 -4 -23 -15z" id="svg_30" stroke-width="1" filter="url(#f068)"/>
<path d="M6375 6069 c16 -50 60 -133 63 -119 3 19 -42 125 -59 135 -8 5 -9 1 -4 -16z" id="svg_31" stroke-width="1" filter="url(#f068)"/>
<path d="M6300 6073 c0 -6 7 -38 15 -71 12 -46 13 -73 5 -128 -12 -85 -12 -86 -1 -80 18 11 31 131 21 185 -9 49 -39 119 -40 94z" id="svg_32" stroke-width="1" filter="url(#f068)"/>
<path d="M4638 5948 c-59 -90 -70 -150 -47 -260 13 -61 35 -94 25 -38 -25 151 -19 204 36 294 40 66 29 69 -14 4z" id="svg_33" stroke-width="1" filter="url(#f068)"/>
<path d="M5590 5934 c-35 -10 -125 -19 -245 -23 -199 -8 -246 -19 -364 -81 -44 -23 -25 -26 27 -4 131 57 170 64 330 64 110 0 172 5 216 16 75 20 208 23 259 5 51 -17 60 -6 12 15 -56 23 -169 27 -235 8z" id="svg_34" stroke-width="1" filter="url(#f068)"/>
<path d="M5894 5883 c4 -5 22 -13 39 -19 27 -10 14 -12 -88 -11 -80 0 -148 -5 -205 -17 -63 -14 -137 -19 -290 -21 -213 -2 -215 -2 -413 -60 -32 -9 -70 -27 -84 -40 l-27 -22 19 -29 c62 -95 189 -182 334 -228 151 -48 230 -60 357 -54 128 6 207 32 314 103 89 59 209 177 245 240 15 28 38 61 49 74 l21 23 -33 -7 c-25 -5 -42 -1 -79 20 -55 33 -181 70 -159 48z m104 -69 c39 -10 72 -21 72 -25 0 -14 -79 -70 -134 -94 -120 -53 -279 -86 -466 -96 -249 -14 -406 3 -485 51 -40 25 -85 41 -85 32 0 -11 105 -61 175 -84 115 -37 453 -33 631 7 165 38 248 71 321 125 86 66 96 52 28 -38 -57 -76 -213 -203 -289 -237 -169 -75 -346 -73 -596 5 -53 16 -122 46 -156 68 -73 47 -166 140 -162 161 4 22 38 36 170 73 107 30 123 31 318 34 151 2 235 8 320 23 131 23 226 21 338 -5z" id="svg_35" stroke-width="1" filter="url(#f068)"/>
<path d="M5510 5540 c0 -5 5 -10 10 -10 6 0 10 5 10 10 0 6 -4 10 -10 10 -5 0 -10 -4 -10 -10z" id="svg_36" stroke-width="1" filter="url(#f068)"/>
<path d="M6532 3395 c-41 -18 -55 -50 -76 -176 -27 -160 -72 -273 -150 -378 -23 -31 -26 -45 -26 -115 0 -144 3 -140 -177 -235 -155 -82 -293 -165 -293 -176 0 -3 24 8 53 24 28 16 122 67 207 113 85 47 165 91 178 99 38 24 52 69 52 167 l0 90 46 67 c65 95 99 185 130 343 27 137 40 169 67 159 18 -7 46 -187 54 -341 3 -61 9 -118 14 -126 16 -28 9 136 -11 296 -12 86 -19 163 -16 171 8 20 31 16 64 -12 34 -29 52 -34 26 -7 -51 52 -86 61 -142 37z" id="svg_37" stroke-width="1" filter="url(#f068)"/>
<path d="M5028 3281 c-66 -26 -135 -79 -214 -164 -70 -75 -237 -293 -267 -349 l-18 -33 31 35 c17 19 43 53 58 75 57 85 199 262 242 303 67 64 139 108 204 125 32 9 61 18 64 21 13 13 -56 4 -100 -13z" id="svg_38" stroke-width="1" filter="url(#f068)"/>
<path d="M4056 3063 c-8 -10 -42 -54 -74 -98 -58 -77 -265 -288 -347 -353 -22 -17 -37 -31 -33 -32 13 0 122 92 211 179 95 92 195 209 240 279 27 42 29 57 3 25z" id="svg_39" stroke-width="1" filter="url(#f068)"/>
<path d="M7436 2652 c47 -41 95 -73 84 -56 -7 11 -27 30 -46 42 -33 21 -58 30 -38 14z" id="svg_40" stroke-width="1" filter="url(#f068)"/>
<path d="M7555 2560 c3 -5 10 -10 16 -10 5 0 9 5 9 10 0 6 -7 10 -16 10 -8 0 -12 -4 -9 -10z" id="svg_41" stroke-width="1" filter="url(#f068)"/>
<path d="M7712 2443 c71 -72 92 -124 83 -208 -21 -183 -157 -775 -256 -1110 -47 -160 -297 -878 -378 -1088 -6 -15 -7 -27 -2 -27 21 0 322 850 415 1170 89 306 187 726 227 972 21 132 21 139 5 183 -16 41 -123 165 -142 165 -5 0 17 -26 48 -57z" id="svg_42" stroke-width="1" filter="url(#f068)"/>
<path d="M841 2415 c8 -11 27 -33 42 -50 35 -37 198 -283 259 -390 166 -293 297 -612 535 -1310 214 -627 214 -628 224 -639 6 -6 9 -6 9 0 0 19 -191 579 -375 1099 -124 351 -222 576 -361 823 -107 191 -218 356 -288 427 -32 33 -52 51 -45 40z" id="svg_43" stroke-width="1" filter="url(#f068)"/>
<path d="M3239 2093 c183 -317 418 -706 570 -943 192 -300 379 -597 431 -685 26 -44 84 -141 129 -215 44 -74 89 -151 100 -170 27 -46 60 -88 61 -74 0 6 -19 42 -43 80 -24 38 -100 163 -169 279 -170 286 -278 459 -455 730 -158 244 -246 387 -468 765 -75 129 -145 246 -155 260 -9 14 -24 40 -34 58 -9 17 -21 32 -26 32 -5 0 22 -53 59 -117z" id="svg_44" stroke-width="1" filter="url(#f068)"/>
<path d="M9180 2160 c0 -8 8 -55 17 -105 14 -70 17 -141 17 -320 -2 -385 -36 -593 -194 -1185 -73 -270 -135 -539 -126 -547 8 -8 8 -6 65 227 28 113 86 345 130 515 122 479 141 617 142 1000 0 171 -4 252 -16 315 -16 82 -34 134 -35 100z" id="svg_45" stroke-width="1" filter="url(#f068)"/>
<path d="M5930 1699 c0 -3 11 -82 25 -175 14 -93 34 -254 45 -358 10 -104 22 -191 26 -195 25 -23 -58 671 -86 718 -5 9 -10 13 -10 10z" id="svg_46" stroke-width="1" filter="url(#f068)"/>
<path d="M7965 119 c-71 -15 -170 -36 -220 -44 -89 -16 -146 -40 -69 -29 144 21 434 82 449 95 15 14 -20 9 -160 -22z" id="svg_47" stroke-width="1" filter="url(#f068)"/>
</g></g><defs><filter id="f068" inkscape:label="Raised border" xmlns:inkscape="http://www.inkscape.org/namespaces/inkscape" inkscape:menu="Bevels" inkscape:menu-tooltip="Strongly raised border around a flat surface" height="1.5" width="1.5" y="-.25" x="-.25" color-interpolation-filters="sRGB">
            <feGaussianBlur stdDeviation="4" result="result1"/>
            <feComposite in="result1" in2="result1" result="result4" operator="in"/>
            <feGaussianBlur stdDeviation="2" result="result6" in="result4"/>
            <feComposite operator="xor" in="result6" in2="result4" result="result8"/>
            <feComposite operator="atop" result="fbSourceGraphic" in="result4" in2="result8"/>
            <feSpecularLighting specularExponent="10" specularConstant="1.3" surfaceScale="3" lighting-color="#fff" result="result1" in="fbSourceGraphic">
                <feDistantLight azimuth="235" elevation="55"/>
            </feSpecularLighting>
            <feComposite operator="atop" result="result2" in="result1" in2="fbSourceGraphic"/>
            <feComposite k3="1" k2="1" operator="arithmetic" result="result4" in="fbSourceGraphic" in2="result2"/>
            <feComposite operator="over" in="result4" in2="SourceGraphic"/>
            <feBlend mode="multiply" in2="result2"/>
        </filter></defs></svg>