<svg width="998" height="1000" xmlns="http://www.w3.org/2000/svg" preserveAspectRatio="xMidYMid meet" version="1.0">
 <metadata>Created by potrace 1.15, written by Peter Selinger 2001-2017</metadata>

 <g>
  <title>Layer 1</title>
  <g id="svg_1" fill="#000000" transform="translate(0.000000,1000.000000) scale(0.100000,-0.100000)">
   <path id="svg_2" d="m10010,6144l0,-3855l-49,58c-72,86 -151,159 -196,182c-22,11 -76,25 -120,31c-44,6 -120,20 -170,30c-317,66 -647,118 -677,107c-17,-6 6,-11 172,-36c74,-12 194,-32 265,-46c72,-14 184,-34 250,-45c179,-30 226,-40 273,-60c49,-22 134,-99 203,-186l49,-62l3,-1133c1,-624 3,1117 5,3869c1,2751 0,5002 -3,5002c-3,0 -5,-1735 -5,-3856z"/>
   <path id="svg_3" d="m4540,9478c-238,-20 -584,-94 -795,-171c-163,-59 -476,-253 -694,-431c-99,-80 -249,-230 -287,-286c-154,-225 -218,-414 -274,-805c-86,-606 -85,-643 20,-966c34,-106 57,-154 142,-295c126,-212 187,-334 164,-334c-3,0 -39,19 -81,41c-68,37 -82,41 -128,36c-94,-9 -135,-86 -122,-232c21,-244 79,-434 242,-790c33,-71 65,-156 72,-187c30,-139 117,-186 291,-154l46,8l43,-108c24,-60 83,-190 132,-289l89,-180l35,-266c19,-146 40,-347 46,-446l13,-181l-26,-58c-15,-33 -41,-119 -60,-192l-33,-133l-136,-157c-249,-288 -329,-351 -649,-513c-118,-59 -289,-147 -380,-194c-335,-175 -588,-291 -1225,-560c-88,-37 -219,-96 -291,-130c-112,-54 -138,-72 -186,-124c-45,-48 -64,-79 -92,-153c-79,-205 -116,-379 -127,-598c-6,-138 -13,-196 -34,-275c-55,-206 -75,-291 -75,-319c0,-48 10,-23 36,86c13,56 35,139 49,183c20,65 27,115 36,260c18,335 111,681 214,804c50,59 180,123 680,334c409,173 603,261 900,413c763,387 738,373 880,487c86,70 107,91 263,269c56,64 107,120 112,123c16,10 11,-72 -9,-170c-11,-49 -29,-133 -40,-185c-11,-52 -29,-157 -40,-232c-35,-238 -99,-424 -205,-596c-29,-48 -63,-106 -75,-129c-11,-23 -57,-192 -101,-375c-44,-183 -105,-432 -136,-553l-57,-220l-1,-160c0,-131 3,-178 22,-260c12,-54 27,-104 32,-109c14,-14 13,-3 -10,107c-32,158 -40,248 -30,338c5,45 59,280 119,523c60,243 122,497 137,566c26,117 31,131 93,225c137,211 202,401 245,715c9,64 27,165 41,225c14,61 37,178 50,260c38,221 81,393 100,393c6,0 17,-26 25,-57c33,-120 117,-247 256,-385c83,-83 489,-394 575,-441c50,-27 51,-27 93,-11c25,10 95,61 162,119c203,175 644,511 974,742c342,240 395,290 462,433c34,73 39,95 47,200c21,258 23,312 12,312c-6,0 -11,-6 -12,-12c0,-7 -6,-103 -13,-213l-13,-201l-47,-91c-76,-147 -99,-168 -516,-460c-196,-138 -765,-574 -888,-680c-169,-146 -204,-158 -293,-96c-132,89 -442,328 -512,393c-92,86 -185,208 -232,305c-37,74 -55,176 -55,305c0,100 -52,561 -86,765c-13,75 -24,106 -69,185c-29,52 -72,140 -95,195c-89,211 -102,240 -115,254c-11,11 -26,12 -92,1c-148,-23 -203,12 -237,149c-9,35 -51,141 -92,235c-136,305 -178,434 -209,646c-25,170 -11,256 46,286c45,23 89,16 179,-29l85,-42l13,-75c7,-41 16,-139 21,-218c4,-78 11,-145 14,-149c13,-12 7,193 -9,312c-28,216 -29,220 -212,523c-59,99 -88,159 -112,235c-18,56 -43,136 -56,178c-53,167 -51,244 12,698c60,437 94,569 190,750c114,215 221,332 479,522c375,277 602,380 1020,464c243,48 346,59 555,59c325,-1 496,-25 720,-103c246,-85 359,-149 500,-286c52,-50 132,-119 176,-152c93,-71 145,-126 194,-209c59,-101 147,-231 211,-311c74,-94 98,-141 133,-258c15,-49 54,-175 86,-280c33,-104 66,-220 75,-256c35,-153 35,-404 0,-595c-35,-191 -131,-514 -166,-558c-11,-14 -33,-58 -50,-98c-16,-39 -36,-79 -43,-87c-22,-25 -36,-88 -42,-191c-7,-119 10,-102 20,20c4,47 12,90 19,97c22,22 178,83 213,83c23,0 43,-9 64,-27c38,-35 60,-128 60,-258c0,-183 -36,-311 -173,-621c-42,-94 -96,-220 -120,-280c-41,-104 -45,-110 -80,-121c-41,-14 -120,-3 -152,20c-15,12 -15,18 4,85c11,40 32,147 47,240c26,164 28,168 65,211c40,45 51,96 29,131c-7,11 -10,1 -10,-36c0,-34 -5,-56 -15,-64c-9,-7 -18,-10 -21,-7c-3,3 -1,93 6,200c11,178 10,212 -9,408c-12,118 -21,234 -21,259c0,25 -2,73 -6,108c-3,37 -2,62 4,62c5,0 3,18 -5,43c-8,23 -19,100 -24,172c-12,173 -36,235 -152,399c-70,98 -114,182 -131,250c-9,33 -25,145 -36,250c-29,262 -49,320 -147,405c-70,62 -117,86 -218,113c-85,22 -107,23 -410,23l-320,0l-114,-33c-63,-19 -164,-52 -225,-74c-61,-23 -185,-66 -276,-96c-225,-74 -303,-104 -308,-121c-3,-10 0,-11 9,-5c8,4 115,43 239,85c124,42 284,97 356,123c278,97 283,98 609,103c268,4 298,3 395,-17c119,-24 165,-44 243,-106c99,-77 126,-161 157,-494c18,-189 38,-242 156,-408c78,-110 129,-207 138,-263c10,-59 27,-282 21,-287c-12,-12 -56,112 -65,183c-6,44 -16,82 -22,87c-22,14 -109,38 -198,54c-47,9 -116,27 -155,40c-119,40 -394,63 -439,37c-15,-8 18,-12 140,-15c188,-5 289,-26 337,-68c38,-33 106,-158 137,-250c27,-79 22,-169 -16,-312c-39,-146 -74,-211 -158,-294c-92,-90 -182,-136 -310,-159c-131,-22 -214,-20 -303,10c-110,37 -152,66 -225,153c-131,155 -201,281 -222,398c-12,66 -46,174 -55,174c-10,0 -7,-12 33,-169c42,-166 116,-292 262,-450c90,-98 222,-151 372,-151c172,1 311,52 437,158c122,104 191,257 219,491c13,114 19,138 41,167c21,27 33,34 60,34c38,0 53,-17 98,-112c40,-85 41,-87 83,-553c16,-181 6,-492 -21,-620c-8,-38 -24,-131 -36,-205c-24,-155 -106,-426 -196,-645c-78,-190 -212,-406 -321,-518c-108,-110 -444,-348 -607,-429c-183,-92 -378,-138 -581,-138c-394,0 -643,124 -1028,514c-82,83 -143,140 -136,127c7,-13 80,-92 164,-176c261,-263 449,-386 696,-456c77,-22 104,-24 295,-24c198,0 216,2 305,27c142,40 253,83 333,130c80,46 350,224 412,271c80,62 247,233 281,290c20,31 44,62 55,67c10,6 19,18 19,26c0,9 20,53 44,97c53,98 120,260 171,415c37,111 38,114 64,108c51,-12 139,-19 164,-12c35,8 53,43 194,371c145,337 167,400 182,521c30,248 -1,403 -90,446c-37,18 -68,12 -168,-33c-80,-36 -100,-38 -77,-6c9,12 45,81 80,152c69,139 123,301 178,540c32,136 33,147 33,365c0,222 0,227 -32,345c-34,127 -150,501 -184,596c-13,34 -50,93 -95,150c-41,52 -111,153 -156,224c-120,192 -158,235 -294,338c-35,26 -87,72 -116,103c-147,154 -277,228 -583,331c-146,49 -249,67 -479,82c-179,12 -245,12 -396,-1zm1650,-2534c61,-14 117,-32 125,-41c9,-9 15,-33 15,-64l0,-49l-37,0c-29,0 -45,-8 -76,-37c-28,-27 -41,-34 -44,-24c-3,7 -31,65 -63,127c-38,76 -53,114 -44,114c7,0 63,-12 124,-26z"/>
   <path id="svg_4" d="m3665,8123c-57,-13 -156,-49 -207,-75c-70,-37 -168,-130 -197,-187c-29,-56 -57,-166 -82,-321c-28,-175 -50,-250 -118,-397c-88,-190 -96,-213 -151,-438c-48,-197 -62,-279 -39,-230c5,11 33,119 63,241c45,186 63,241 115,355c98,211 111,251 152,474c21,116 43,225 48,243c17,57 58,117 117,171c135,124 361,184 475,127c39,-20 58,-21 39,-2c-39,36 -145,55 -215,39z"/>
   <path id="svg_5" d="m5455,7170c-108,-9 -165,-23 -223,-57c-60,-34 -44,-42 20,-10c68,34 172,50 323,51c135,0 195,-13 307,-70c37,-19 73,-34 80,-34c22,1 -73,55 -145,84c-60,24 -198,48 -252,44c-11,0 -60,-4 -110,-8z"/>
   <path id="svg_6" d="m3670,7110c-84,-9 -217,-41 -246,-59c-16,-11 -14,-12 16,-7c19,2 78,14 130,26c121,27 382,38 479,21c70,-13 192,-67 199,-89c2,-7 -2,-10 -12,-6c-9,3 -16,2 -16,-4c0,-6 12,-15 28,-20c15,-5 46,-28 69,-50c46,-43 121,-85 136,-75c6,3 -12,17 -39,30c-46,21 -79,52 -130,120c-12,15 -57,47 -101,71l-80,42l-179,4c-99,3 -213,1 -254,-4z"/>
   <path id="svg_7" d="m5410,7009c-19,-5 -91,-10 -160,-12c-76,-2 -134,-8 -147,-15c-39,-21 -25,-32 19,-16c67,23 518,24 613,1c113,-27 115,-28 115,-19c0,30 -365,81 -440,61z"/>
   <path id="svg_8" d="m3210,6934c-118,-40 -216,-74 -217,-74c-8,-1 -21,-77 -17,-103c4,-20 -11,-93 -41,-201c-25,-93 -44,-174 -42,-180c7,-16 26,37 54,149c13,55 29,116 34,136c11,44 29,53 78,39c58,-15 68,-33 75,-143c11,-144 47,-264 107,-348c37,-53 31,-25 -15,67c-51,103 -69,178 -68,286c0,91 20,166 61,231c17,26 27,47 22,47c-13,0 -68,-86 -81,-126c-7,-19 -13,-34 -15,-34c-2,0 -25,11 -51,25c-26,14 -57,25 -69,25c-13,0 -26,7 -29,16c-9,23 -7,67 3,83c9,14 163,74 286,111c33,10 78,25 100,34c22,8 61,15 88,16c26,0 47,5 47,10c0,27 -105,5 -310,-66z"/>
   <path id="svg_9" d="m5914,6911c8,-12 71,-31 101,-31c18,1 17,2 -5,14c-34,18 -104,30 -96,17z"/>
   <path id="svg_10" d="m4565,6840c4,-6 11,-8 16,-5c14,9 11,15 -7,15c-8,0 -12,-5 -9,-10z"/>
   <path id="svg_11" d="m4643,6839c14,-8 22,-8 30,0c8,8 3,11 -18,11c-26,-1 -28,-2 -12,-11z"/>
   <path id="svg_12" d="m4616,6749c4,-7 26,-9 63,-5c52,5 100,-1 144,-19c27,-11 20,11 -8,23c-34,16 -209,16 -199,1z"/>
   <path id="svg_13" d="m4551,6682c-34,-51 -121,-202 -121,-209c0,-22 -73,-112 -122,-151c-33,-25 -55,-48 -49,-50c7,-2 29,12 50,31c22,20 51,43 66,53c14,9 41,47 60,83c18,36 58,111 89,165c56,99 73,149 27,78z"/>
   <path id="svg_14" d="m5394,6626c-109,-25 -174,-72 -174,-125c0,-13 -8,-22 -22,-25c-13,-3 -45,-9 -73,-14l-50,-10l59,-1c32,0 113,-11 180,-22c185,-33 306,-26 413,21c83,37 46,93 -97,146c-115,42 -156,48 -236,30zm164,-26c23,-10 45,-25 48,-33c6,-16 -34,-129 -50,-139c-21,-14 -79,-8 -111,12c-45,28 -87,92 -83,126c6,51 116,70 196,34zm-220,-47c2,-17 19,-49 38,-72c40,-47 40,-47 -67,-30c-67,12 -69,13 -69,41c0,21 11,41 35,65c40,40 59,39 63,-4zm346,3c18,-8 43,-24 55,-37l22,-24l-22,-18c-25,-20 -125,-51 -138,-42c-9,5 -3,28 28,108c12,31 11,31 55,13z"/>
   <path id="svg_15" d="m5430,6548c0,-23 34,-40 65,-32c37,9 31,28 -6,20c-24,-4 -35,-2 -45,11c-12,17 -13,17 -14,1z"/>
   <path id="svg_16" d="m4700,6611c0,-6 8,-11 18,-11c9,0 35,-9 57,-21l40,-21l-25,25c-27,27 -90,46 -90,28z"/>
   <path id="svg_17" d="m3820,6549c-111,-29 -225,-83 -214,-101c11,-17 106,-59 154,-68c61,-12 183,2 233,26c37,17 67,64 67,101c0,27 -27,49 -75,62c-49,13 -29,16 -165,-20zm203,-14c15,-6 17,-14 12,-44c-9,-46 -10,-48 -48,-67c-56,-29 -87,-34 -117,-19c-24,13 -90,84 -90,98c0,7 49,25 109,40c52,13 88,11 134,-8zm-263,-34c0,-5 16,-28 35,-51c19,-23 32,-46 29,-52c-8,-13 -78,-1 -132,23c-31,13 -43,24 -40,36c5,29 108,71 108,44z"/>
   <path id="svg_18" d="m3905,6490c3,-5 10,-10 16,-10c5,0 9,5 9,10c0,6 -7,10 -16,10c-8,0 -12,-4 -9,-10z"/>
   <path id="svg_19" d="m6470,6563c0,-11 7,-27 16,-34c15,-12 16,-11 9,11c-10,35 -25,49 -25,23z"/>
   <path id="svg_20" d="m4060,6410c0,-5 7,-10 15,-10c8,0 15,5 15,10c0,6 -7,10 -15,10c-8,0 -15,-4 -15,-10z"/>
   <path id="svg_21" d="m2940,6330c0,-45 4,-69 10,-65c6,3 10,33 10,65c0,32 -4,62 -10,65c-6,4 -10,-20 -10,-65z"/>
   <path id="svg_22" d="m6523,6335c0,-27 2,-38 4,-22c2,15 2,37 0,50c-2,12 -4,0 -4,-28z"/>
   <path id="svg_23" d="m4080,6240c-12,-8 -11,-10 8,-10c12,0 22,5 22,10c0,13 -11,13 -30,0z"/>
   <path id="svg_24" d="m4096,5979c-105,-62 -362,-83 -519,-44c-15,4 -27,3 -27,-2c0,-32 304,-49 415,-23c60,13 165,59 165,71c0,12 -11,11 -34,-2z"/>
   <path id="svg_25" d="m3510,5950c0,-5 7,-10 16,-10c8,0 12,5 9,10c-3,6 -10,10 -16,10c-5,0 -9,-4 -9,-10z"/>
   <path id="svg_26" d="m5140,5872c0,-7 12,-35 26,-63c15,-27 29,-70 31,-94c5,-40 2,-47 -34,-85l-39,-43l-40,13c-21,7 -52,27 -68,44c-26,28 -35,31 -85,30c-34,0 -70,-7 -91,-19c-45,-24 -22,-32 31,-11c46,18 82,20 110,6c32,-18 21,-30 -28,-31c-43,-1 -45,-2 -18,-9c17,-4 50,-8 75,-9c25,-1 54,-8 64,-16c11,-8 28,-15 37,-15c23,0 76,45 94,81c20,38 19,68 -6,133c-20,56 -58,112 -59,88z"/>
   <path id="svg_27" d="m4199,5785c-28,-64 -30,-136 -3,-172c12,-15 33,-35 47,-43c23,-13 31,-13 59,-1c18,8 49,14 68,13l35,-1l-24,18l-24,19l33,17c38,19 103,15 165,-11c21,-8 47,-14 59,-12c33,5 -85,47 -153,54c-54,6 -58,5 -100,-30c-79,-66 -109,-70 -146,-18c-26,35 -23,117 5,172c12,23 16,40 10,40c-6,0 -20,-20 -31,-45z"/>
   <path id="svg_28" d="m2934,5614c4,-33 9,-78 12,-101c5,-41 4,-43 -20,-43c-46,0 -59,25 -51,98c4,36 9,71 12,79c3,7 1,13 -5,13c-12,0 -19,-26 -28,-103c-6,-51 -4,-60 16,-82c12,-13 32,-26 45,-29c17,-4 28,-19 40,-56c21,-63 30,-64 20,-2c-4,26 -9,70 -10,97c-7,105 -17,175 -27,181c-6,4 -8,-14 -4,-52z"/>
   <path id="svg_29" d="m2804,5292c17,-32 44,-58 52,-49c7,6 -47,77 -59,77c-4,0 -1,-13 7,-28z"/>
   <path id="svg_30" d="m3854,5310c-12,-5 -25,-14 -29,-20c-8,-13 5,-10 75,16l35,13l-30,0c-16,0 -40,-4 -51,-9z"/>
   <path id="svg_31" d="m4018,5303c6,-2 18,-2 25,0c6,3 1,5 -13,5c-14,0 -19,-2 -12,-5z"/>
   <path id="svg_32" d="m4420,5274c-8,-1 -45,-6 -82,-9c-38,-4 -68,-11 -68,-17c0,-7 23,-8 68,-4c91,9 122,16 122,27c0,9 -10,10 -40,3z"/>
   <path id="svg_33" d="m4520,5266c-8,-8 -60,-29 -115,-46c-106,-34 -252,-97 -243,-105c3,-3 63,16 134,43c71,27 149,54 174,61c24,7 50,20 56,29c8,11 36,18 90,22l79,7l-80,1c-58,2 -85,-2 -95,-12z"/>
   <path id="svg_34" d="m3785,5250c-10,-11 -16,-22 -13,-25c3,-3 13,4 23,15c10,11 16,22 13,25c-3,3 -13,-4 -23,-15z"/>
   <path id="svg_35" d="m4770,5235c-41,-7 -92,-14 -112,-14c-21,-1 -38,-6 -38,-12c0,-8 19,-10 63,-5c235,25 268,20 472,-69c112,-48 213,-85 237,-85c23,0 -7,21 -45,31c-23,6 -103,37 -177,69c-215,92 -282,106 -400,85z"/>
   <path id="svg_36" d="m4455,5020c3,-5 13,-10 21,-10c8,0 14,5 14,10c0,6 -9,10 -21,10c-11,0 -17,-4 -14,-10z"/>
   <path id="svg_37" d="m5397,4990c-77,-52 -113,-56 -282,-30c-194,31 -505,38 -630,16c-49,-9 -136,-24 -192,-33l-102,-17l-143,27c-156,30 -168,31 -168,19c0,-12 265,-62 325,-62c25,0 97,12 158,27c108,26 122,28 372,27c224,0 277,-3 382,-22c66,-12 136,-22 155,-22c41,0 121,38 168,79c49,42 26,38 -43,-9z"/>
   <path id="svg_38" d="m4209,4832c19,-36 176,-143 271,-186c56,-25 150,-40 330,-52c146,-9 166,-1 282,116c92,93 128,140 111,140c-5,0 -47,-44 -95,-98c-113,-130 -129,-137 -283,-136c-140,2 -303,28 -360,56c-70,36 -189,116 -219,147c-33,35 -52,41 -37,13z"/>
   <path id="svg_39" d="m6080,3799c0,-3 15,-39 34,-80c43,-94 59,-171 59,-279c0,-98 -9,-137 -99,-407c-85,-255 -125,-395 -181,-622c-74,-304 -91,-348 -168,-441c-62,-74 -59,-88 5,-20l61,65l-6,-40c-3,-22 -26,-121 -50,-220c-39,-161 -63,-266 -111,-490c-39,-183 -116,-493 -185,-745c-102,-377 -138,-520 -129,-520c5,0 14,19 20,43c6,23 17,62 25,87c7,25 37,133 65,240c28,107 57,215 65,240c27,89 135,539 179,745c25,116 63,283 85,372c22,89 45,194 51,235c6,40 22,109 35,153c14,44 48,174 76,288c56,235 115,434 189,644c94,269 111,371 85,507c-9,48 -14,91 -11,94c12,11 54,-19 169,-120c165,-143 412,-334 473,-364c48,-24 576,-139 599,-130c16,5 -56,24 -240,61c-286,59 -308,65 -365,96c-76,43 -251,176 -404,309c-71,61 -153,129 -182,151c-29,21 -66,55 -81,75c-52,67 -62,79 -63,73z"/>
   <path id="svg_40" d="m7154,2546c-3,-14 -12,-26 -19,-26c-46,0 -308,-42 -347,-55c-60,-21 -68,-33 -37,-58c20,-17 34,-19 94,-14c72,6 189,47 244,86c16,11 40,25 55,31c30,11 44,36 28,52c-8,8 -13,3 -18,-16zm-84,-55c0,-22 -177,-81 -245,-81c-38,0 -75,14 -64,24c5,5 218,53 264,59c17,2 33,5 38,6c4,0 7,-3 7,-8z"/>
   <path id="svg_41" d="m4519,2450c-32,-13 -93,-21 -205,-29c-87,-6 -184,-18 -214,-27c-124,-36 -280,-142 -340,-229c-39,-56 -61,-121 -105,-300c-49,-198 -91,-279 -201,-389c-48,-47 -84,-89 -80,-93c4,-4 49,36 99,88c120,124 152,189 206,412c57,238 88,290 231,394c113,83 189,107 384,122c132,10 352,-1 386,-19c59,-32 110,-145 110,-245c0,-75 -19,-129 -85,-241c-61,-102 -107,-195 -131,-263c-10,-30 -26,-58 -35,-64c-14,-8 -14,-14 -3,-36c20,-43 37,-244 31,-365c-4,-61 -15,-154 -24,-206c-15,-82 -18,-151 -16,-495c0,-223 5,-413 11,-430c6,-20 9,107 8,385c-1,383 1,426 22,562c25,165 28,291 10,448c-11,99 -10,109 11,180c23,75 68,173 102,222c37,52 87,147 104,197c9,28 20,51 25,51c5,0 16,-23 26,-52c26,-80 63,-156 63,-133c1,21 -48,157 -74,204c-7,14 -20,57 -29,94c-21,91 -41,130 -94,183c-35,35 -129,96 -144,93c-2,0 -24,-8 -49,-19zm120,-37c7,-7 -90,7 -103,15c-5,3 -1,9 10,13c17,6 79,-12 93,-28z"/>
   <path id="svg_42" d="m9303,2278c-15,-20 -93,-226 -93,-245c0,-31 16,1 64,126c44,116 52,148 29,119z"/>
   <path id="svg_43" d="m7198,1943c-31,-71 -82,-193 -113,-273c-32,-80 -92,-221 -135,-315c-177,-385 -250,-557 -330,-770c-26,-71 -87,-227 -135,-345c-48,-118 -89,-221 -92,-228c-3,-6 -1,-12 4,-12c6,0 17,17 25,38c75,182 177,439 237,590c84,215 165,403 286,667c47,105 113,256 145,336c32,80 83,200 113,265c55,120 74,174 60,174c-5,0 -34,-57 -65,-127z"/>
   <path id="svg_44" d="m9192,1984c-32,-81 -68,-234 -108,-469c-25,-143 -54,-300 -65,-350c-54,-243 -77,-390 -125,-825c-14,-129 -30,-257 -35,-284c-8,-45 -6,-67 5,-55c11,11 47,265 66,469c23,250 48,420 84,585c40,180 64,303 86,440c27,171 55,300 86,408c25,86 29,139 6,81z"/>
   <path id="svg_45" d="m3740,1960c0,-8 20,-77 45,-155c135,-426 137,-461 48,-705c-69,-189 -88,-266 -178,-731c-64,-331 -73,-390 -56,-359c10,19 26,96 111,525c62,316 76,370 136,540c63,178 67,195 67,275c0,61 -8,109 -26,170c-14,47 -33,117 -42,155c-16,70 -77,254 -95,284c-8,13 -9,13 -10,1z"/>
   <path id="svg_46" d="m5647,1873c-4,-3 -7,-13 -7,-21c0,-12 3,-12 15,-2c8,7 15,16 15,21c0,11 -14,12 -23,2z"/>
   <path id="svg_47" d="m5061,1565c0,-16 57,-81 64,-73c4,3 -9,24 -29,45c-19,21 -35,34 -35,28z"/>
   <path id="svg_48" d="m5170,1455c7,-8 20,-15 29,-15c13,1 13,3 -3,15c-26,19 -42,19 -26,0z"/>
  </g>
 </g>
</svg>