<svg width="995" height="1004" xmlns="http://www.w3.org/2000/svg" preserveAspectRatio="xMidYMid meet" version="1.0">
 <metadata>Created by potrace 1.15, written by Peter Selinger 2001-2017</metadata>

 <g>
  <title>Layer 1</title>
  <g id="svg_1" fill="#000000" transform="translate(0.000000,1004.000000) scale(0.100000,-0.100000)">
   <path id="svg_2" d="m9990,5030l0,-5010l-4995,0c-3323,0 -4995,-3 -4995,-10c0,-7 1680,-10 5020,-10l5020,0l0,5020l0,5020l-25,0l-25,0l0,-5010z"/>
   <path id="svg_3" d="m5390,9643c-14,-2 -92,-15 -175,-29c-204,-35 -268,-43 -422,-54c-73,-5 -152,-14 -175,-20c-171,-46 -158,-42 -333,-109c-71,-27 -164,-62 -205,-76c-271,-97 -343,-131 -455,-216c-44,-34 -138,-103 -210,-154c-71,-51 -141,-102 -155,-115l-25,-22l31,19c52,31 171,115 283,199c59,44 133,96 164,115c50,32 206,98 357,151c30,11 71,26 90,33c19,7 69,26 110,41c41,15 80,31 85,35c14,9 157,54 230,72c82,20 120,25 284,37c78,6 181,17 229,26c186,33 350,54 420,54c41,0 72,4 72,10c0,10 -146,12 -200,3z"/>
   <path id="svg_4" d="m5970,9645c0,-2 33,-21 74,-41c41,-21 120,-70 177,-111c57,-40 107,-73 112,-73c12,0 -9,16 -138,107c-121,86 -225,140 -225,118z"/>
   <path id="svg_5" d="m6499,9355c24,-14 49,-24 54,-22c14,4 -60,47 -81,47c-9,0 3,-12 27,-25z"/>
   <path id="svg_6" d="m6857,9175c12,-16 33,-41 48,-55c23,-21 26,-21 17,-5c-6,11 -27,36 -48,55c-36,34 -37,34 -17,5z"/>
   <path id="svg_7" d="m6940,9089c0,-4 14,-22 30,-40c66,-73 122,-159 197,-301c13,-25 41,-53 32,-32c-27,62 -99,190 -130,229c-49,64 -128,152 -129,144z"/>
   <path id="svg_8" d="m3165,8783c-50,-52 -82,-108 -183,-313c-139,-283 -143,-296 -197,-625c-9,-55 -20,-120 -25,-145c-27,-134 -31,-198 -28,-370c3,-102 10,-250 16,-330c7,-80 17,-206 23,-280c6,-74 15,-171 20,-215c5,-44 9,-200 9,-348l0,-268l-31,-17c-31,-17 -83,-57 -64,-49c6,2 30,13 55,24c43,19 144,44 237,58c24,4 46,11 49,17c5,7 -3,9 -22,6c-102,-19 -185,-30 -189,-26c-2,2 -9,141 -15,309c-6,167 -16,345 -21,394c-6,50 -14,164 -19,255c-5,91 -14,203 -19,250c-5,47 -10,159 -10,250c-1,164 1,178 55,490c8,47 19,118 24,158c11,84 52,212 105,327c78,169 186,378 205,395c12,11 61,80 56,80c-3,0 -17,-12 -31,-27z"/>
   <path id="svg_9" d="m7280,8629c25,-23 72,-61 105,-86c127,-93 176,-156 225,-293c6,-19 16,-44 20,-55c5,-11 17,-47 28,-80c11,-33 36,-105 56,-160c77,-209 99,-352 86,-545c-10,-155 -20,-1563 -11,-1554c9,9 19,430 27,1125c8,705 7,712 -66,924c-85,245 -142,402 -163,444c-40,81 -123,159 -306,289l-46,33l45,-42z"/>
   <path id="svg_10" d="m5170,7995c-36,-7 -121,-21 -190,-33c-69,-11 -145,-24 -170,-29c-25,-4 -227,-8 -450,-8c-346,0 -419,-3 -500,-18c-213,-40 -367,-84 -466,-135c-53,-27 -154,-110 -153,-125c0,-9 2,-9 6,0c7,19 93,79 159,112c66,32 168,69 229,82c22,4 74,15 115,24c154,34 205,37 650,45c344,5 477,11 545,23c308,54 330,57 473,57c104,0 181,-6 262,-21c63,-11 151,-24 195,-30c44,-5 136,-16 205,-24c251,-29 316,-46 431,-110c160,-91 228,-166 274,-304c14,-43 16,-73 12,-150c-7,-126 -25,-278 -36,-316c-31,-101 -36,-126 -35,-185c2,-98 39,-218 95,-312c43,-71 128,-182 164,-213c30,-26 76,-102 89,-149c15,-49 20,-80 47,-261c10,-63 26,-112 34,-103c2,1 -1,28 -6,58c-6,30 -16,96 -24,145c-31,195 -36,205 -150,340c-147,173 -201,279 -225,444c-10,67 -9,87 5,142c39,145 54,260 54,429c1,123 0,127 -33,196c-55,115 -162,209 -326,287c-82,38 -168,60 -300,76c-352,41 -434,52 -505,65c-97,19 -379,19 -475,1z"/>
   <path id="svg_11" d="m3187,7593c-41,-57 -80,-137 -102,-213c-9,-30 -21,-71 -27,-90c-8,-24 -11,-139 -9,-375c2,-363 3,-354 -53,-558c-18,-65 -21,-167 -6,-167c6,0 10,26 10,58c0,31 10,91 21,132c54,198 65,342 48,623c-12,211 -11,221 37,385c26,85 57,151 101,210c14,18 23,35 20,38c-2,3 -20,-17 -40,-43z"/>
   <path id="svg_12" d="m5760,6229c-25,-5 -92,-16 -150,-24c-241,-33 -386,-78 -459,-142c-56,-49 -81,-89 -80,-125c0,-23 0,-23 11,2c23,54 30,66 57,98c30,33 111,74 171,86c19,4 46,11 60,15c51,17 128,31 245,46c137,18 225,36 225,47c0,10 -20,9 -80,-3z"/>
   <path id="svg_13" d="m3505,6210c3,-5 23,-10 44,-10c20,0 86,-9 147,-21c106,-20 128,-25 224,-49c115,-28 265,-93 315,-136c39,-33 45,-30 10,5c-54,58 -199,121 -366,159c-231,54 -389,76 -374,52z"/>
   <path id="svg_14" d="m6290,6200c8,-5 51,-24 95,-41c83,-33 112,-51 180,-112c22,-20 42,-34 44,-32c4,4 -79,82 -123,115c-27,22 -169,80 -193,80c-15,0 -16,-2 -3,-10z"/>
   <path id="svg_15" d="m3081,6132c-30,-47 -40,-79 -22,-68c11,7 62,108 57,113c-2,2 -18,-18 -35,-45z"/>
   <path id="svg_16" d="m5825,5940c-4,-6 5,-10 20,-10c15,0 24,4 20,10c-3,6 -12,10 -20,10c-8,0 -17,-4 -20,-10z"/>
   <path id="svg_17" d="m6670,5940c0,-5 5,-10 10,-10c6,0 10,5 10,10c0,6 -4,10 -10,10c-5,0 -10,-4 -10,-10z"/>
   <path id="svg_18" d="m3960,5915c7,-8 19,-15 26,-15c8,0 83,-35 167,-77l152,-78l175,-1c96,0 218,-6 270,-12c175,-21 227,-25 264,-18c51,10 45,22 -9,18c-24,-2 -90,2 -147,8c-57,7 -205,15 -330,19l-226,6l-134,66c-219,109 -234,115 -208,84z"/>
   <path id="svg_19" d="m6138,5903c7,-3 16,-2 19,1c4,3 -2,6 -13,5c-11,0 -14,-3 -6,-6z"/>
   <path id="svg_20" d="m3130,5849c-30,-16 -63,-38 -75,-50c-13,-14 0,-9 43,15c35,20 67,36 72,36c4,0 13,7 20,15c18,22 2,18 -60,-16z"/>
   <path id="svg_21" d="m6370,5843c0,-11 246,-73 370,-93c30,-5 96,-14 145,-19c50,-6 109,-13 133,-16c23,-4 42,-2 42,2c0,5 -62,17 -137,26c-176,23 -283,42 -355,61c-32,9 -83,23 -113,31c-62,17 -85,19 -85,8z"/>
   <path id="svg_22" d="m4025,5800c4,-6 29,-22 57,-36c27,-14 70,-44 94,-66c24,-22 44,-37 44,-33c0,13 -86,87 -135,116c-52,30 -70,36 -60,19z"/>
   <path id="svg_23" d="m2645,5777c-4,-10 -5,-21 -1,-24c10,-10 18,4 13,24c-4,17 -4,17 -12,0z"/>
   <path id="svg_24" d="m5259,5747c-185,-103 -269,-208 -269,-338c0,-20 22,-126 50,-235c27,-110 52,-219 56,-243c13,-82 117,-212 264,-330c47,-38 -10,-24 -77,19c-35,22 -63,36 -63,31c0,-11 83,-65 125,-81c17,-7 39,-16 50,-21c37,-15 215,-59 241,-59c14,0 54,-7 87,-16c52,-13 77,-14 162,-4c102,11 202,35 220,53c7,6 1,7 -15,3c-99,-26 -171,-38 -187,-31c-19,9 -20,8 97,34c123,26 254,103 361,210c67,68 79,86 111,166c19,50 40,117 47,150c7,33 17,73 22,89c20,66 6,236 -32,371c-14,52 -50,114 -85,145c-29,27 -25,14 12,-36c103,-137 120,-423 40,-657c-64,-182 -164,-291 -346,-374c-42,-19 -88,-33 -199,-63c-65,-17 -295,-24 -366,-11c-104,19 -180,64 -286,170c-93,93 -136,152 -124,171c3,4 -3,23 -14,42c-18,30 -70,210 -116,396c-46,188 24,327 208,411c45,21 90,41 100,44c16,6 25,37 10,37c-5,0 -42,-19 -84,-43z"/>
   <path id="svg_25" d="m6264,5782c3,-5 33,-28 68,-52c39,-27 55,-35 43,-20c-36,42 -130,103 -111,72z"/>
   <path id="svg_26" d="m5573,5761c-53,-18 -86,-40 -168,-111c-26,-22 -52,-40 -59,-40c-7,0 -25,-9 -40,-21c-31,-24 -34,-64 -7,-79c25,-13 131,-13 131,0c0,12 -29,19 -90,22c-59,4 -60,26 -1,55c24,12 64,42 90,66c53,50 87,70 154,92c75,24 97,15 64,-24c-8,-9 -19,-30 -26,-47c-11,-27 -9,-37 9,-78c25,-51 77,-102 116,-112c69,-17 187,24 226,79c15,21 25,52 28,90l5,57l55,-36c47,-32 51,-33 31,-11c-47,51 -124,95 -185,106c-94,17 -272,13 -333,-8zm398,-22c5,-8 9,-43 9,-77c0,-110 -53,-154 -187,-156c-63,0 -75,3 -98,24c-36,34 -55,72 -55,113c0,37 24,92 45,104c7,5 73,7 146,7c98,-2 134,-5 140,-15z"/>
   <path id="svg_27" d="m5750,5672c0,-27 6,-45 22,-58l21,-19l-18,28c-10,15 -15,38 -13,52c3,14 1,28 -3,31c-5,3 -9,-12 -9,-34z"/>
   <path id="svg_28" d="m5820,5645c35,-20 62,-19 36,0c-11,8 -29,15 -40,15c-19,-1 -19,-2 4,-15z"/>
   <path id="svg_29" d="m2983,5738c-54,-59 -80,-102 -105,-173c-44,-123 -53,-187 -38,-268c15,-87 48,-228 55,-235c8,-9 6,53 -4,84c-48,155 -50,252 -8,384c32,97 59,146 108,192c21,21 39,40 39,43c0,13 -19,2 -47,-27z"/>
   <path id="svg_30" d="m3625,5711c-34,-21 -112,-102 -141,-146c-10,-17 -27,-39 -37,-50c-31,-34 -32,-62 -3,-105c14,-22 40,-47 57,-56c30,-15 30,-14 -9,23c-37,35 -42,45 -42,84c0,73 25,85 90,44c22,-14 45,-25 52,-25c7,0 -8,14 -34,30c-25,16 -49,33 -52,38c-10,17 65,112 117,147c53,36 55,49 2,16z"/>
   <path id="svg_31" d="m3743,5711c-13,-11 -23,-22 -23,-26c0,-4 7,-2 16,6c18,15 151,14 204,-2c77,-23 80,-27 80,-94c0,-46 -4,-66 -17,-78c-27,-23 -100,-40 -182,-40c-67,0 -76,2 -96,25c-25,29 -40,105 -29,141c6,19 5,20 -10,8c-35,-29 -3,-143 50,-178c39,-25 150,-23 225,6c61,23 72,39 84,116c5,36 3,43 -28,73c-30,29 -44,34 -132,47c-120,18 -115,18 -142,-4z"/>
   <path id="svg_32" d="m7278,5723c45,-3 55,-8 64,-29c14,-31 28,-31 28,0c0,30 -17,36 -88,34l-57,-2l53,-3z"/>
   <path id="svg_33" d="m7396,5722c-3,-6 -1,-14 5,-17c15,-10 25,3 12,16c-7,7 -13,7 -17,1z"/>
   <path id="svg_34" d="m7735,5720c-164,-72 -211,-90 -229,-90c-12,0 -27,-5 -33,-11c-6,-6 -39,-13 -73,-16c-53,-5 -60,-8 -46,-18c15,-12 15,-17 -5,-71c-12,-32 -26,-72 -30,-89c-4,-16 -21,-84 -37,-150c-42,-168 -77,-383 -87,-530c-7,-93 -22,-183 -35,-200c-9,-13 -63,-145 -85,-210c-25,-73 -45,-173 -45,-225c0,-25 -4,-70 -9,-100c-6,-30 -16,-93 -24,-140c-9,-47 -18,-107 -21,-135c-3,-27 -11,-84 -16,-125c-5,-41 -17,-142 -26,-225c-16,-151 -33,-236 -54,-274c-12,-24 -6,-41 15,-41c24,0 75,-51 100,-101c14,-26 55,-124 91,-216c37,-92 84,-207 105,-254c48,-107 54,-137 39,-186c-25,-76 -297,-469 -460,-663c-30,-36 -62,-74 -71,-85c-102,-125 -235,-284 -286,-341c-39,-45 -109,-150 -188,-284c-69,-117 -125,-214 -125,-216c0,-2 -16,-28 -35,-58c-19,-30 -35,-57 -35,-60c0,-3 -27,-48 -60,-101c-33,-53 -60,-98 -60,-100c0,-2 -39,-68 -86,-146c-96,-159 -107,-182 -81,-160c9,7 17,17 17,21c0,4 56,101 125,214c69,114 125,209 125,211c0,3 15,28 34,57c18,29 42,69 52,88c99,181 282,472 340,540c143,168 381,459 441,536c20,27 59,78 86,113c94,121 276,400 286,438c6,23 7,52 2,73c-8,31 -58,156 -111,275c-9,22 -36,90 -60,150c-47,122 -75,182 -96,203c-8,7 -20,23 -26,35c-31,55 7,544 67,872c9,50 21,133 25,185c11,125 44,247 101,375c40,90 47,117 58,216c25,227 30,268 51,388c22,129 32,174 70,301c40,137 62,190 79,190c14,0 116,35 186,65c176,73 233,79 301,31c45,-33 63,-70 94,-190c34,-132 23,-271 -32,-399c-12,-29 -65,-124 -117,-212c-52,-88 -116,-207 -144,-265c-173,-370 -209,-424 -314,-487c-51,-30 -156,-56 -199,-50c-17,3 -37,1 -45,-4c-9,-6 11,-9 57,-9c101,0 181,29 250,93c74,67 102,114 238,391c63,129 142,277 174,328c132,207 165,301 165,463c0,195 -57,330 -158,376c-42,20 -97,23 -130,9zm-815,-2615c0,-8 -4,-15 -10,-15c-5,0 -10,7 -10,15c0,8 5,15 10,15c6,0 10,-7 10,-15z"/>
   <path id="svg_35" d="m2592,5690c-32,-30 -34,-53 -18,-185c35,-277 41,-299 130,-469c23,-45 52,-105 65,-135c24,-57 27,-67 96,-336c71,-276 65,-262 149,-341c40,-38 80,-74 88,-80c8,-6 22,-51 32,-100c9,-49 21,-105 26,-124c4,-19 11,-55 15,-80c9,-60 69,-291 93,-360c105,-297 232,-523 530,-941c123,-173 118,-157 83,-226c-16,-32 -41,-96 -57,-143c-15,-47 -33,-94 -40,-104c-10,-14 -10,-23 -3,-33c8,-9 8,-36 0,-95c-44,-349 -77,-918 -53,-918c10,0 22,198 22,343c0,49 4,130 9,180c6,51 17,171 26,267c16,170 36,299 54,350c48,133 65,170 77,170c15,0 16,-5 38,-130c31,-180 36,-219 36,-267c0,-80 33,-189 106,-351c13,-29 24,-54 24,-56c0,-2 26,-50 58,-107c68,-122 170,-275 203,-306c13,-12 56,-29 94,-38c113,-28 115,-29 115,-74c0,-22 3,-46 6,-55c7,-17 3,-19 -118,-63c-43,-15 -78,-31 -78,-34c0,-7 44,5 143,40c57,20 58,20 77,1c11,-11 20,-24 20,-29c0,-17 198,-344 212,-349c4,-2 8,-8 8,-14c0,-12 250,-382 286,-423l26,-30l-18,30c-9,17 -42,66 -73,110c-31,44 -82,121 -114,170c-32,50 -89,139 -127,199c-169,261 -230,385 -230,463c0,43 -3,40 116,104c44,23 97,54 119,67c36,22 298,209 335,239c135,109 711,525 973,704c118,80 234,161 336,236c65,47 171,137 171,145c0,5 -26,-13 -58,-39c-32,-26 -84,-66 -116,-88c-32,-22 -70,-49 -84,-61c-15,-11 -63,-45 -107,-74c-147,-99 -802,-564 -815,-579c-3,-4 -48,-38 -100,-76c-52,-39 -102,-75 -110,-82c-8,-7 -51,-39 -95,-72c-44,-33 -84,-64 -90,-68c-26,-21 -155,-113 -159,-113c-2,0 -46,-26 -97,-59c-52,-32 -125,-75 -163,-96l-68,-37l-77,16c-42,10 -88,20 -103,23c-32,6 -50,29 -140,173c-87,141 -148,256 -191,365c-47,119 -86,244 -77,250c4,2 22,-12 41,-31c19,-20 50,-46 69,-58c49,-31 169,-80 177,-73c3,4 -11,14 -33,23c-151,60 -223,117 -243,191c-6,21 -20,92 -31,158c-11,66 -24,139 -30,163c-18,78 -18,78 130,17c60,-25 115,-45 122,-45c22,0 -10,17 -132,66c-63,26 -126,57 -139,68c-43,38 -373,519 -450,656c-110,196 -215,452 -255,625c-51,218 -50,210 -115,600c-12,66 -25,143 -31,170c-5,28 -17,86 -26,130c-8,44 -22,102 -31,128c-8,27 -13,50 -11,52c2,2 38,-18 79,-44c93,-60 204,-113 284,-137c48,-14 97,-18 240,-18c165,-1 185,1 245,23c105,38 220,98 220,114c0,4 -30,-8 -67,-27c-123,-62 -164,-77 -231,-85c-89,-11 -128,2 -54,18c29,6 60,11 69,11c9,0 33,5 52,11c174,55 217,86 350,255c84,106 131,272 131,462c0,95 -4,130 -25,196c-13,45 -36,94 -50,110c-30,34 -33,26 -6,-18c41,-68 61,-161 61,-290c0,-198 -37,-325 -136,-466c-113,-161 -200,-212 -429,-250c-38,-6 -87,-17 -108,-23c-31,-9 -55,-6 -145,16c-59,14 -143,31 -187,37c-44,7 -89,17 -100,23c-11,6 -45,23 -77,39c-80,40 -151,110 -198,198c-22,41 -40,66 -40,55c0,-21 53,-119 70,-130c5,-3 10,-15 10,-26c0,-10 9,-38 20,-62c20,-43 36,-103 50,-192c4,-27 16,-90 25,-140c9,-49 20,-113 25,-142c4,-28 11,-56 14,-62c14,-21 -15,-20 -51,2c-32,20 -113,99 -113,111c0,1 -14,57 -31,122c-17,65 -46,178 -64,249c-19,72 -37,141 -41,155c-4,14 -46,108 -94,210c-92,195 -95,205 -125,440c-18,142 -19,171 -2,195c11,13 21,16 41,11c24,-6 27,-11 22,-32c-5,-19 1,-34 26,-64c44,-51 97,-219 98,-307c0,-43 24,-131 49,-185c25,-52 22,-24 -8,77c-12,38 -21,86 -21,105c-1,34 -13,97 -43,215c-8,33 -18,73 -22,88c-6,31 -90,127 -109,127c-7,0 -22,-9 -34,-20zm866,-1103c92,-18 101,-27 27,-27c-65,0 -175,27 -175,43c0,10 17,8 148,-16z"/>
   <path id="svg_36" d="m4110,5659c57,-51 150,-118 131,-95c-20,24 -159,136 -168,136c-5,-1 12,-19 37,-41z"/>
   <path id="svg_37" d="m3797,5630c-3,-13 4,-31 20,-50c25,-31 43,-38 43,-19c0,6 10,19 23,30c12,10 18,19 12,19c-5,1 -20,3 -32,6c-16,3 -23,-1 -23,-11c0,-8 -4,-15 -10,-15c-5,0 -10,14 -10,30c0,34 -15,40 -23,10z"/>
   <path id="svg_38" d="m4545,5639c-48,-7 -65,-15 -88,-39c-21,-24 -26,-37 -20,-53c12,-33 5,-161 -13,-252c-18,-86 -57,-200 -104,-302c-17,-36 -30,-66 -30,-68c0,-1 -22,-51 -50,-109c-27,-58 -50,-113 -50,-121c0,-7 -4,-16 -9,-19c-5,-3 -11,-16 -14,-28c-2,-13 -14,-57 -25,-98c-11,-41 -26,-112 -32,-157c-12,-78 -11,-85 11,-130c12,-26 24,-42 27,-35c2,6 -4,22 -12,34c-9,12 -16,39 -16,59c0,65 56,308 86,378c9,20 20,45 24,56c5,11 31,67 58,125c105,221 145,339 167,498c13,90 13,120 4,152c-11,35 -10,42 5,59c21,23 95,41 171,41c90,0 231,-39 250,-70c3,-6 -2,-48 -11,-94c-17,-80 -17,-88 0,-168c37,-177 76,-279 188,-498c116,-226 148,-315 148,-407c0,-45 3,-62 11,-57c16,9 5,135 -16,199c-10,28 -47,109 -83,180c-167,333 -169,338 -218,535c-20,82 -22,191 -4,254c13,49 13,49 -16,73c-41,34 -82,50 -162,62c-79,12 -91,12 -177,0z"/>
   <path id="svg_39" d="m3933,5613c-15,-32 -16,-43 -4,-43c5,0 11,8 14,18c2,9 8,25 12,35c12,28 -9,19 -22,-10z"/>
   <path id="svg_40" d="m6797,5596c-72,-19 -123,-74 -137,-145c-7,-31 -16,-74 -20,-96c-5,-22 -12,-56 -16,-75c-11,-63 -54,-244 -66,-275c-5,-16 -21,-54 -35,-84c-32,-71 -24,-89 9,-20c38,78 73,192 97,312c58,288 63,306 105,335c64,43 298,70 341,38c17,-12 18,-24 11,-157c-4,-91 -3,-140 3,-134c16,16 26,267 12,293c-11,21 -18,22 -134,21c-67,0 -144,-6 -170,-13z"/>
   <path id="svg_41" d="m7743,5561c-97,-81 -244,-244 -297,-328c-46,-75 -28,-69 25,8c61,88 140,180 227,263c73,71 98,85 161,96l46,8l-52,1c-48,1 -56,-2 -110,-48z"/>
   <path id="svg_42" d="m6056,5490c-44,-16 -121,-34 -175,-40c-53,-7 -98,-14 -100,-16c-2,-2 28,-4 67,-4c83,0 173,21 257,60c78,36 52,36 -49,0z"/>
   <path id="svg_43" d="m5580,5470c20,-13 60,-13 60,0c0,6 -17,10 -37,10c-28,0 -34,-3 -23,-10z"/>
   <path id="svg_44" d="m3590,5420c20,-13 100,-13 100,0c0,6 -26,10 -57,10c-41,0 -54,-3 -43,-10z"/>
   <path id="svg_45" d="m5435,5400c8,-14 124,-66 186,-84c29,-9 75,-15 103,-15l51,1l-60,9c-73,11 -110,23 -203,65c-80,37 -86,39 -77,24z"/>
   <path id="svg_46" d="m3676,5281c-7,-11 67,-23 91,-14c16,6 15,8 -7,14c-36,10 -78,10 -84,0z"/>
   <path id="svg_47" d="m7370,5074c0,-8 5,-12 10,-9c6,3 10,10 10,16c0,5 -4,9 -10,9c-5,0 -10,-7 -10,-16z"/>
   <path id="svg_48" d="m7314,5026c4,-11 14,-43 23,-70c17,-54 33,-81 33,-55c0,22 -38,121 -51,133c-9,8 -10,6 -5,-8z"/>
   <path id="svg_49" d="m3247,4689c7,-7 15,-10 18,-7c3,3 -2,9 -12,12c-14,6 -15,5 -6,-5z"/>
   <path id="svg_50" d="m4885,4268c-16,-12 -59,-45 -95,-74c-141,-113 -180,-125 -260,-84c-52,26 -52,11 -1,-18c76,-43 127,-26 264,88l109,90l65,0c35,0 74,-5 86,-11l22,-11l-22,21c-31,30 -126,29 -168,-1z"/>
   <path id="svg_51" d="m4317,4252c23,-10 48,-23 55,-30c18,-18 33,-15 17,4c-18,22 -64,44 -91,43c-17,0 -12,-4 19,-17z"/>
   <path id="svg_52" d="m4910,4209c0,-5 5,-7 10,-4c6,3 10,8 10,11c0,2 -4,4 -10,4c-5,0 -10,-5 -10,-11z"/>
   <path id="svg_53" d="m6462,3625c-6,-44 -12,-91 -11,-105c0,-21 3,-18 15,15c9,24 14,66 12,105l-3,65l-13,-80z"/>
   <path id="svg_54" d="m4105,3621c-159,-7 -174,-10 -192,-40c-13,-20 1,-74 61,-234c33,-88 101,-187 130,-187c5,0 -4,14 -21,30c-17,17 -42,54 -57,83c-38,77 -108,275 -104,295c3,14 19,18 83,24c171,14 428,13 510,-2c107,-19 209,-18 327,3c154,27 261,21 533,-28c109,-20 170,-32 210,-41c24,-5 28,-4 18,6c-13,14 -46,22 -318,71c-146,26 -379,31 -465,9c-65,-17 -247,-18 -305,-2c-56,15 -232,21 -410,13z"/>
   <path id="svg_55" d="m4084,3485c11,-8 36,-15 55,-15c39,0 233,-29 406,-59c142,-26 198,-26 336,0c108,20 322,42 527,55c71,5 92,3 92,-6c0,-8 -28,-45 -62,-84l-61,-71l70,69c52,50 85,73 123,86l53,18l-119,7c-79,5 -138,4 -175,-4c-30,-6 -84,-11 -120,-11c-35,0 -125,-9 -199,-21c-240,-37 -304,-44 -340,-37c-19,4 -71,12 -115,18c-44,6 -116,17 -160,25c-86,15 -200,31 -280,40c-46,5 -49,4 -31,-10z"/>
   <path id="svg_56" d="m4498,3473c7,-3 16,-2 19,1c4,3 -2,6 -13,5c-11,0 -14,-3 -6,-6z"/>
   <path id="svg_57" d="m5315,3254c-85,-76 -225,-143 -358,-169c-52,-10 -134,-15 -240,-15c-202,0 -283,12 -422,63c-105,38 -123,42 -110,29c15,-15 152,-68 210,-80c28,-6 77,-16 110,-23c34,-7 128,-12 220,-12c128,1 178,5 250,22c130,31 256,95 335,169c75,71 79,83 5,16z"/>
   <path id="svg_58" d="m3730,3033c0,-15 49,-88 50,-74c0,7 -9,29 -21,47c-20,33 -29,41 -29,27z"/>
   <path id="svg_59" d="m4942,2990c-88,-22 -107,-35 -37,-26c59,9 115,27 115,38c0,4 -1,8 -2,7c-2,0 -36,-9 -76,-19z"/>
   <path id="svg_60" d="m6921,2928c-78,-201 -99,-237 -194,-338c-68,-71 -66,-81 2,-15c94,91 180,236 207,348c7,33 -3,36 -15,5z"/>
   <path id="svg_61" d="m6615,2863c-161,-171 -346,-312 -585,-443c-74,-40 -166,-94 -205,-118c-331,-212 -469,-278 -675,-323c-92,-20 -133,-23 -335,-24c-153,0 -246,4 -277,13c-27,6 -69,17 -95,24c-38,9 -60,24 -106,71c-32,33 -60,58 -62,55c-2,-2 26,-34 63,-70l67,-66l110,-26c97,-23 130,-26 280,-26c214,1 351,19 495,66c74,25 287,134 415,213c66,41 179,108 250,149c218,124 297,173 380,236c83,63 354,321 345,329c-3,3 -32,-24 -65,-60z"/>
   <path id="svg_62" d="m7246,2671c5,-5 38,-24 73,-42c82,-44 116,-84 259,-302c176,-270 451,-655 475,-665c4,-2 7,-12 7,-21c0,-16 -108,-466 -129,-536c-8,-27 -20,-80 -51,-225c-5,-25 -17,-101 -25,-170c-31,-255 -42,-303 -72,-314c-7,-3 -55,-11 -106,-17c-51,-7 -96,-18 -102,-24c-5,-7 -39,-15 -74,-18c-35,-3 -68,-10 -74,-16c-14,-14 2,-14 118,0c50,6 102,17 117,25c15,8 39,14 53,14c42,0 91,28 109,63c16,31 30,113 46,272c9,83 24,171 40,240c5,22 30,126 55,230c25,105 55,228 66,275c39,163 41,170 58,170c14,0 189,-59 306,-104c99,-37 195,-80 264,-118c106,-58 368,-207 414,-235c21,-13 55,-33 75,-45c20,-11 109,-62 197,-112c88,-51 198,-113 245,-138c47,-25 105,-57 130,-70c142,-78 242,-129 237,-121c-9,14 -138,87 -427,243c-74,40 -168,93 -209,117c-41,25 -89,54 -108,64c-19,11 -94,54 -166,96c-486,280 -463,269 -862,417c-39,14 -75,26 -81,26c-6,0 -19,9 -30,21c-44,47 -224,301 -385,539c-270,401 -274,407 -372,459c-55,30 -92,41 -71,22z"/>
   <path id="svg_63" d="m2995,1551c-10,-8 -130,-52 -330,-119c-123,-42 -421,-150 -500,-182c-11,-4 -42,-15 -70,-25c-27,-9 -59,-20 -70,-25c-11,-5 -60,-21 -110,-35c-89,-27 -252,-85 -310,-110c-122,-55 -224,-107 -245,-127c-36,-34 -111,-125 -149,-180c-38,-56 -172,-324 -201,-400c-26,-70 -70,-242 -69,-271c0,-31 23,30 40,108c20,95 56,189 130,340c95,192 108,214 203,334c41,51 66,71 126,101c105,53 275,121 410,165c160,52 304,102 375,130c92,36 264,98 430,155c292,101 319,111 349,130c18,11 24,20 16,20c-9,0 -20,-4 -25,-9z"/>
   <path id="svg_64" d="m4060,1058c-68,-38 -170,-117 -170,-131c0,-9 41,21 60,44c3,3 35,25 72,48c51,32 81,44 123,48l57,6l79,-79c43,-43 79,-83 79,-90c0,-6 -11,-21 -25,-34c-14,-13 -23,-26 -20,-28c3,-3 19,9 35,27c35,36 35,35 -40,117c-108,117 -150,129 -250,72z"/>
   <path id="svg_65" d="m3805,852c-68,-66 -73,-74 -227,-382c-87,-174 -158,-323 -158,-332c0,-9 -4,-20 -10,-23c-5,-3 -10,-16 -10,-27c0,-32 7,-20 70,119c32,70 108,227 169,348c97,193 118,228 176,288c57,60 71,77 63,77c-2,0 -34,-31 -73,-68z"/>
   <path id="svg_66" d="m3180,732c-106,-161 -362,-663 -346,-679c2,-2 16,22 31,54c62,132 195,393 239,466c25,43 46,81 46,84c0,3 13,24 28,47c41,61 44,66 35,66c-4,0 -19,-17 -33,-38z"/>
   <path id="svg_67" d="m3785,454c-8,-20 -15,-43 -15,-50c0,-8 -4,-22 -10,-32c-17,-31 -112,-324 -106,-329c3,-3 8,0 11,8c50,136 117,335 141,422c9,31 -5,18 -21,-19z"/>
   <path id="svg_68" d="m7283,297c-24,-5 -43,-14 -43,-20c0,-5 10,-7 23,-4c12,3 39,9 60,12c20,4 37,11 37,16c0,11 -21,10 -77,-4z"/>
   <path id="svg_69" d="m3368,255c-12,-20 -48,-153 -47,-176c0,-13 14,16 30,66c26,79 35,138 17,110z"/>
  </g>
 </g>
</svg>