<svg xmlns="http://www.w3.org/2000/svg" xmlns:xlink="http://www.w3.org/1999/xlink" version="1.1" width="1398" enable-background="new 0 0 1398 462" xml:space="preserve" height="462"><rect id="backgroundrect" width="100%" height="100%" x="0" y="0" fill="none" stroke="none"/>


















<g class="currentLayer" style=""><title>Layer 1</title><path fill="none" opacity="1.000000" stroke="none" d=" M971.000000,463.000000   C647.333374,463.000000 324.166718,463.000000 1.000043,463.000000   C1.000029,309.000031 1.000029,155.000061 1.000015,1.000043   C233.999954,1.000000 466.999908,1.000000 699.999878,1.000000   C932.999878,1.000000 1165.999878,1.000000 1399.000000,1.000000   C1399.000000,154.999939 1399.000000,308.999878 1399.000000,462.999908   C1256.500000,463.000000 1114.000000,463.000000 971.000000,463.000000  M93.762650,279.499847   C93.762650,290.747864 93.762650,301.995880 93.762650,313.280884   C107.200645,313.280884 119.931488,313.280884 132.993423,313.280884   C132.993423,296.204254 132.993423,279.438507 132.993423,262.003021   C142.601151,262.003021 151.902390,262.395782 161.160034,261.927094   C185.830505,260.678101 204.673645,247.979721 208.625610,221.142776   C210.645065,207.429184 210.008423,193.799057 203.288208,181.315979   C193.941040,163.953262 177.918793,157.712997 159.377563,157.259430   C138.906677,156.758667 118.414062,157.140610 97.930923,157.155838   C96.642220,157.156799 95.353638,157.311874 93.762650,157.414825   C93.762650,197.949753 93.762650,238.224792 93.762650,279.499847  M890.014893,247.409439   C888.899536,250.265350 887.784180,253.121246 886.463074,256.503998   C885.525452,254.728622 884.689941,253.489365 884.180054,252.128174   C879.077209,238.504379 873.959106,224.885376 869.021606,211.201416   C868.034119,208.464722 866.785522,207.232697 863.700623,207.326279   C856.211487,207.553467 848.698792,207.652588 841.219727,207.296799   C837.304993,207.110550 835.669739,208.512802 834.613586,212.120895   C833.175537,217.033371 831.126709,221.769272 829.296082,226.564178   C825.557373,236.356628 821.789551,246.137924 817.695740,256.804504   C810.824768,239.627563 804.365723,223.480545 798.068298,207.737335   C785.413574,207.737335 773.369385,207.737335 761.054199,207.737335   C775.984985,243.334976 790.753357,278.545319 805.565002,313.858887   C812.999512,313.858887 820.154480,313.741821 827.302307,313.918243   C830.049683,313.986053 831.273499,313.239685 832.189941,310.435638   C837.909180,292.936249 843.900818,275.525879 849.818665,258.091614   C850.363770,256.485809 851.023926,254.919067 851.987183,252.403214   C852.862488,254.766983 853.343506,255.970108 853.756592,257.196106   C859.556335,274.409210 865.479675,291.582703 871.034363,308.874634   C872.232788,312.605286 873.579529,314.294464 877.778931,313.970886   C883.574829,313.524323 889.440979,314.045837 895.254028,313.729767   C896.742188,313.648865 898.555542,312.271667 899.486267,310.966949   C900.800659,309.124664 901.460754,306.807404 902.352417,304.673096   C912.369080,280.698242 922.379211,256.720673 932.385010,232.741272   C935.860840,224.411331 939.319641,216.074280 942.927673,207.400223   C931.226685,207.400223 920.231689,207.272095 909.246765,207.546799   C907.707397,207.585312 905.447937,209.274719 904.826294,210.749695   C899.808350,222.656372 895.102783,234.694672 890.014893,247.409439  M669.745056,312.882050   C680.701477,316.546600 691.901672,318.490326 703.501648,317.861755   C734.672363,316.172638 755.219971,297.988159 757.620605,269.464630   C759.225891,250.390945 753.202820,234.655548 735.702332,225.011826   C730.242859,222.003387 724.154297,220.126984 718.328125,217.796249   C712.056213,215.287216 705.622070,213.137390 699.508911,210.293137   C694.932922,208.164093 692.665649,204.132370 693.237671,198.879150   C693.812317,193.601883 696.404602,189.469681 701.693604,188.531921   C706.609985,187.660248 712.054016,186.906326 716.717957,188.151855   C723.401550,189.936768 729.587341,193.585831 736.273132,196.567154   C741.198364,186.688828 746.362976,176.330444 751.680176,165.666061   C732.010376,155.511612 711.967773,150.292755 690.326111,154.606552   C678.590210,156.945831 668.748840,162.749802 661.415222,172.500198   C649.909241,187.797928 648.320312,213.639969 657.974365,228.514481   C663.904663,237.651627 672.928345,242.331268 682.657043,246.028351   C690.841431,249.138565 699.242188,251.742935 707.231445,255.283691   C713.887878,258.233795 717.002319,264.550720 715.974976,270.515076   C714.943237,276.504608 709.315063,281.830902 702.622253,282.983459   C700.839111,283.290558 698.971680,283.418823 697.172241,283.271545   C683.820190,282.178528 672.293945,276.888153 662.286255,267.602051   C656.595398,278.658142 651.006287,289.516510 644.983459,301.217529   C653.217346,305.111816 661.114502,308.846893 669.745056,312.882050  M1245.393677,280.499756   C1245.393677,291.571655 1245.393677,302.643555 1245.393677,313.650085   C1258.086304,313.650085 1270.035400,313.650085 1282.606445,313.650085   C1282.606445,311.656403 1282.606567,309.872070 1282.606567,308.087738   C1282.606689,290.598816 1282.515625,273.109283 1282.637573,255.621216   C1282.724487,243.134262 1288.082153,236.651321 1298.760132,235.595139   C1310.571411,234.426865 1316.954468,240.320023 1317.305176,253.837463   C1317.775757,271.970978 1317.632690,290.120422 1317.750000,308.263031   C1317.761475,310.054962 1317.751465,311.847015 1317.751465,313.606934   C1330.185425,313.606934 1342.115479,313.606934 1354.163696,313.606934   C1354.337158,312.749603 1354.577026,312.115082 1354.577637,311.480255   C1354.600342,287.995209 1354.825806,264.506927 1354.491943,241.026672   C1354.361938,231.884842 1351.393677,223.318817 1344.689575,216.669388   C1333.358154,205.430328 1319.486450,203.716568 1304.553223,206.566025   C1296.231445,208.153931 1289.413818,212.570953 1282.556274,219.463348   C1282.556274,194.337738 1282.556274,170.517975 1282.556274,146.767624   C1269.808716,146.767624 1257.749878,146.767624 1245.393677,146.767624   C1245.393677,191.260559 1245.393677,235.380142 1245.393677,280.499756  M341.826843,260.449432   C341.204681,242.349930 334.423828,227.218704 319.701508,216.308090   C301.751434,203.005386 281.525055,201.050369 260.458496,206.104797   C218.808090,216.097794 203.062653,267.207275 232.037247,298.684387   C247.594742,315.585571 267.852875,320.078705 289.836792,317.311157   C306.758209,315.180908 321.093933,307.792542 331.303741,293.521179   C338.197418,283.885071 341.190948,273.022247 341.826843,260.449432  M527.030090,313.248383   C527.019348,288.778931 527.299500,264.304260 526.857727,239.842590   C526.675964,229.779236 522.743469,220.713654 514.580200,214.224380   C501.224457,203.607346 486.198425,202.825714 470.860504,208.464142   C465.138092,210.567764 460.263794,214.978348 454.841888,218.439743   C454.841888,214.999359 454.841888,211.398773 454.841888,207.672211   C442.449615,207.672211 430.372681,207.672211 418.306885,207.672211   C418.306885,243.154175 418.306885,278.367706 418.306885,313.533661   C430.677612,313.533661 442.734924,313.533661 455.003906,313.533661   C455.003906,311.393219 455.003876,309.573944 455.003876,307.754639   C455.003906,290.101135 454.923920,272.447144 455.031738,254.794312   C455.105011,242.794693 462.118469,235.398026 473.384949,235.075958   C483.370667,234.790527 489.336304,241.516373 489.991943,253.806000   C490.018524,254.304245 489.995972,254.805069 489.997345,255.304703   C490.046265,272.955963 490.095734,290.607208 490.143646,308.258484   C490.148438,310.018097 490.144287,311.777710 490.144287,313.797638   C502.637024,313.797638 514.437256,313.797638 527.030090,313.248383  M1222.364258,276.994751   C1212.723145,276.994751 1203.082031,276.994751 1194.007324,276.994751   C1192.668091,279.824829 1191.956909,282.463379 1190.398682,284.430939   C1182.029541,294.997894 1164.503418,293.567932 1158.001099,281.795807   C1151.366577,269.784576 1150.995117,256.845154 1154.406616,244.055267   C1157.743774,231.543961 1166.143677,226.732971 1178.414673,228.856689   C1187.480957,230.425751 1193.259521,235.513519 1194.306763,244.818024   C1205.378540,244.818024 1216.004883,244.818024 1226.940308,244.818024   C1224.085571,231.168518 1217.515137,220.330933 1205.904175,212.759415   C1192.973877,204.327484 1178.529907,202.927032 1163.743530,204.334961   C1153.597656,205.301056 1143.813721,208.278061 1135.902222,215.109985   C1117.725830,230.806152 1112.245605,251.107544 1116.583862,273.995636   C1119.752441,290.713531 1128.716553,303.876038 1144.525635,311.662933   C1156.886230,317.751373 1169.988403,318.817200 1183.384277,317.554230   C1195.097778,316.449921 1206.243530,313.374481 1215.281372,305.324097   C1223.608154,297.907074 1228.250244,288.611084 1228.779663,276.994751   C1226.621582,276.994751 1224.970703,276.994751 1222.364258,276.994751  M1055.457031,315.993927   C1062.268311,316.743256 1069.079590,317.492615 1076.103760,318.265381   C1076.103760,307.276306 1076.103760,297.326935 1076.103760,287.403717   C1061.059448,284.632263 1057.602051,280.394073 1057.601929,264.868530   C1057.601685,237.041672 1057.601807,209.214828 1057.601807,181.387970   C1057.601807,179.622787 1057.601929,177.857605 1057.601929,176.026306   C1044.953613,176.026306 1032.860107,176.026306 1020.294373,176.026306   C1020.294373,186.533066 1020.294373,196.778854 1020.294373,207.559906   C1016.273010,207.559906 1012.719543,207.559906 1009.204834,207.559906   C1009.204834,218.723465 1009.204834,229.333878 1009.204834,240.443039   C1012.975342,240.443039 1016.540039,240.443039 1020.398071,240.443039   C1020.398071,251.751755 1020.317749,262.562408 1020.419495,273.371338   C1020.533447,285.464874 1022.682556,296.833649 1032.337891,305.438080   C1038.745239,311.148071 1046.551880,313.759521 1055.457031,315.993927  M553.997009,202.450500   C553.997009,204.056458 553.997009,205.662399 553.997009,207.563843   C549.790161,207.563843 546.168640,207.563843 542.459229,207.563843   C542.459229,218.587326 542.459229,229.308105 542.459229,240.374664   C546.383606,240.374664 549.995667,240.374664 553.997009,240.374664   C553.997009,242.349075 553.997009,243.977478 553.997009,245.605896   C553.997131,256.101288 553.923401,266.597351 554.014954,277.091949   C554.143799,291.854614 559.920166,303.560852 573.269287,310.649231   C584.395813,316.557343 596.605164,317.535675 609.269287,317.858002   C609.269287,307.430756 609.269287,297.363983 609.269287,287.318878   C595.092529,285.093719 591.002991,280.302429 591.002991,266.075470   C591.002991,237.754547 591.002991,209.433624 591.002991,181.112701   C591.002991,179.359818 591.002991,177.606934 591.002991,175.932678   C578.358276,175.932678 566.405029,175.932678 553.997009,175.932678   C553.997009,184.547867 553.997009,193.001419 553.997009,202.450500  M986.280457,207.532318   C976.018127,207.532318 965.755798,207.532318 955.622437,207.532318   C955.622437,243.324493 955.622437,278.515930 955.622437,313.578674   C967.993958,313.578674 980.039001,313.578674 992.013428,313.578674   C992.013428,278.065277 992.013428,242.878067 992.013428,207.532379   C990.190308,207.532379 988.699036,207.532379 986.280457,207.532318  M395.851776,305.434174   C395.851776,272.969299 395.851776,240.504425 395.851776,207.788361   C383.448273,207.788361 371.352905,207.788361 359.107727,207.788361   C359.107727,243.144638 359.107727,278.357330 359.107727,313.614502   C371.460144,313.614502 383.524445,313.614502 395.851776,313.614502   C395.851776,311.023590 395.851776,308.716766 395.851776,305.434174  M1093.301880,247.999954   C1094.459717,247.347046 1095.690063,246.795258 1096.763794,246.025040   C1104.669678,240.353836 1107.631348,229.840500 1103.972900,220.609161   C1100.438721,211.691254 1091.707397,206.375015 1082.612061,207.603241   C1070.220825,209.276566 1062.276367,221.008331 1065.139893,233.691910   C1067.977417,246.259888 1081.175781,253.252579 1093.301880,247.999954  M633.361633,214.177811   C632.890381,213.706604 632.441711,213.210098 631.944519,212.768005   C624.659790,206.289795 614.045288,205.648132 606.662659,211.231339   C598.158142,217.663055 595.455139,229.157501 600.239136,238.546921   C604.755188,247.410446 614.276550,251.638657 623.761475,248.992538   C638.419739,244.903137 643.447876,227.819092 633.361633,214.177811  M953.650635,168.996124   C955.452087,179.727875 962.506592,187.041626 971.878967,187.894348   C981.430786,188.763367 989.994507,183.196915 993.180908,174.047882   C996.480774,164.573227 993.269592,154.379364 985.034851,148.961670   C978.700317,144.794098 971.856750,144.336411 965.119751,147.748047   C956.860046,151.930801 953.342957,159.082779 953.650635,168.996124  M397.873871,168.230667   C397.859375,167.066467 397.937927,165.892426 397.815979,164.739594   C396.642395,153.648148 387.883148,145.546616 377.178192,145.613068   C367.176361,145.675156 358.288208,153.670746 357.102600,163.672668   C355.753784,175.051270 362.355377,184.976166 372.963348,187.517899   C384.641266,190.315994 394.806976,182.772659 397.873871,168.230667  z" id="svg_1" class=""/><path fill="#FAFAFA" opacity="1.000000" stroke="none" d=" M93.762650,278.999817   C93.762650,238.224792 93.762650,197.949753 93.762650,157.414825   C95.353638,157.311874 96.642220,157.156799 97.930923,157.155838   C118.414062,157.140610 138.906677,156.758667 159.377563,157.259430   C177.918793,157.712997 193.941040,163.953262 203.288208,181.315979   C210.008423,193.799057 210.645065,207.429184 208.625610,221.142776   C204.673645,247.979721 185.830505,260.678101 161.160034,261.927094   C151.902390,262.395782 142.601151,262.003021 132.993423,262.003021   C132.993423,279.438507 132.993423,296.204254 132.993423,313.280884   C119.931488,313.280884 107.200645,313.280884 93.762650,313.280884   C93.762650,301.995880 93.762650,290.747864 93.762650,278.999817  M165.480576,220.774109   C166.096832,219.249069 166.873016,217.767731 167.303696,216.191956   C170.334808,205.101700 165.828842,193.591705 156.580353,191.599426   C148.979156,189.962021 140.944016,190.339020 133.095947,189.822830   C133.095947,203.532394 133.095947,216.100143 133.095947,228.977188   C139.289551,228.977188 145.265106,229.294159 151.190613,228.885315   C156.774109,228.500092 161.860809,226.538315 165.480576,220.774109  z" id="svg_2"/><path fill="#F9F9F9" opacity="1.000000" stroke="none" d=" M890.158325,247.051117   C895.102783,234.694672 899.808350,222.656372 904.826294,210.749695   C905.447937,209.274719 907.707397,207.585312 909.246765,207.546799   C920.231689,207.272095 931.226685,207.400223 942.927673,207.400223   C939.319641,216.074280 935.860840,224.411331 932.385010,232.741272   C922.379211,256.720673 912.369080,280.698242 902.352417,304.673096   C901.460754,306.807404 900.800659,309.124664 899.486267,310.966949   C898.555542,312.271667 896.742188,313.648865 895.254028,313.729767   C889.440979,314.045837 883.574829,313.524323 877.778931,313.970886   C873.579529,314.294464 872.232788,312.605286 871.034363,308.874634   C865.479675,291.582703 859.556335,274.409210 853.756592,257.196106   C853.343506,255.970108 852.862488,254.766983 851.987183,252.403214   C851.023926,254.919067 850.363770,256.485809 849.818665,258.091614   C843.900818,275.525879 837.909180,292.936249 832.189941,310.435638   C831.273499,313.239685 830.049683,313.986053 827.302307,313.918243   C820.154480,313.741821 812.999512,313.858887 805.565002,313.858887   C790.753357,278.545319 775.984985,243.334976 761.054199,207.737335   C773.369385,207.737335 785.413574,207.737335 798.068298,207.737335   C804.365723,223.480545 810.824768,239.627563 817.695740,256.804504   C821.789551,246.137924 825.557373,236.356628 829.296082,226.564178   C831.126709,221.769272 833.175537,217.033371 834.613586,212.120895   C835.669739,208.512802 837.304993,207.110550 841.219727,207.296799   C848.698792,207.652588 856.211487,207.553467 863.700623,207.326279   C866.785522,207.232697 868.034119,208.464722 869.021606,211.201416   C873.959106,224.885376 879.077209,238.504379 884.180054,252.128174   C884.689941,253.489365 885.525452,254.728622 886.463074,256.503998   C887.784180,253.121246 888.899536,250.265350 890.158325,247.051117  z" id="svg_3"/><path fill="#FAFAFA" opacity="1.000000" stroke="none" d=" M669.378418,312.731995   C661.114502,308.846893 653.217346,305.111816 644.983459,301.217529   C651.006287,289.516510 656.595398,278.658142 662.286255,267.602051   C672.293945,276.888153 683.820190,282.178528 697.172241,283.271545   C698.971680,283.418823 700.839111,283.290558 702.622253,282.983459   C709.315063,281.830902 714.943237,276.504608 715.974976,270.515076   C717.002319,264.550720 713.887878,258.233795 707.231445,255.283691   C699.242188,251.742935 690.841431,249.138565 682.657043,246.028351   C672.928345,242.331268 663.904663,237.651627 657.974365,228.514481   C648.320312,213.639969 649.909241,187.797928 661.415222,172.500198   C668.748840,162.749802 678.590210,156.945831 690.326111,154.606552   C711.967773,150.292755 732.010376,155.511612 751.680176,165.666061   C746.362976,176.330444 741.198364,186.688828 736.273132,196.567154   C729.587341,193.585831 723.401550,189.936768 716.717957,188.151855   C712.054016,186.906326 706.609985,187.660248 701.693604,188.531921   C696.404602,189.469681 693.812317,193.601883 693.237671,198.879150   C692.665649,204.132370 694.932922,208.164093 699.508911,210.293137   C705.622070,213.137390 712.056213,215.287216 718.328125,217.796249   C724.154297,220.126984 730.242859,222.003387 735.702332,225.011826   C753.202820,234.655548 759.225891,250.390945 757.620605,269.464630   C755.219971,297.988159 734.672363,316.172638 703.501648,317.861755   C691.901672,318.490326 680.701477,316.546600 669.378418,312.731995  z" id="svg_4"/><path fill="#F7F7F7" opacity="1.000000" stroke="none" d=" M1245.393677,279.999756   C1245.393677,235.380142 1245.393677,191.260559 1245.393677,146.767624   C1257.749878,146.767624 1269.808716,146.767624 1282.556274,146.767624   C1282.556274,170.517975 1282.556274,194.337738 1282.556274,219.463348   C1289.413818,212.570953 1296.231445,208.153931 1304.553223,206.566025   C1319.486450,203.716568 1333.358154,205.430328 1344.689575,216.669388   C1351.393677,223.318817 1354.361938,231.884842 1354.491943,241.026672   C1354.825806,264.506927 1354.600342,287.995209 1354.577637,311.480255   C1354.577026,312.115082 1354.337158,312.749603 1354.163696,313.606934   C1342.115479,313.606934 1330.185425,313.606934 1317.751465,313.606934   C1317.751465,311.847015 1317.761475,310.054962 1317.750000,308.263031   C1317.632690,290.120422 1317.775757,271.970978 1317.305176,253.837463   C1316.954468,240.320023 1310.571411,234.426865 1298.760132,235.595139   C1288.082153,236.651321 1282.724487,243.134262 1282.637573,255.621216   C1282.515625,273.109283 1282.606689,290.598816 1282.606567,308.087738   C1282.606567,309.872070 1282.606445,311.656403 1282.606445,313.650085   C1270.035400,313.650085 1258.086304,313.650085 1245.393677,313.650085   C1245.393677,302.643555 1245.393677,291.571655 1245.393677,279.999756  z" id="svg_5"/><path fill="#F9F9F9" opacity="1.000000" stroke="none" d=" M341.832520,260.907562   C341.190948,273.022247 338.197418,283.885071 331.303741,293.521179   C321.093933,307.792542 306.758209,315.180908 289.836792,317.311157   C267.852875,320.078705 247.594742,315.585571 232.037247,298.684387   C203.062653,267.207275 218.808090,216.097794 260.458496,206.104797   C281.525055,201.050369 301.751434,203.005386 319.701508,216.308090   C334.423828,227.218704 341.204681,242.349930 341.832520,260.907562  M302.747650,264.920502   C303.844177,255.935852 301.608154,247.981567 294.605682,242.039383   C284.910278,233.812027 271.790375,234.461731 263.120605,243.198517   C254.398361,251.988159 253.692429,266.866089 261.483643,276.455475   C267.496216,283.855713 275.312286,286.963715 284.472351,284.795380   C294.344879,282.458344 300.351440,275.729706 302.747650,264.920502  z" id="svg_6"/><path fill="#FAFAFA" opacity="1.000000" stroke="none" d=" M526.633789,313.523010   C514.437256,313.797638 502.637024,313.797638 490.144287,313.797638   C490.144287,311.777710 490.148438,310.018097 490.143646,308.258484   C490.095734,290.607208 490.046265,272.955963 489.997345,255.304703   C489.995972,254.805069 490.018524,254.304245 489.991943,253.806000   C489.336304,241.516373 483.370667,234.790527 473.384949,235.075958   C462.118469,235.398026 455.105011,242.794693 455.031738,254.794312   C454.923920,272.447144 455.003906,290.101135 455.003876,307.754639   C455.003876,309.573944 455.003906,311.393219 455.003906,313.533661   C442.734924,313.533661 430.677612,313.533661 418.306885,313.533661   C418.306885,278.367706 418.306885,243.154175 418.306885,207.672211   C430.372681,207.672211 442.449615,207.672211 454.841888,207.672211   C454.841888,211.398773 454.841888,214.999359 454.841888,218.439743   C460.263794,214.978348 465.138092,210.567764 470.860504,208.464142   C486.198425,202.825714 501.224457,203.607346 514.580200,214.224380   C522.743469,220.713654 526.675964,229.779236 526.857727,239.842590   C527.299500,264.304260 527.019348,288.778931 526.633789,313.523010  z" id="svg_7"/><path fill="#F9F9F9" opacity="1.000000" stroke="none" d=" M1222.842041,276.994751   C1224.970703,276.994751 1226.621582,276.994751 1228.779663,276.994751   C1228.250244,288.611084 1223.608154,297.907074 1215.281372,305.324097   C1206.243530,313.374481 1195.097778,316.449921 1183.384277,317.554230   C1169.988403,318.817200 1156.886230,317.751373 1144.525635,311.662933   C1128.716553,303.876038 1119.752441,290.713531 1116.583862,273.995636   C1112.245605,251.107544 1117.725830,230.806152 1135.902222,215.109985   C1143.813721,208.278061 1153.597656,205.301056 1163.743530,204.334961   C1178.529907,202.927032 1192.973877,204.327484 1205.904175,212.759415   C1217.515137,220.330933 1224.085571,231.168518 1226.940308,244.818024   C1216.004883,244.818024 1205.378540,244.818024 1194.306763,244.818024   C1193.259521,235.513519 1187.480957,230.425751 1178.414673,228.856689   C1166.143677,226.732971 1157.743774,231.543961 1154.406616,244.055267   C1150.995117,256.845154 1151.366577,269.784576 1158.001099,281.795807   C1164.503418,293.567932 1182.029541,294.997894 1190.398682,284.430939   C1191.956909,282.463379 1192.668091,279.824829 1194.007324,276.994751   C1203.082031,276.994751 1212.723145,276.994751 1222.842041,276.994751  z" id="svg_8"/><path fill="#F8F8F8" opacity="1.000000" stroke="none" d=" M1055.036621,315.934021   C1046.551880,313.759521 1038.745239,311.148071 1032.337891,305.438080   C1022.682556,296.833649 1020.533447,285.464874 1020.419495,273.371338   C1020.317749,262.562408 1020.398071,251.751755 1020.398071,240.443039   C1016.540039,240.443039 1012.975342,240.443039 1009.204834,240.443039   C1009.204834,229.333878 1009.204834,218.723465 1009.204834,207.559906   C1012.719543,207.559906 1016.273010,207.559906 1020.294373,207.559906   C1020.294373,196.778854 1020.294373,186.533066 1020.294373,176.026306   C1032.860107,176.026306 1044.953613,176.026306 1057.601929,176.026306   C1057.601929,177.857605 1057.601807,179.622787 1057.601807,181.387970   C1057.601807,209.214828 1057.601685,237.041672 1057.601929,264.868530   C1057.602051,280.394073 1061.059448,284.632263 1076.103760,287.403717   C1076.103760,297.326935 1076.103760,307.276306 1076.103760,318.265381   C1069.079590,317.492615 1062.268311,316.743256 1055.036621,315.934021  z" id="svg_9"/><path fill="#FAFAFA" opacity="1.000000" stroke="none" d=" M553.997009,201.952728   C553.997009,193.001419 553.997009,184.547867 553.997009,175.932678   C566.405029,175.932678 578.358276,175.932678 591.002991,175.932678   C591.002991,177.606934 591.002991,179.359818 591.002991,181.112701   C591.002991,209.433624 591.002991,237.754547 591.002991,266.075470   C591.002991,280.302429 595.092529,285.093719 609.269287,287.318878   C609.269287,297.363983 609.269287,307.430756 609.269287,317.858002   C596.605164,317.535675 584.395813,316.557343 573.269287,310.649231   C559.920166,303.560852 554.143799,291.854614 554.014954,277.091949   C553.923401,266.597351 553.997131,256.101288 553.997009,245.605896   C553.997009,243.977478 553.997009,242.349075 553.997009,240.374664   C549.995667,240.374664 546.383606,240.374664 542.459229,240.374664   C542.459229,229.308105 542.459229,218.587326 542.459229,207.563843   C546.168640,207.563843 549.790161,207.563843 553.997009,207.563843   C553.997009,205.662399 553.997009,204.056458 553.997009,201.952728  z" id="svg_10"/><path fill="#F9F9F9" opacity="1.000000" stroke="none" d=" M986.744141,207.532349   C988.699036,207.532379 990.190308,207.532379 992.013428,207.532379   C992.013428,242.878067 992.013428,278.065277 992.013428,313.578674   C980.039001,313.578674 967.993958,313.578674 955.622437,313.578674   C955.622437,278.515930 955.622437,243.324493 955.622437,207.532318   C965.755798,207.532318 976.018127,207.532318 986.744141,207.532349  z" id="svg_11"/><path fill="#FAFAFA" opacity="1.000000" stroke="none" d=" M395.851776,305.922058   C395.851776,308.716766 395.851776,311.023590 395.851776,313.614502   C383.524445,313.614502 371.460144,313.614502 359.107727,313.614502   C359.107727,278.357330 359.107727,243.144638 359.107727,207.788361   C371.352905,207.788361 383.448273,207.788361 395.851776,207.788361   C395.851776,240.504425 395.851776,272.969299 395.851776,305.922058  z" id="svg_12"/><path fill="#8402FC" opacity="1.000000" stroke="none" d=" M1092.944336,248.154541   C1081.175781,253.252579 1067.977417,246.259888 1065.139893,233.691910   C1062.276367,221.008331 1070.220825,209.276566 1082.612061,207.603241   C1091.707397,206.375015 1100.438721,211.691254 1103.972900,220.609161   C1107.631348,229.840500 1104.669678,240.353836 1096.763794,246.025040   C1095.690063,246.795258 1094.459717,247.347046 1092.944336,248.154541  z" id="svg_13"/><path fill="#8402FB" opacity="1.000000" stroke="none" d=" M633.607117,214.442108   C643.447876,227.819092 638.419739,244.903137 623.761475,248.992538   C614.276550,251.638657 604.755188,247.410446 600.239136,238.546921   C595.455139,229.157501 598.158142,217.663055 606.662659,211.231339   C614.045288,205.648132 624.659790,206.289795 631.944519,212.768005   C632.441711,213.210098 632.890381,213.706604 633.607117,214.442108  z" id="svg_14"/><path fill="#8501FC" opacity="1.000000" stroke="none" d=" M953.584839,168.594727   C953.342957,159.082779 956.860046,151.930801 965.119751,147.748047   C971.856750,144.336411 978.700317,144.794098 985.034851,148.961670   C993.269592,154.379364 996.480774,164.573227 993.180908,174.047882   C989.994507,183.196915 981.430786,188.763367 971.878967,187.894348   C962.506592,187.041626 955.452087,179.727875 953.584839,168.594727  z" id="svg_15"/><path fill="#8402FC" opacity="1.000000" stroke="none" d=" M397.840729,168.656616   C394.806976,182.772659 384.641266,190.315994 372.963348,187.517899   C362.355377,184.976166 355.753784,175.051270 357.102600,163.672668   C358.288208,153.670746 367.176361,145.675156 377.178192,145.613068   C387.883148,145.546616 396.642395,153.648148 397.815979,164.739594   C397.937927,165.892426 397.859375,167.066467 397.840729,168.656616  z" id="svg_16"/><path fill="none" opacity="1.000000" stroke="none" d=" M165.265121,221.087341   C161.860809,226.538315 156.774109,228.500092 151.190613,228.885315   C145.265106,229.294159 139.289551,228.977188 133.095947,228.977188   C133.095947,216.100143 133.095947,203.532394 133.095947,189.822830   C140.944016,190.339020 148.979156,189.962021 156.580353,191.599426   C165.828842,193.591705 170.334808,205.101700 167.303696,216.191956   C166.873016,217.767731 166.096832,219.249069 165.265121,221.087341  z" id="svg_17" class=""/><path fill="none" opacity="1.000000" stroke="none" d=" M302.660278,265.338501   C300.351440,275.729706 294.344879,282.458344 284.472351,284.795380   C275.312286,286.963715 267.496216,283.855713 261.483643,276.455475   C253.692429,266.866089 254.398361,251.988159 263.120605,243.198517   C271.790375,234.461731 284.910278,233.812027 294.605682,242.039383   C301.608154,247.981567 303.844177,255.935852 302.660278,265.338501  z" id="svg_18" class="selected"/></g></svg>