<?xml version="1.0" encoding="UTF-8" standalone="no" ?>
<!DOCTYPE svg PUBLIC "-//W3C//DTD SVG 1.1//EN" "http://www.w3.org/Graphics/SVG/1.1/DTD/svg11.dtd">
<svg xmlns="http://www.w3.org/2000/svg" xmlns:xlink="http://www.w3.org/1999/xlink" version="1.1" width="1080" height="1080" viewBox="0 0 1080 1080" xml:space="preserve">
<desc>Created with Fabric.js 5.2.4</desc>
<defs>
</defs>
<rect x="0" y="0" width="100%" height="100%" fill="transparent"></rect>
<g transform="matrix(1 0 0 1 540 540)" id="05a30473-ba3d-442b-bda3-5679aae44cdc"  >
<rect style="stroke: none; stroke-width: 1; stroke-dasharray: none; stroke-linecap: butt; stroke-dashoffset: 0; stroke-linejoin: miter; stroke-miterlimit: 4; fill: rgb(255,255,255); fill-rule: nonzero; opacity: 1; visibility: hidden;" vector-effect="non-scaling-stroke"  x="-540" y="-540" rx="0" ry="0" width="1080" height="1080" />
</g>
<g transform="matrix(1 0 0 1 540 540)" id="802c676c-f0d3-4d9e-8685-e031ca4b3aec"  >
</g>
<g transform="matrix(NaN NaN NaN NaN 0 0)"  >
<g style=""   >
</g>
</g>
<g transform="matrix(NaN NaN NaN NaN 0 0)"  >
<g style=""   >
</g>
</g>
<g transform="matrix(1.13 0 0 1.13 540 540)"  >
<g style=""   >
		<g transform="matrix(1 0 0 1 -38.56 -252.38)"  >
<path style="stroke: none; stroke-width: 1; stroke-dasharray: none; stroke-linecap: butt; stroke-dashoffset: 0; stroke-linejoin: miter; stroke-miterlimit: 4; fill: rgb(255,255,255); fill-rule: evenodd; opacity: 1;" vector-effect="non-scaling-stroke"  transform=" translate(-437.44, -100.62)" d="M 516.87 182.391 L 519.07 182.391 L 519.07 200.931 L 505.621 186.899 L 505.621 200.241 L 503.359 200.241 L 503.359 181.512 L 516.87 195.607 L 516.87 182.391 Z M 453.656 182.391 L 453.656 193.727 C 453.656 195.731 453.09 197.359 451.958 198.614 C 450.765 199.992 449.132 200.618 447.058 200.618 C 445.11 200.618 443.477 199.992 442.281 198.614 C 441.089 197.359 440.521 195.731 440.521 193.727 L 440.521 182.391 L 442.785 182.391 L 442.785 192.975 C 442.785 196.671 444.168 198.551 447.058 198.551 C 450.01 198.551 451.456 196.671 451.456 192.975 L 451.456 182.391 L 453.656 182.391 Z M 460.568 182.391 L 471.313 182.391 L 471.313 184.458 L 467.041 184.458 L 467.041 200.242 L 464.904 200.242 L 464.904 184.458 L 460.568 184.458 L 460.568 182.391 Z M 456.673 182.391 L 458.934 182.391 L 458.934 200.242 L 456.673 200.242 L 456.673 182.391 Z M 436.878 182.391 L 439.329 182.391 L 431.536 201.244 L 423.745 182.391 L 426.196 182.391 L 431.538 195.607 L 436.878 182.391 Z M 499.212 191.346 C 499.212 193.35 498.52 195.042 497.076 196.483 C 495.756 197.861 494.06 198.55 492.11 198.55 C 490.162 198.55 488.466 197.861 487.022 196.483 C 485.576 195.041 484.885 193.35 484.885 191.346 C 484.885 189.343 485.513 187.65 486.896 186.273 C 488.278 184.833 490.038 184.144 492.11 184.144 C 494.184 184.144 495.881 184.833 497.2 186.273 C 498.521 187.65 499.212 189.341 499.212 191.346 Z M 498.71 184.77 C 496.826 182.953 494.626 182.014 492.111 182.014 C 489.535 182.014 487.337 182.953 485.451 184.77 C 483.629 186.586 482.686 188.779 482.686 191.345 C 482.686 193.975 483.63 196.169 485.451 197.984 C 487.273 199.739 489.473 200.617 492.111 200.617 C 494.689 200.617 496.95 199.739 498.71 197.984 C 500.533 196.169 501.475 193.975 501.475 191.345 C 501.476 188.779 500.534 186.586 498.71 184.77 Z M 482.184 182.391 L 482.184 184.458 L 477.974 184.458 L 477.974 200.242 L 475.712 200.242 L 475.712 184.458 L 471.439 184.458 L 471.439 182.391 L 482.184 182.391 Z M 378.25 186.273 C 379.57 187.65 380.198 189.343 380.198 191.346 C 380.198 193.35 379.506 195.042 378.125 196.483 C 376.743 197.861 375.045 198.55 373.097 198.55 C 371.15 198.55 369.453 197.861 368.008 196.483 C 366.688 195.041 365.935 193.35 365.935 191.346 C 365.935 189.343 366.626 187.65 367.946 186.273 C 369.328 184.833 371.025 184.144 373.098 184.144 C 375.171 184.144 376.931 184.833 378.25 186.273 Z M 379.696 184.77 C 377.811 182.953 375.612 182.014 373.098 182.014 C 370.521 182.014 368.261 182.953 366.501 184.77 C 364.615 186.586 363.673 188.779 363.673 191.345 C 363.673 193.975 364.616 196.169 366.501 197.984 C 368.261 199.739 370.46 200.617 373.098 200.617 C 375.738 200.617 377.937 199.739 379.696 197.984 C 381.581 196.169 382.461 193.975 382.461 191.345 C 382.461 188.779 381.581 186.586 379.696 184.77 Z M 386.545 192.974 C 386.545 196.67 387.99 198.55 390.881 198.55 C 393.71 198.55 395.217 196.67 395.217 192.974 L 395.217 182.389 L 397.417 182.389 L 397.417 193.726 C 397.417 195.73 396.851 197.358 395.657 198.613 C 394.463 199.991 392.829 200.617 390.881 200.617 C 388.871 200.617 387.3 199.991 386.106 198.613 C 384.849 197.358 384.285 195.73 384.285 193.726 L 384.285 182.389 L 386.547 182.389 L 386.545 192.974 Z M 358.017 182.391 L 358.017 198.237 L 363.483 198.237 L 363.483 200.241 L 355.817 200.241 L 355.817 182.389 L 358.017 182.389 L 358.017 182.391 Z M 411.868 189.718 C 414.884 190.907 416.33 192.661 416.33 195.041 C 416.33 196.67 415.765 197.984 414.634 199.05 C 413.566 200.115 412.246 200.618 410.675 200.618 C 409.23 200.618 407.973 200.179 406.905 199.176 C 405.9 198.237 405.272 197.046 405.083 195.607 L 407.345 195.105 C 407.345 196.107 407.659 196.922 408.35 197.611 C 409.042 198.237 409.795 198.55 410.801 198.55 C 411.744 198.55 412.497 198.174 413.189 197.485 C 413.755 196.859 414.069 196.044 414.069 195.042 C 414.069 193.665 413.063 192.538 410.99 191.659 L 409.733 191.223 C 407.219 190.032 405.9 188.529 405.9 186.649 C 405.9 185.271 406.465 184.081 407.471 183.266 C 408.539 182.391 409.733 182.014 411.179 182.014 C 413.252 182.014 414.76 182.953 415.765 184.77 L 414.006 185.772 C 413.314 184.707 412.372 184.144 411.115 184.144 C 410.361 184.144 409.606 184.331 409.041 184.77 C 408.413 185.27 408.098 185.898 408.098 186.648 C 408.098 187.713 408.915 188.528 410.674 189.154 L 411.868 189.718 Z M 400.433 182.391 L 402.696 182.391 L 402.696 200.242 L 400.433 200.242 L 400.433 182.391 Z M 488.672 21.0217 L 445.332 122.985 L 433.375 96.8323 L 455.461 36.9125 C 457.122 32.2785 462.933 30.1261 472.731 30.1261 L 476.217 21.0217 L 424.74 21.0217 L 421.419 30.1261 C 428.725 30.1261 431.715 32.2774 430.551 36.9125 L 419.593 67.3688 L 398.006 21.0217 C 394.021 16.0564 396.013 13.5727 403.818 13.5727 L 403.818 2.81501 L 354 2.81501 L 354 13.5738 C 363.3 13.5738 369.111 16.0575 371.603 21.0228 L 408.136 98.4888 L 391.031 144.008 C 390.698 150.131 381.068 153.113 362.469 153.113 L 358.982 162.216 L 501.126 162.216 L 520.887 120.339 L 510.591 120.339 C 500.961 142.022 489.835 153.113 477.381 153.113 L 412.12 153.113 L 421.751 127.456 L 430.054 144.008 L 448.653 144.008 L 501.125 21.0238 C 503.617 13.5749 510.094 9.60352 520.222 9.60352 L 520.222 0 L 477.38 0 L 477.38 9.60137 C 490.333 9.60137 493.987 13.5738 488.672 21.0217 Z" stroke-linecap="round" />
</g>
		<g transform="matrix(1 0 0 1 -354 -71.5)" clip-path="url(#CLIPPATH_12)"  >
<clipPath id="CLIPPATH_12" >
	<rect transform="matrix(1 0 0 1 0 0)" id="clip0_0_1" x="-122" y="-47.5" rx="0" ry="0" width="244" height="95" />
</clipPath>
<path style="stroke: none; stroke-width: 1; stroke-dasharray: none; stroke-linecap: butt; stroke-dashoffset: 0; stroke-linejoin: miter; stroke-miterlimit: 4; fill: rgb(255,255,255); fill-rule: nonzero; opacity: 1;" vector-effect="non-scaling-stroke"  transform=" translate(-122, -281.5)" d="M 26.915 328.961 C 19.6448 328.646 13.6967 326.472 9.04579 322.436 C 8.15818 321.665 6.0431 319.353 5.33351 318.378 C 3.44749 315.787 2.16525 313.265 1.31 310.468 C -1.32171 301.856 0.0327404 290.556 5.18412 278.154 C 9.59479 267.536 16.4006 257.006 28.2745 242.421 C 30.0235 240.275 35.2322 233.999 35.2658 233.999 C 35.2782 233.999 34.9944 234.536 34.6371 235.19 C 31.5498 240.839 28.9081 247.494 27.469 253.255 C 25.1572 262.499 25.4361 270.432 28.2857 276.583 C 30.2513 280.821 33.6213 284.492 37.4108 286.521 C 44.0448 290.072 53.7575 290.366 65.6188 287.38 C 66.4355 287.174 106.902 275.438 155.545 261.301 C 204.188 247.162 243.994 235.603 244 235.613 C 244.014 235.625 130.988 288.462 72.3151 315.872 C 63.0232 320.212 60.5384 321.308 56.1701 322.984 C 45.0034 327.268 35.0006 329.312 26.915 328.961 Z" stroke-linecap="round" />
</g>
		<g transform="matrix(1 0 0 1 431.7 -72.5)" clip-path="url(#CLIPPATH_13)"  >
<clipPath id="CLIPPATH_13" >
	<rect transform="matrix(1 0 0 1 -137.7 0)" id="clip1_0_1" x="-182" y="-47.5" rx="0" ry="0" width="364" height="95" />
</clipPath>
<path style="stroke: none; stroke-width: 1; stroke-dasharray: none; stroke-linecap: butt; stroke-dashoffset: 0; stroke-linejoin: miter; stroke-miterlimit: 4; fill: rgb(253,187,48); fill-rule: nonzero; opacity: 1;" vector-effect="non-scaling-stroke"  transform=" translate(-907.7, -280.5)" d="M 907.687 264.981 C 909.713 264.981 911.381 263.824 911.607 262.328 L 913.607 237.473 C 913.607 235.017 910.987 233 907.693 233 C 904.402 233 901.785 235.017 901.785 237.474 L 903.784 262.328 C 904.004 263.823 905.672 264.981 907.693 264.981 L 907.687 264.981 Z M 895.457 272.744 C 896.474 270.819 896.397 268.655 895.326 267.694 L 876.727 253.363 C 874.794 252.133 871.894 253.613 870.249 256.748 C 868.598 259.879 868.89 263.375 870.819 264.606 L 891.413 275.138 C 892.7 275.663 894.455 274.654 895.464 272.73 L 895.457 272.744 Z M 919.927 272.731 C 920.942 274.655 922.688 275.664 923.977 275.14 L 944.571 264.607 C 946.511 263.377 946.787 259.88 945.151 256.749 C 943.498 253.618 940.593 252.134 938.665 253.364 L 920.065 267.695 C 919.002 268.655 918.922 270.821 919.933 272.746 L 919.927 272.731 Z M 907.687 296.028 C 909.713 296.028 911.381 297.176 911.607 298.673 L 913.607 323.524 C 913.607 325.988 910.987 328 907.693 328 C 904.402 328 901.785 325.988 901.785 323.524 L 903.784 298.673 C 904.004 297.176 905.672 296.028 907.693 296.028 L 907.687 296.028 Z M 919.927 288.263 C 920.942 286.334 922.688 285.334 923.977 285.864 L 944.571 296.389 C 946.511 297.621 946.787 301.121 945.151 304.254 C 943.498 307.376 940.593 308.863 938.665 307.635 L 920.065 293.318 C 919.002 292.35 918.922 290.183 919.933 288.259 L 919.925 288.259 M 895.457 288.261 C 896.474 290.183 896.397 292.35 895.326 293.319 L 876.727 307.636 C 874.794 308.865 871.894 307.377 870.249 304.256 C 868.598 301.122 868.89 297.622 870.819 296.391 L 891.413 285.865 C 892.7 285.335 894.455 286.335 895.464 288.265 L 895.457 288.265" stroke-linecap="round" />
</g>
		<g transform="matrix(1 0 0 1 244.33 -72.03)" clip-path="url(#CLIPPATH_14)"  >
<clipPath id="CLIPPATH_14" >
	<rect transform="matrix(1 0 0 1 49.67 -0.47)" id="clip1_0_1" x="-182" y="-47.5" rx="0" ry="0" width="364" height="95" />
</clipPath>
<path style="stroke: none; stroke-width: 1; stroke-dasharray: none; stroke-linecap: butt; stroke-dashoffset: 0; stroke-linejoin: miter; stroke-miterlimit: 4; fill: rgb(26,117,207); fill-rule: nonzero; opacity: 1;" vector-effect="non-scaling-stroke"  transform=" translate(-720.33, -280.97)" d="M 790.372 293.272 C 790.372 294.035 790.31 294.822 790.12 295.513 C 789.331 298.382 786.627 300.809 783.243 300.809 C 780.421 300.809 778.18 299.048 778.18 295.33 C 778.18 289.639 783.883 288.068 790.374 288.107 L 790.372 293.272 L 790.372 293.272 Z M 800.553 283.355 C 800.553 273.972 796.903 265.715 784.569 265.715 C 778.238 265.715 773.213 267.668 770.47 269.409 L 772.479 276.953 C 774.986 275.215 778.981 273.776 782.762 273.776 C 789.018 273.757 790.042 277.667 790.042 280.17 L 790.042 280.763 C 776.405 280.74 767.784 285.927 767.784 296.494 C 767.784 302.95 772.175 308.997 779.807 308.997 C 784.497 308.997 788.425 306.941 790.776 303.644 L 791.008 303.644 C 791.008 303.644 792.563 310.802 801.15 308.063 C 800.702 305.087 800.555 301.909 800.555 298.088 L 800.554 283.355 M 588.069 252.936 C 588.069 252.936 596.981 293.047 598.404 299.556 C 600.064 307.155 603.055 309.952 611.677 308.063 L 617.241 283.196 C 618.652 277.016 619.597 272.61 620.506 266.33 L 620.664 266.33 C 621.302 272.677 622.208 277.035 623.369 283.217 C 623.369 283.217 625.633 294.507 626.794 300.434 C 627.957 306.361 631.193 310.098 639.639 308.063 L 652.898 252.934 L 642.196 252.934 L 637.667 276.77 C 636.45 283.706 635.346 289.131 634.494 295.475 L 634.343 295.475 C 633.569 289.187 632.584 283.983 631.347 277.224 L 626.636 252.934 L 615.483 252.934 L 610.441 276.612 C 609.014 283.809 607.676 289.618 606.828 295.75 L 606.674 295.75 C 605.803 289.976 604.645 282.672 603.391 275.708 C 603.391 275.708 600.397 258.772 599.345 252.934 L 588.069 252.936 Z M 673.142 293.272 C 673.142 294.035 673.081 294.822 672.888 295.513 C 672.1 298.382 669.394 300.809 666.01 300.809 C 663.188 300.809 660.951 299.048 660.951 295.33 C 660.951 289.639 666.651 288.068 673.143 288.107 L 673.142 293.272 L 673.142 293.272 Z M 683.322 283.355 C 683.322 273.972 679.672 265.715 667.341 265.715 C 661.008 265.715 655.979 267.668 653.238 269.409 L 655.244 276.953 C 657.75 275.215 661.745 273.776 665.527 273.776 C 671.788 273.757 672.812 277.667 672.812 280.17 L 672.812 280.763 C 659.169 280.74 650.553 285.927 650.553 296.494 C 650.553 302.95 654.941 308.997 662.568 308.997 C 667.264 308.997 671.19 306.941 673.543 303.644 L 673.772 303.644 C 673.772 303.644 675.332 310.802 683.917 308.063 C 683.469 305.087 683.322 301.909 683.322 298.088 L 683.322 283.355 Z M 700.313 296.361 L 700.313 252.936 L 690.119 252.936 L 690.119 308.065 L 700.313 308.065 L 700.313 296.361 Z M 833.661 252.936 L 833.661 293.604 C 833.661 299.213 834.624 303.139 836.677 305.542 C 838.476 307.642 841.431 309.002 844.976 309.002 C 847.991 309.002 850.955 308.37 852.353 307.8 L 852.222 299.053 C 851.181 299.332 849.986 299.558 848.35 299.558 C 844.877 299.558 843.715 297.114 843.715 292.081 L 843.715 276.52 L 852.592 276.52 L 852.592 265.971 L 843.715 265.971 L 843.715 252.936 L 833.661 252.936 Z M 807.351 266.65 L 807.351 308.065 L 817.866 308.065 L 817.866 286.86 C 817.866 285.714 817.929 284.715 818.094 283.801 C 818.872 279.357 821.964 276.52 826.406 276.52 C 827.624 276.52 828.495 276.666 829.439 276.813 L 829.439 265.971 C 828.647 265.797 828.109 265.716 827.123 265.716 C 823.199 265.716 818.735 268.497 816.861 274.464 L 816.577 274.464 L 816.577 266.65 L 807.351 266.65 Z M 707.45 266.65 L 707.45 308.065 L 717.695 308.065 L 717.695 283.779 C 717.695 282.64 717.817 281.434 718.176 280.39 C 719.025 277.945 721.097 275.081 724.403 275.081 C 728.538 275.081 730.47 278.92 730.47 284.46 L 730.47 308.062 L 740.706 308.062 L 740.706 283.48 C 740.706 282.393 740.842 281.082 741.134 280.124 C 741.975 277.341 744.207 275.078 747.28 275.078 C 751.471 275.078 753.483 278.849 753.483 285.37 L 753.483 308.061 L 763.726 308.061 L 763.726 283.667 C 763.726 270.804 757.78 265.712 751.066 265.712 C 748.096 265.712 745.749 266.529 743.626 267.958 C 741.844 269.164 740.245 270.873 738.85 273.12 L 738.699 273.12 C 737.08 268.657 733.271 265.714 728.308 265.714 C 721.931 265.714 719.065 269.265 717.327 272.276 L 717.174 272.276 L 717.174 266.649 L 707.45 266.649" stroke-linecap="round" />
</g>
		<g transform="matrix(1 0 0 1 473.95 -46.83)" clip-path="url(#CLIPPATH_15)"  >
<clipPath id="CLIPPATH_15" >
	<rect transform="matrix(1 0 0 1 -179.95 -25.67)" id="clip1_0_1" x="-182" y="-47.5" rx="0" ry="0" width="364" height="95" />
</clipPath>
<path style="stroke: none; stroke-width: 1; stroke-dasharray: none; stroke-linecap: butt; stroke-dashoffset: 0; stroke-linejoin: miter; stroke-miterlimit: 4; fill: rgb(253,187,48); fill-rule: nonzero; opacity: 1;" vector-effect="non-scaling-stroke"  transform=" translate(-949.95, -306.17)" d="M 949.736 306.052 L 949.891 306.052 C 950.096 306.052 950.228 305.958 950.228 305.82 C 950.228 305.663 950.104 305.577 949.913 305.577 C 949.848 305.577 949.781 305.592 949.737 305.592 L 949.737 306.056 L 949.737 306.051 L 949.736 306.052 Z M 949.712 307.168 L 949.168 307.168 L 949.168 305.219 C 949.291 305.193 949.58 305.145 949.949 305.145 C 950.349 305.145 950.529 305.207 950.661 305.305 C 950.772 305.39 950.853 305.535 950.853 305.732 C 950.853 305.932 950.685 306.101 950.438 306.175 L 950.438 306.2 C 950.639 306.259 950.749 306.42 950.807 306.701 C 950.862 306.982 950.896 307.097 950.93 307.169 L 950.313 307.169 C 950.259 307.097 950.228 306.925 950.191 306.753 C 950.157 306.555 950.072 306.456 949.89 306.456 L 949.711 306.456 L 949.712 307.168 Z M 949.938 304.584 C 949.156 304.584 948.566 305.284 948.566 306.176 C 948.566 307.045 949.157 307.754 949.959 307.754 C 950.764 307.769 951.356 307.046 951.356 306.162 C 951.356 305.282 950.764 304.584 949.95 304.584 L 949.938 304.584 Z M 949.973 304.055 C 951.063 304.055 951.932 304.998 951.932 306.162 C 951.932 307.339 951.063 308.283 949.958 308.283 C 948.853 308.283 947.973 307.338 947.973 306.162 C 947.973 304.998 948.854 304.056 949.958 304.056 L 949.97 304.056" stroke-linecap="round" />
</g>
		<g transform="matrix(1 0 0 1 -380.5 131.5)"  >
<line style="stroke: rgb(122,22,245); stroke-width: 7; stroke-dasharray: 14 14; stroke-linecap: butt; stroke-dashoffset: 0; stroke-linejoin: miter; stroke-miterlimit: 4; fill: none; fill-rule: nonzero; opacity: 1;" vector-effect="non-scaling-stroke"  x1="0" y1="-148.5" x2="0" y2="148.5" />
</g>
		<g transform="matrix(1 0 0 1 -330.5 276.5)"  >
<line style="stroke: rgb(122,22,245); stroke-width: 7; stroke-dasharray: 14 14; stroke-linecap: butt; stroke-dashoffset: 0; stroke-linejoin: miter; stroke-miterlimit: 4; fill: none; fill-rule: nonzero; opacity: 1;" vector-effect="non-scaling-stroke"  x1="-53.5" y1="0" x2="53.5" y2="0" />
</g>
		<g transform="matrix(1 0 0 1 246.5 276.5)"  >
<line style="stroke: rgb(122,22,245); stroke-width: 7; stroke-dasharray: 14 14; stroke-linecap: butt; stroke-dashoffset: 0; stroke-linejoin: miter; stroke-miterlimit: 4; fill: none; fill-rule: nonzero; opacity: 1;" vector-effect="non-scaling-stroke"  x1="-47.5" y1="0" x2="47.5" y2="0" />
</g>
		<g transform="matrix(1 0 0 1 297.5 131.5)"  >
<line style="stroke: rgb(122,22,245); stroke-width: 7; stroke-dasharray: 14 14; stroke-linecap: butt; stroke-dashoffset: 0; stroke-linejoin: miter; stroke-miterlimit: 4; fill: none; fill-rule: nonzero; opacity: 1;" vector-effect="non-scaling-stroke"  x1="0" y1="-148.5" x2="0" y2="148.5" />
</g>
		<g transform="matrix(1 0 0 1 -35.5 27)"  >
<line style="stroke: rgb(122,22,245); stroke-width: 7; stroke-dasharray: 14 14; stroke-linecap: butt; stroke-dashoffset: 0; stroke-linejoin: miter; stroke-miterlimit: 4; fill: none; fill-rule: nonzero; opacity: 1;" vector-effect="non-scaling-stroke"  x1="0" y1="-179" x2="0" y2="179" />
</g>
		<g transform="matrix(1 0 0 1 -226.12 280.5)"  >
<path style="stroke: none; stroke-width: 1; stroke-dasharray: none; stroke-linecap: butt; stroke-dashoffset: 0; stroke-linejoin: miter; stroke-miterlimit: 4; fill: rgb(250,250,250); fill-rule: nonzero; opacity: 1;" vector-effect="non-scaling-stroke"  transform=" translate(-249.88, -633.5)" d="M 230.319 647.454 C 230.319 634.481 230.319 621.666 230.319 608.768 C 230.856 608.736 231.291 608.686 231.726 608.686 C 238.642 608.681 245.561 608.56 252.472 608.719 C 258.732 608.863 264.142 610.849 267.298 616.373 C 269.566 620.345 269.781 624.682 269.1 629.045 C 267.765 637.584 261.403 641.625 253.074 642.022 C 249.948 642.171 246.808 642.046 243.564 642.046 C 243.564 647.594 243.564 652.929 243.564 658.362 C 239.154 658.362 234.856 658.362 230.319 658.362 C 230.319 654.771 230.319 651.192 230.319 647.454 Z M 254.533 628.928 C 254.741 628.443 255.003 627.972 255.148 627.47 C 256.172 623.941 254.65 620.279 251.528 619.645 C 248.961 619.124 246.249 619.244 243.599 619.08 C 243.599 623.442 243.599 627.441 243.599 631.538 C 245.69 631.538 247.707 631.639 249.708 631.509 C 251.593 631.386 253.311 630.762 254.533 628.928 Z" stroke-linecap="round" />
</g>
		<g transform="matrix(1 0 0 1 10.32 288.61)"  >
<path style="stroke: none; stroke-width: 1; stroke-dasharray: none; stroke-linecap: butt; stroke-dashoffset: 0; stroke-linejoin: miter; stroke-miterlimit: 4; fill: rgb(249,249,249); fill-rule: nonzero; opacity: 1;" vector-effect="non-scaling-stroke"  transform=" translate(-486.32, -641.61)" d="M 499.202 637.289 C 500.872 633.357 502.46 629.527 504.155 625.738 C 504.364 625.269 505.127 624.732 505.647 624.719 C 509.356 624.632 513.068 624.673 517.019 624.673 C 515.8 627.433 514.633 630.085 513.459 632.736 C 510.081 640.366 506.701 647.995 503.319 655.623 C 503.018 656.302 502.795 657.04 502.352 657.626 C 502.037 658.041 501.425 658.479 500.923 658.505 C 498.96 658.605 496.98 658.439 495.023 658.582 C 493.605 658.685 493.15 658.147 492.746 656.96 C 490.87 651.458 488.87 645.994 486.912 640.517 C 486.773 640.127 486.61 639.744 486.315 638.992 C 485.99 639.792 485.767 640.291 485.583 640.802 C 483.585 646.349 481.562 651.889 479.631 657.457 C 479.321 658.349 478.908 658.586 477.981 658.565 C 475.567 658.509 473.152 658.546 470.641 658.546 C 465.641 647.31 460.655 636.107 455.614 624.78 C 459.771 624.78 463.838 624.78 468.11 624.78 C 470.237 629.789 472.417 634.927 474.737 640.392 C 476.119 636.998 477.391 633.886 478.654 630.77 C 479.272 629.245 479.964 627.738 480.449 626.175 C 480.806 625.027 481.358 624.581 482.679 624.64 C 485.205 624.753 487.741 624.721 490.27 624.649 C 491.311 624.619 491.733 625.011 492.066 625.882 C 493.733 630.236 495.461 634.569 497.184 638.904 C 497.356 639.337 497.638 639.732 497.955 640.297 C 498.401 639.22 498.777 638.312 499.202 637.289 Z" stroke-linecap="round" />
</g>
		<g transform="matrix(1 0 0 1 -40.52 280.62)"  >
<path style="stroke: none; stroke-width: 1; stroke-dasharray: none; stroke-linecap: butt; stroke-dashoffset: 0; stroke-linejoin: miter; stroke-miterlimit: 4; fill: rgb(250,250,250); fill-rule: nonzero; opacity: 1;" vector-effect="non-scaling-stroke"  transform=" translate(-435.48, -633.62)" d="M 424.661 658.187 C 421.871 656.951 419.205 655.763 416.425 654.524 C 418.458 650.801 420.345 647.346 422.267 643.828 C 425.646 646.783 429.537 648.466 434.045 648.814 C 434.653 648.861 435.283 648.82 435.885 648.722 C 438.145 648.355 440.045 646.661 440.393 644.755 C 440.74 642.857 439.689 640.847 437.441 639.908 C 434.744 638.782 431.908 637.953 429.144 636.964 C 425.86 635.787 422.813 634.298 420.811 631.391 C 417.551 626.658 418.088 618.436 421.973 613.568 C 424.449 610.466 427.771 608.619 431.734 607.875 C 439.04 606.502 445.807 608.163 452.448 611.394 C 450.653 614.787 448.909 618.083 447.246 621.226 C 444.989 620.277 442.901 619.116 440.644 618.548 C 439.07 618.152 437.231 618.392 435.572 618.669 C 433.786 618.968 432.911 620.282 432.717 621.962 C 432.524 623.633 433.289 624.916 434.834 625.593 C 436.898 626.498 439.07 627.182 441.188 627.981 C 443.155 628.722 445.211 629.319 447.054 630.277 C 452.962 633.345 454.996 638.352 454.454 644.421 C 453.643 653.496 446.706 659.282 436.182 659.82 C 432.266 660.02 428.484 659.401 424.661 658.187 Z" stroke-linecap="round" />
</g>
		<g transform="matrix(1 0 0 1 161.59 278.93)"  >
<path style="stroke: none; stroke-width: 1; stroke-dasharray: none; stroke-linecap: butt; stroke-dashoffset: 0; stroke-linejoin: miter; stroke-miterlimit: 4; fill: rgb(247,247,247); fill-rule: nonzero; opacity: 1;" vector-effect="non-scaling-stroke"  transform=" translate(-637.59, -631.93)" d="M 619.139 647.773 C 619.139 633.576 619.139 619.537 619.139 605.381 C 623.31 605.381 627.382 605.381 631.686 605.381 C 631.686 612.938 631.686 620.517 631.686 628.511 C 634.001 626.318 636.303 624.913 639.112 624.407 C 644.154 623.501 648.838 624.046 652.663 627.622 C 654.927 629.738 655.929 632.463 655.973 635.372 C 656.086 642.843 656.01 650.317 656.002 657.789 C 656.002 657.991 655.921 658.193 655.862 658.466 C 651.794 658.466 647.767 658.466 643.568 658.466 C 643.568 657.906 643.572 657.336 643.568 656.766 C 643.528 650.993 643.577 645.218 643.418 639.448 C 643.299 635.147 641.144 633.272 637.157 633.644 C 633.551 633.98 631.742 636.043 631.713 640.016 C 631.672 645.58 631.703 651.145 631.703 656.71 C 631.703 657.277 631.703 657.845 631.703 658.48 C 627.458 658.48 623.424 658.48 619.139 658.48 C 619.139 654.978 619.139 651.455 619.139 647.773 Z" stroke-linecap="round" />
</g>
		<g transform="matrix(1 0 0 1 -182.96 288.67)"  >
<path style="stroke: none; stroke-width: 1; stroke-dasharray: none; stroke-linecap: butt; stroke-dashoffset: 0; stroke-linejoin: miter; stroke-miterlimit: 4; fill: rgb(249,249,249); fill-rule: nonzero; opacity: 1;" vector-effect="non-scaling-stroke"  transform=" translate(-293.04, -641.67)" d="M 314.074 641.698 C 313.857 645.553 312.846 649.009 310.519 652.075 C 307.072 656.616 302.232 658.967 296.519 659.644 C 289.096 660.525 282.257 659.095 277.004 653.718 C 267.221 643.702 272.537 627.44 286.6 624.261 C 293.712 622.652 300.541 623.274 306.602 627.507 C 311.572 630.979 313.862 635.793 314.074 641.698 Z M 300.878 642.975 C 301.248 640.116 300.493 637.585 298.129 635.694 C 294.855 633.077 290.426 633.283 287.498 636.063 C 284.554 638.86 284.315 643.594 286.946 646.645 C 288.976 649 291.615 649.988 294.707 649.299 C 298.041 648.555 300.069 646.414 300.878 642.975 Z" stroke-linecap="round" />
</g>
		<g transform="matrix(1 0 0 1 -117.74 288.22)"  >
<path style="stroke: none; stroke-width: 1; stroke-dasharray: none; stroke-linecap: butt; stroke-dashoffset: 0; stroke-linejoin: miter; stroke-miterlimit: 4; fill: rgb(250,250,250); fill-rule: nonzero; opacity: 1;" vector-effect="non-scaling-stroke"  transform=" translate(-358.26, -641.22)" d="M 376.467 658.439 C 372.349 658.526 368.365 658.526 364.147 658.526 C 364.147 657.884 364.149 657.324 364.147 656.764 C 364.131 651.148 364.114 645.531 364.098 639.915 C 364.097 639.756 364.105 639.597 364.096 639.438 C 363.875 635.528 361.86 633.388 358.489 633.479 C 354.685 633.581 352.317 635.935 352.293 639.753 C 352.256 645.37 352.283 650.987 352.283 656.604 C 352.283 657.183 352.283 657.761 352.283 658.443 C 348.141 658.443 344.07 658.443 339.893 658.443 C 339.893 647.253 339.893 636.049 339.893 624.759 C 343.967 624.759 348.045 624.759 352.228 624.759 C 352.228 625.945 352.228 627.091 352.228 628.185 C 354.059 627.084 355.705 625.681 357.637 625.011 C 362.815 623.217 367.888 623.466 372.398 626.844 C 375.154 628.909 376.481 631.793 376.543 634.995 C 376.692 642.779 376.597 650.566 376.467 658.439 Z" stroke-linecap="round" />
</g>
		<g transform="matrix(1 0 0 1 118.35 288.71)"  >
<path style="stroke: none; stroke-width: 1; stroke-dasharray: none; stroke-linecap: butt; stroke-dashoffset: 0; stroke-linejoin: miter; stroke-miterlimit: 4; fill: rgb(249,249,249); fill-rule: nonzero; opacity: 1;" vector-effect="non-scaling-stroke"  transform=" translate(-594.35, -641.71)" d="M 611.525 646.817 C 612.243 646.817 612.801 646.817 613.529 646.817 C 613.351 650.513 611.783 653.471 608.972 655.83 C 605.921 658.392 602.157 659.371 598.203 659.722 C 593.68 660.124 589.256 659.785 585.083 657.847 C 579.746 655.37 576.719 651.182 575.649 645.862 C 574.185 638.58 576.035 632.12 582.172 627.126 C 584.843 624.952 588.146 624.005 591.572 623.698 C 596.564 623.25 601.44 623.695 605.806 626.378 C 609.726 628.787 611.944 632.236 612.908 636.579 C 609.216 636.579 605.629 636.579 601.89 636.579 C 601.537 633.618 599.586 631.999 596.525 631.5 C 592.382 630.824 589.546 632.355 588.419 636.336 C 587.267 640.405 587.393 644.522 589.633 648.344 C 591.828 652.09 597.745 652.545 600.571 649.183 C 601.097 648.557 601.337 647.717 601.789 646.817 C 604.853 646.817 608.108 646.817 611.525 646.817 Z" stroke-linecap="round" />
</g>
		<g transform="matrix(1 0 0 1 74.69 284.32)"  >
<path style="stroke: none; stroke-width: 1; stroke-dasharray: none; stroke-linecap: butt; stroke-dashoffset: 0; stroke-linejoin: miter; stroke-miterlimit: 4; fill: rgb(248,248,248); fill-rule: nonzero; opacity: 1;" vector-effect="non-scaling-stroke"  transform=" translate(-550.69, -637.32)" d="M 554.869 659.206 C 552.005 658.514 549.369 657.683 547.206 655.867 C 543.946 653.129 543.22 649.512 543.182 645.664 C 543.147 642.224 543.174 638.785 543.174 635.186 C 541.872 635.186 540.668 635.186 539.395 635.186 C 539.395 631.652 539.395 628.276 539.395 624.724 C 540.582 624.724 541.782 624.724 543.139 624.724 C 543.139 621.293 543.139 618.033 543.139 614.69 C 547.382 614.69 551.465 614.69 555.735 614.69 C 555.735 615.273 555.735 615.835 555.735 616.396 C 555.735 625.25 555.735 634.104 555.735 642.958 C 555.735 647.898 556.903 649.247 561.982 650.128 C 561.982 653.286 561.982 656.452 561.982 659.948 C 559.61 659.702 557.311 659.464 554.869 659.206 Z" stroke-linecap="round" />
</g>
		<g transform="matrix(1 0 0 1 -82.91 284.24)"  >
<path style="stroke: none; stroke-width: 1; stroke-dasharray: none; stroke-linecap: butt; stroke-dashoffset: 0; stroke-linejoin: miter; stroke-miterlimit: 4; fill: rgb(250,250,250); fill-rule: nonzero; opacity: 1;" vector-effect="non-scaling-stroke"  transform=" translate(-393.09, -637.24)" d="M 385.706 622.939 C 385.706 620.091 385.706 617.402 385.706 614.66 C 389.895 614.66 393.931 614.66 398.2 614.66 C 398.2 615.193 398.2 615.751 398.2 616.309 C 398.2 625.32 398.2 634.331 398.2 643.342 C 398.2 647.869 399.581 649.393 404.367 650.101 C 404.367 653.298 404.367 656.501 404.367 659.818 C 400.092 659.716 395.969 659.405 392.213 657.525 C 387.706 655.269 385.756 651.545 385.712 646.847 C 385.681 643.508 385.706 640.169 385.706 636.829 C 385.706 636.311 385.706 635.793 385.706 635.165 C 384.355 635.165 383.136 635.165 381.811 635.165 C 381.811 631.643 381.811 628.232 381.811 624.725 C 383.063 624.725 384.286 624.725 385.706 624.725 C 385.706 624.12 385.706 623.609 385.706 622.939 Z" stroke-linecap="round" />
</g>
		<g transform="matrix(1 0 0 1 51.45 288.59)"  >
<path style="stroke: none; stroke-width: 1; stroke-dasharray: none; stroke-linecap: butt; stroke-dashoffset: 0; stroke-linejoin: miter; stroke-miterlimit: 4; fill: rgb(249,249,249); fill-rule: nonzero; opacity: 1;" vector-effect="non-scaling-stroke"  transform=" translate(-527.45, -641.59)" d="M 531.812 624.715 C 532.472 624.715 532.976 624.715 533.591 624.715 C 533.591 635.961 533.591 647.157 533.591 658.457 C 529.548 658.457 525.482 658.457 521.305 658.457 C 521.305 647.301 521.305 636.103 521.305 624.715 C 524.726 624.715 528.191 624.715 531.812 624.715 Z" stroke-linecap="round" />
</g>
		<g transform="matrix(1 0 0 1 -149.89 288.63)"  >
<path style="stroke: none; stroke-width: 1; stroke-dasharray: none; stroke-linecap: butt; stroke-dashoffset: 0; stroke-linejoin: miter; stroke-miterlimit: 4; fill: rgb(250,250,250); fill-rule: nonzero; opacity: 1;" vector-effect="non-scaling-stroke"  transform=" translate(-326.11, -641.63)" d="M 332.312 656.021 C 332.312 656.91 332.312 657.644 332.312 658.468 C 328.15 658.468 324.077 658.468 319.906 658.468 C 319.906 647.25 319.906 636.046 319.906 624.796 C 324.04 624.796 328.124 624.796 332.312 624.796 C 332.312 635.206 332.312 645.536 332.312 656.021 Z" stroke-linecap="round" />
</g>
		<g transform="matrix(1 0 0 1 89 278.43)"  >
<path style="stroke: none; stroke-width: 1; stroke-dasharray: none; stroke-linecap: butt; stroke-dashoffset: 0; stroke-linejoin: miter; stroke-miterlimit: 4; fill: rgb(132,2,252); fill-rule: nonzero; opacity: 1;" vector-effect="non-scaling-stroke"  transform=" translate(-565, -631.43)" d="M 567.668 637.64 C 563.695 639.262 559.238 637.037 558.28 633.038 C 557.314 629.003 559.996 625.27 564.179 624.737 C 567.25 624.347 570.198 626.038 571.391 628.876 C 572.627 631.813 571.627 635.158 568.957 636.963 C 568.595 637.208 568.18 637.383 567.668 637.64 Z" stroke-linecap="round" />
</g>
		<g transform="matrix(1 0 0 1 -68.59 278.42)"  >
<path style="stroke: none; stroke-width: 1; stroke-dasharray: none; stroke-linecap: butt; stroke-dashoffset: 0; stroke-linejoin: miter; stroke-miterlimit: 4; fill: rgb(132,2,251); fill-rule: nonzero; opacity: 1;" vector-effect="non-scaling-stroke"  transform=" translate(-407.41, -631.42)" d="M 412.584 626.913 C 415.906 631.17 414.209 636.606 409.26 637.907 C 406.057 638.749 402.843 637.403 401.318 634.583 C 399.703 631.596 400.616 627.938 403.487 625.892 C 405.979 624.115 409.563 624.32 412.023 626.381 C 412.191 626.521 412.342 626.679 412.584 626.913 Z" stroke-linecap="round" />
</g>
		<g transform="matrix(1 0 0 1 51.51 258.73)"  >
<path style="stroke: none; stroke-width: 1; stroke-dasharray: none; stroke-linecap: butt; stroke-dashoffset: 0; stroke-linejoin: miter; stroke-miterlimit: 4; fill: rgb(133,1,252); fill-rule: nonzero; opacity: 1;" vector-effect="non-scaling-stroke"  transform=" translate(-527.51, -611.73)" d="M 520.616 612.326 C 520.535 609.299 521.722 607.023 524.511 605.693 C 526.786 604.607 529.096 604.753 531.235 606.079 C 534.015 607.802 535.099 611.046 533.985 614.061 C 532.909 616.972 530.018 618.743 526.793 618.466 C 523.629 618.195 521.247 615.868 520.616 612.326 Z" stroke-linecap="round" />
</g>
		<g transform="matrix(1 0 0 1 -149.92 258.77)"  >
<path style="stroke: none; stroke-width: 1; stroke-dasharray: none; stroke-linecap: butt; stroke-dashoffset: 0; stroke-linejoin: miter; stroke-miterlimit: 4; fill: rgb(132,2,252); fill-rule: nonzero; opacity: 1;" vector-effect="non-scaling-stroke"  transform=" translate(-326.08, -611.77)" d="M 332.983 612.345 C 331.959 616.837 328.527 619.237 324.584 618.347 C 321.003 617.538 318.774 614.38 319.229 610.759 C 319.629 607.577 322.63 605.033 326.007 605.013 C 329.621 604.992 332.579 607.57 332.975 611.099 C 333.016 611.466 332.99 611.839 332.983 612.345 Z" stroke-linecap="round" />
</g>
</g>
</g>
</svg>