<?xml version="1.0" encoding="UTF-8" standalone="no" ?>
<!DOCTYPE svg PUBLIC "-//W3C//DTD SVG 1.1//EN" "http://www.w3.org/Graphics/SVG/1.1/DTD/svg11.dtd">
<svg xmlns="http://www.w3.org/2000/svg" xmlns:xlink="http://www.w3.org/1999/xlink" version="1.1" width="1080" height="1080" viewBox="0 0 1080 1080" xml:space="preserve">
<desc>Created with Fabric.js 5.2.4</desc>
<defs>
</defs>
<rect x="0" y="0" width="100%" height="100%" fill="transparent"></rect>
<g transform="matrix(1 0 0 1 540 540)" id="40261c78-599d-48be-ba9c-4f17b56605f8"  >
<rect style="stroke: none; stroke-width: 1; stroke-dasharray: none; stroke-linecap: butt; stroke-dashoffset: 0; stroke-linejoin: miter; stroke-miterlimit: 4; fill: rgb(255,255,255); fill-rule: nonzero; opacity: 1; visibility: hidden;" vector-effect="non-scaling-stroke"  x="-540" y="-540" rx="0" ry="0" width="1080" height="1080" />
</g>
<g transform="matrix(1 0 0 1 540 540)" id="05ed3400-483a-4abf-808a-7a75f35731cc"  >
</g>
<g transform="matrix(1.85 0 0 1.85 540 540)"  >
<g style=""   >
		<g transform="matrix(1 0 0 1 0.43 -64.25)"  >
<path style="stroke: none; stroke-width: 1; stroke-dasharray: none; stroke-linecap: butt; stroke-dashoffset: 0; stroke-linejoin: miter; stroke-miterlimit: 4; fill: rgb(122,22,245); fill-rule: nonzero; opacity: 1;" vector-effect="non-scaling-stroke"  transform=" translate(-157.93, -213.75)" d="M 155.529 301.482 C 156.9 302.845 159.116 302.839 160.479 301.468 L 182.689 279.13 C 184.052 277.76 184.046 275.544 182.675 274.181 C 181.304 272.818 179.088 272.824 177.725 274.195 L 157.983 294.05 L 138.128 274.308 C 136.757 272.945 134.541 272.951 133.178 274.322 C 131.815 275.693 131.821 277.909 133.192 279.272 L 155.529 301.482 Z M 154 125.01 L 154.021 132.26 L 161.021 132.24 L 161 124.99 L 154 125.01 Z M 154.062 146.76 L 154.104 161.26 L 161.104 161.24 L 161.062 146.74 L 154.062 146.76 Z M 154.145 175.76 L 154.186 190.26 L 161.186 190.24 L 161.145 175.74 L 154.145 175.76 Z M 154.228 204.76 L 154.269 219.26 L 161.269 219.24 L 161.228 204.74 L 154.228 204.76 Z M 154.311 233.76 L 154.352 248.26 L 161.352 248.24 L 161.311 233.74 L 154.311 233.76 Z M 154.394 262.76 L 154.435 277.26 L 161.435 277.24 L 161.394 262.74 L 154.394 262.76 Z M 154.476 291.76 L 154.497 299.01 L 161.497 298.99 L 161.476 291.74 L 154.476 291.76 Z" stroke-linecap="round" />
</g>
		<g transform="matrix(1 0 0 1 -107.93 -184.96)"  >
<path style="stroke: none; stroke-width: 1; stroke-dasharray: none; stroke-linecap: butt; stroke-dashoffset: 0; stroke-linejoin: miter; stroke-miterlimit: 4; fill: rgb(250,250,250); fill-rule: nonzero; opacity: 1;" vector-effect="non-scaling-stroke"  transform=" translate(-49.57, -93.04)" d="M 38.5837 100.537 C 38.5837 93.5644 38.5837 86.6775 38.5837 79.7462 C 38.8853 79.7286 39.1296 79.7021 39.3739 79.7019 C 43.2566 79.6993 47.1411 79.634 51.0215 79.7196 C 54.5361 79.7972 57.5732 80.8643 59.345 83.8332 C 60.6189 85.9678 60.7396 88.2985 60.3568 90.6434 C 59.6076 95.2324 56.0358 97.4038 51.3594 97.6174 C 49.6045 97.6975 47.8414 97.6303 46.0202 97.6303 C 46.0202 100.612 46.0202 103.479 46.0202 106.399 C 43.5442 106.399 41.131 106.399 38.5837 106.399 C 38.5837 104.469 38.5837 102.546 38.5837 100.537 Z M 52.1783 90.5804 C 52.2952 90.3196 52.4423 90.0663 52.5239 89.7969 C 53.0985 87.9005 52.2444 85.9323 50.4912 85.5916 C 49.0504 85.3116 47.5273 85.3761 46.0396 85.2878 C 46.0396 87.6321 46.0396 89.7812 46.0396 91.9831 C 47.2137 91.9831 48.3464 92.0373 49.4696 91.9674 C 50.528 91.9015 51.4922 91.566 52.1783 90.5804 Z" stroke-linecap="round" />
</g>
		<g transform="matrix(1 0 0 1 24.81 -180.6)"  >
<path style="stroke: none; stroke-width: 1; stroke-dasharray: none; stroke-linecap: butt; stroke-dashoffset: 0; stroke-linejoin: miter; stroke-miterlimit: 4; fill: rgb(249,249,249); fill-rule: nonzero; opacity: 1;" vector-effect="non-scaling-stroke"  transform=" translate(-182.31, -97.4)" d="M 189.546 95.0736 C 190.483 92.9607 191.375 90.9022 192.326 88.8662 C 192.444 88.614 192.872 88.3251 193.164 88.3185 C 195.246 88.2716 197.331 88.2935 199.549 88.2935 C 198.865 89.7767 198.209 91.2023 197.55 92.6267 C 195.653 96.7271 193.756 100.827 191.857 104.927 C 191.688 105.292 191.563 105.688 191.314 106.003 C 191.138 106.226 190.794 106.462 190.512 106.475 C 189.41 106.529 188.298 106.44 187.199 106.517 C 186.403 106.572 186.148 106.283 185.921 105.645 C 184.868 102.688 183.745 99.7517 182.646 96.8084 C 182.567 96.5987 182.476 96.393 182.31 95.9888 C 182.128 96.419 182.002 96.6869 181.899 96.9615 C 180.777 99.9427 179.642 102.92 178.557 105.912 C 178.384 106.392 178.152 106.519 177.631 106.508 C 176.276 106.477 174.92 106.497 173.511 106.497 C 170.703 100.459 167.903 94.4382 165.073 88.3511 C 167.408 88.3511 169.691 88.3511 172.09 88.3511 C 173.283 91.0431 174.508 93.8042 175.81 96.7414 C 176.586 94.9175 177.3 93.2449 178.009 91.5704 C 178.356 90.7505 178.744 89.9407 179.017 89.1007 C 179.217 88.4837 179.527 88.2439 180.269 88.2758 C 181.687 88.3366 183.111 88.3197 184.531 88.2808 C 185.115 88.2648 185.352 88.4755 185.539 88.9435 C 186.475 91.2834 187.445 93.6122 188.413 95.9418 C 188.509 96.1745 188.668 96.3864 188.845 96.69 C 189.096 96.1116 189.307 95.6232 189.546 95.0736 Z" stroke-linecap="round" />
</g>
		<g transform="matrix(1 0 0 1 -3.73 -184.9)"  >
<path style="stroke: none; stroke-width: 1; stroke-dasharray: none; stroke-linecap: butt; stroke-dashoffset: 0; stroke-linejoin: miter; stroke-miterlimit: 4; fill: rgb(250,250,250); fill-rule: nonzero; opacity: 1;" vector-effect="non-scaling-stroke"  transform=" translate(-153.77, -93.1)" d="M 147.696 106.305 C 146.129 105.64 144.632 105.002 143.071 104.336 C 144.213 102.335 145.272 100.478 146.351 98.5878 C 148.248 100.176 150.433 101.08 152.964 101.267 C 153.305 101.292 153.659 101.27 153.997 101.218 C 155.266 101.021 156.333 100.11 156.528 99.0859 C 156.723 98.066 156.133 96.9859 154.871 96.4814 C 153.356 95.876 151.764 95.4306 150.213 94.8988 C 148.368 94.2666 146.658 93.4664 145.534 91.904 C 143.704 89.3605 144.005 84.9416 146.186 82.3258 C 147.576 80.6585 149.442 79.6661 151.666 79.2661 C 155.769 78.5284 159.568 79.4208 163.296 81.1572 C 162.288 82.9807 161.309 84.752 160.376 86.4411 C 159.109 85.9313 157.936 85.3074 156.669 85.0022 C 155.785 84.7892 154.753 84.9181 153.821 85.0671 C 152.819 85.2275 152.327 85.9341 152.218 86.8365 C 152.11 87.7348 152.54 88.4242 153.407 88.7882 C 154.566 89.2746 155.785 89.6422 156.974 90.0712 C 158.079 90.4698 159.233 90.7906 160.268 91.3051 C 163.585 92.9541 164.727 95.6448 164.422 98.9063 C 163.967 103.784 160.072 106.893 154.164 107.182 C 151.965 107.289 149.842 106.957 147.696 106.305 Z" stroke-linecap="round" />
</g>
		<g transform="matrix(1 0 0 1 109.74 -185.81)"  >
<path style="stroke: none; stroke-width: 1; stroke-dasharray: none; stroke-linecap: butt; stroke-dashoffset: 0; stroke-linejoin: miter; stroke-miterlimit: 4; fill: rgb(247,247,247); fill-rule: nonzero; opacity: 1;" vector-effect="non-scaling-stroke"  transform=" translate(-267.24, -92.19)" d="M 256.883 100.708 C 256.883 93.078 256.883 85.5337 256.883 77.9256 C 259.225 77.9256 261.511 77.9256 263.927 77.9256 C 263.927 81.9868 263.927 86.0599 263.927 90.3563 C 265.227 89.1777 266.52 88.4224 268.097 88.1509 C 270.928 87.6636 273.557 87.9567 275.705 89.8785 C 276.976 91.0155 277.539 92.4803 277.563 94.0435 C 277.627 98.0585 277.584 102.075 277.58 106.091 C 277.579 106.199 277.534 106.308 277.501 106.454 C 275.217 106.454 272.956 106.454 270.599 106.454 C 270.599 106.153 270.601 105.847 270.599 105.541 C 270.576 102.438 270.604 99.3348 270.514 96.2341 C 270.448 93.9227 269.238 92.915 266.999 93.1147 C 264.975 93.2953 263.959 94.4039 263.943 96.5391 C 263.92 99.5295 263.937 102.52 263.937 105.511 C 263.937 105.816 263.937 106.121 263.937 106.462 C 261.554 106.462 259.289 106.462 256.883 106.462 C 256.883 104.58 256.883 102.686 256.883 100.708 Z" stroke-linecap="round" />
</g>
		<g transform="matrix(1 0 0 1 -83.7 -180.57)"  >
<path style="stroke: none; stroke-width: 1; stroke-dasharray: none; stroke-linecap: butt; stroke-dashoffset: 0; stroke-linejoin: miter; stroke-miterlimit: 4; fill: rgb(249,249,249); fill-rule: nonzero; opacity: 1;" vector-effect="non-scaling-stroke"  transform=" translate(-73.8, -97.43)" d="M 85.6072 97.4431 C 85.4856 99.5146 84.9182 101.372 83.6114 103.02 C 81.6761 105.46 78.9586 106.724 75.7511 107.088 C 71.5839 107.561 67.7438 106.793 64.7948 103.903 C 59.3025 98.5203 62.2871 89.7808 70.1822 88.072 C 74.1755 87.2077 78.0096 87.542 81.4121 89.8167 C 84.2028 91.6824 85.4882 94.2698 85.6072 97.4431 Z M 78.1984 98.1292 C 78.4063 96.5929 77.9824 95.2328 76.6551 94.2167 C 74.8172 92.8098 72.3303 92.9209 70.6869 94.4149 C 69.0335 95.9179 68.8997 98.4619 70.3766 100.102 C 71.5163 101.367 72.9979 101.899 74.7342 101.528 C 76.6056 101.128 77.7442 99.9776 78.1984 98.1292 Z" stroke-linecap="round" />
</g>
		<g transform="matrix(1 0 0 1 -47.09 -180.82)"  >
<path style="stroke: none; stroke-width: 1; stroke-dasharray: none; stroke-linecap: butt; stroke-dashoffset: 0; stroke-linejoin: miter; stroke-miterlimit: 4; fill: rgb(250,250,250); fill-rule: nonzero; opacity: 1;" vector-effect="non-scaling-stroke"  transform=" translate(-110.41, -97.18)" d="M 120.637 106.44 C 118.325 106.487 116.089 106.487 113.721 106.487 C 113.721 106.142 113.721 105.841 113.72 105.54 C 113.711 102.522 113.702 99.5033 113.693 96.485 C 113.692 96.3995 113.697 96.3139 113.692 96.2287 C 113.567 94.1272 112.437 92.9771 110.544 93.0259 C 108.408 93.081 107.079 94.3458 107.065 96.3977 C 107.044 99.4163 107.059 102.435 107.059 105.454 C 107.059 105.765 107.059 106.076 107.059 106.442 C 104.734 106.442 102.448 106.442 100.103 106.442 C 100.103 100.429 100.103 94.4073 100.103 88.34 C 102.39 88.34 104.68 88.34 107.029 88.34 C 107.029 88.9772 107.029 89.5929 107.029 90.1812 C 108.056 89.5893 108.98 88.8351 110.065 88.4754 C 112.973 87.5113 115.821 87.6449 118.353 89.4604 C 119.9 90.5701 120.645 92.1202 120.68 93.841 C 120.764 98.0239 120.71 102.209 120.637 106.44 Z" stroke-linecap="round" />
</g>
		<g transform="matrix(1 0 0 1 85.47 -180.55)"  >
<path style="stroke: none; stroke-width: 1; stroke-dasharray: none; stroke-linecap: butt; stroke-dashoffset: 0; stroke-linejoin: miter; stroke-miterlimit: 4; fill: rgb(249,249,249); fill-rule: nonzero; opacity: 1;" vector-effect="non-scaling-stroke"  transform=" translate(-242.97, -97.45)" d="M 252.608 100.194 C 253.012 100.194 253.324 100.194 253.734 100.194 C 253.633 102.18 252.753 103.77 251.175 105.038 C 249.462 106.415 247.349 106.941 245.129 107.129 C 242.589 107.345 240.106 107.163 237.763 106.122 C 234.766 104.79 233.067 102.54 232.466 99.6811 C 231.644 95.7673 232.683 92.2959 236.128 89.6119 C 237.628 88.4436 239.482 87.9346 241.406 87.7694 C 244.208 87.5286 246.946 87.7681 249.397 89.2099 C 251.598 90.5046 252.844 92.3578 253.385 94.6918 C 251.312 94.6918 249.298 94.6918 247.199 94.6918 C 247 93.1008 245.905 92.2308 244.187 91.9625 C 241.861 91.5994 240.268 92.422 239.636 94.5614 C 238.989 96.7484 239.059 98.961 240.317 101.015 C 241.55 103.028 244.872 103.272 246.458 101.465 C 246.754 101.129 246.888 100.678 247.142 100.194 C 248.862 100.194 250.69 100.194 252.608 100.194 Z" stroke-linecap="round" />
</g>
		<g transform="matrix(1 0 0 1 60.95 -182.91)"  >
<path style="stroke: none; stroke-width: 1; stroke-dasharray: none; stroke-linecap: butt; stroke-dashoffset: 0; stroke-linejoin: miter; stroke-miterlimit: 4; fill: rgb(248,248,248); fill-rule: nonzero; opacity: 1;" vector-effect="non-scaling-stroke"  transform=" translate(-218.45, -95.09)" d="M 220.8 106.852 C 219.191 106.481 217.711 106.034 216.497 105.058 C 214.667 103.586 214.259 101.642 214.238 99.5743 C 214.218 97.726 214.234 95.8774 214.234 93.9437 C 213.502 93.9437 212.827 93.9437 212.112 93.9437 C 212.112 92.0441 212.112 90.2297 212.112 88.3208 C 212.778 88.3208 213.452 88.3208 214.214 88.3208 C 214.214 86.4773 214.214 84.7253 214.214 82.9287 C 216.596 82.9287 218.888 82.9287 221.286 82.9287 C 221.286 83.2419 221.286 83.5437 221.286 83.8455 C 221.286 88.6038 221.286 93.3621 221.286 98.1204 C 221.286 100.775 221.941 101.5 224.793 101.974 C 224.793 103.671 224.793 105.372 224.793 107.251 C 223.461 107.119 222.17 106.991 220.8 106.852 Z" stroke-linecap="round" />
</g>
		<g transform="matrix(1 0 0 1 -27.53 -182.95)"  >
<path style="stroke: none; stroke-width: 1; stroke-dasharray: none; stroke-linecap: butt; stroke-dashoffset: 0; stroke-linejoin: miter; stroke-miterlimit: 4; fill: rgb(250,250,250); fill-rule: nonzero; opacity: 1;" vector-effect="non-scaling-stroke"  transform=" translate(-129.97, -95.05)" d="M 125.824 87.362 C 125.824 85.8314 125.824 84.3858 125.824 82.9127 C 128.176 82.9127 130.442 82.9127 132.839 82.9127 C 132.839 83.199 132.839 83.4987 132.839 83.7984 C 132.839 88.6412 132.839 93.484 132.839 98.3267 C 132.839 100.759 133.614 101.579 136.301 101.959 C 136.301 103.677 136.301 105.398 136.301 107.181 C 133.901 107.126 131.587 106.959 129.477 105.949 C 126.947 104.737 125.852 102.735 125.828 100.21 C 125.81 98.4159 125.824 96.6212 125.824 94.8265 C 125.824 94.548 125.824 94.2696 125.824 93.932 C 125.066 93.932 124.381 93.932 123.637 93.932 C 123.637 92.0396 123.637 90.2064 123.637 88.3215 C 124.34 88.3215 125.027 88.3215 125.824 88.3215 C 125.824 87.9963 125.824 87.7217 125.824 87.362 Z" stroke-linecap="round" />
</g>
		<g transform="matrix(1 0 0 1 47.9 -180.62)"  >
<path style="stroke: none; stroke-width: 1; stroke-dasharray: none; stroke-linecap: butt; stroke-dashoffset: 0; stroke-linejoin: miter; stroke-miterlimit: 4; fill: rgb(249,249,249); fill-rule: nonzero; opacity: 1;" vector-effect="non-scaling-stroke"  transform=" translate(-205.4, -97.38)" d="M 207.854 88.3161 C 208.225 88.3161 208.508 88.3161 208.853 88.3161 C 208.853 94.3601 208.853 100.377 208.853 106.45 C 206.583 106.45 204.3 106.45 201.955 106.45 C 201.955 100.454 201.955 94.4364 201.955 88.3161 C 203.876 88.3161 205.821 88.3161 207.854 88.3161 Z" stroke-linecap="round" />
</g>
		<g transform="matrix(1 0 0 1 -65.14 -180.59)"  >
<path style="stroke: none; stroke-width: 1; stroke-dasharray: none; stroke-linecap: butt; stroke-dashoffset: 0; stroke-linejoin: miter; stroke-miterlimit: 4; fill: rgb(250,250,250); fill-rule: nonzero; opacity: 1;" vector-effect="non-scaling-stroke"  transform=" translate(-92.36, -97.41)" d="M 95.8467 105.14 C 95.8467 105.618 95.8467 106.013 95.8467 106.456 C 93.5099 106.456 91.2231 106.456 88.8816 106.456 C 88.8816 100.427 88.8816 94.4057 88.8816 88.3599 C 91.2027 88.3599 93.4955 88.3599 95.8467 88.3599 C 95.8467 93.9542 95.8467 99.5055 95.8467 105.14 Z" stroke-linecap="round" />
</g>
		<g transform="matrix(1 0 0 1 68.99 -186.08)"  >
<path style="stroke: none; stroke-width: 1; stroke-dasharray: none; stroke-linecap: butt; stroke-dashoffset: 0; stroke-linejoin: miter; stroke-miterlimit: 4; fill: rgb(132,2,252); fill-rule: nonzero; opacity: 1;" vector-effect="non-scaling-stroke"  transform=" translate(-226.49, -91.92)" d="M 227.985 95.2623 C 225.755 96.1341 223.253 94.9384 222.715 92.7893 C 222.172 90.6205 223.678 88.6144 226.027 88.3282 C 227.751 88.1182 229.406 89.0273 230.076 90.5522 C 230.769 92.1307 230.208 93.9284 228.709 94.8982 C 228.506 95.0299 228.273 95.1243 227.985 95.2623 Z" stroke-linecap="round" />
</g>
		<g transform="matrix(1 0 0 1 -19.49 -186.08)"  >
<path style="stroke: none; stroke-width: 1; stroke-dasharray: none; stroke-linecap: butt; stroke-dashoffset: 0; stroke-linejoin: miter; stroke-miterlimit: 4; fill: rgb(132,2,251); fill-rule: nonzero; opacity: 1;" vector-effect="non-scaling-stroke"  transform=" translate(-138.01, -91.92)" d="M 140.915 89.4976 C 142.78 91.785 141.827 94.7063 139.048 95.4056 C 137.251 95.8581 135.446 95.1351 134.59 93.6195 C 133.683 92.0139 134.195 90.0484 135.807 88.9486 C 137.207 87.9939 139.219 88.1036 140.6 89.2114 C 140.694 89.287 140.779 89.3719 140.915 89.4976 Z" stroke-linecap="round" />
</g>
		<g transform="matrix(1 0 0 1 47.94 -196.66)"  >
<path style="stroke: none; stroke-width: 1; stroke-dasharray: none; stroke-linecap: butt; stroke-dashoffset: 0; stroke-linejoin: miter; stroke-miterlimit: 4; fill: rgb(133,1,252); fill-rule: nonzero; opacity: 1;" vector-effect="non-scaling-stroke"  transform=" translate(-205.44, -81.34)" d="M 201.569 81.6579 C 201.523 80.0314 202.189 78.8085 203.755 78.0932 C 205.032 77.5099 206.329 77.5881 207.53 78.3008 C 209.091 79.2272 209.7 80.9703 209.074 82.5904 C 208.47 84.1548 206.847 85.1067 205.036 84.9581 C 203.26 84.8123 201.923 83.5617 201.569 81.6579 Z" stroke-linecap="round" />
</g>
		<g transform="matrix(1 0 0 1 -65.15 -196.64)"  >
<path style="stroke: none; stroke-width: 1; stroke-dasharray: none; stroke-linecap: butt; stroke-dashoffset: 0; stroke-linejoin: miter; stroke-miterlimit: 4; fill: rgb(132,2,252); fill-rule: nonzero; opacity: 1;" vector-effect="non-scaling-stroke"  transform=" translate(-92.35, -81.36)" d="M 96.2237 81.6685 C 95.6486 84.0823 93.7216 85.3722 91.508 84.8937 C 89.4972 84.4591 88.2458 82.762 88.5015 80.8163 C 88.7262 79.106 90.4111 77.7388 92.307 77.7282 C 94.3362 77.7168 95.9965 79.1022 96.219 80.9987 C 96.2421 81.1959 96.2272 81.3966 96.2237 81.6685 Z" stroke-linecap="round" />
</g>
		<g transform="matrix(1 0 0 1 -3.63 -258.41)"  >
<path style="stroke: none; stroke-width: 1; stroke-dasharray: none; stroke-linecap: butt; stroke-dashoffset: 0; stroke-linejoin: miter; stroke-miterlimit: 4; fill: rgb(122,22,245); fill-rule: nonzero; opacity: 1;" vector-effect="non-scaling-stroke"  transform=" translate(-153.87, -19.59)" d="M 124.18 28.6724 L 114.563 21.922 L 205.736 21.922 L 205.736 17.3349 L 114.456 17.3349 L 124.18 10.5095 L 119.559 7.2658 L 102 19.5908 L 119.559 31.9159 L 124.18 28.6724 Z" stroke-linecap="round" />
</g>
		<g transform="matrix(1 0 0 1 -3.37 -224.59)"  >
<path style="stroke: none; stroke-width: 1; stroke-dasharray: none; stroke-linecap: butt; stroke-dashoffset: 0; stroke-linejoin: miter; stroke-miterlimit: 4; fill: rgb(122,22,245); fill-rule: nonzero; opacity: 1;" vector-effect="non-scaling-stroke"  transform=" translate(-154.13, -53.41)" d="M 188.441 41.0841 L 183.82 44.3276 L 193.49 51.1156 L 102.264 51.1156 L 102.264 55.7027 L 193.49 55.7027 L 183.82 62.4905 L 188.441 65.7341 L 206 53.4092 L 188.441 41.0841 Z" stroke-linecap="round" />
</g>
		<g transform="matrix(1 0 0 1 0 155)"  >
<path style="stroke: rgb(237,237,237); stroke-width: 5; stroke-dasharray: none; stroke-linecap: round; stroke-dashoffset: 0; stroke-linejoin: round; stroke-miterlimit: 4; fill: none; fill-rule: nonzero; opacity: 1;" vector-effect="non-scaling-stroke"  transform=" translate(-157.5, -433)" d="M 273.375 440.5 C 273.375 419.8 290.679 403 312 403 L 312 388 C 312 328 296.55 313 234.75 313 L 80.25 313 C 18.45 313 3 328 3 388 L 3 395.5 C 24.321 395.5 41.625 412.3 41.625 433 C 41.625 453.7 24.321 470.5 3 470.5 L 3 478 C 3 538 18.45 553 80.25 553 L 234.75 553 C 296.55 553 312 538 312 478 C 290.679 478 273.375 461.2 273.375 440.5 Z" stroke-linecap="round" />
</g>
		<g transform="matrix(1 0 0 1 -0.41 154.1)"  >
<path style="stroke: none; stroke-width: 1; stroke-dasharray: none; stroke-linecap: butt; stroke-dashoffset: 0; stroke-linejoin: miter; stroke-miterlimit: 4; fill: rgb(255,255,255); fill-rule: nonzero; opacity: 1;" vector-effect="non-scaling-stroke"  transform=" translate(-157.09, -432.1)" d="M 117.654 374.818 L 123.854 374.818 L 129.824 386.094 L 130.08 386.094 L 136.05 374.818 L 142.25 374.818 L 132.7 391.744 L 132.7 401 L 127.203 401 L 127.203 391.744 L 117.654 374.818 Z M 149.93 401.384 C 147.944 401.384 146.227 400.962 144.778 400.118 C 143.338 399.266 142.226 398.081 141.442 396.564 C 140.657 395.038 140.265 393.27 140.265 391.259 C 140.265 389.23 140.657 387.457 141.442 385.94 C 142.226 384.415 143.338 383.23 144.778 382.386 C 146.227 381.534 147.944 381.108 149.93 381.108 C 151.916 381.108 153.629 381.534 155.069 382.386 C 156.518 383.23 157.635 384.415 158.419 385.94 C 159.203 387.457 159.595 389.23 159.595 391.259 C 159.595 393.27 159.203 395.038 158.419 396.564 C 157.635 398.081 156.518 399.266 155.069 400.118 C 153.629 400.962 151.916 401.384 149.93 401.384 Z M 149.956 397.165 C 150.859 397.165 151.613 396.909 152.219 396.398 C 152.824 395.878 153.28 395.17 153.586 394.276 C 153.902 393.381 154.059 392.362 154.059 391.22 C 154.059 390.078 153.902 389.06 153.586 388.165 C 153.28 387.27 152.824 386.562 152.219 386.043 C 151.613 385.523 150.859 385.263 149.956 385.263 C 149.044 385.263 148.277 385.523 147.655 386.043 C 147.041 386.562 146.577 387.27 146.261 388.165 C 145.954 389.06 145.801 390.078 145.801 391.22 C 145.801 392.362 145.954 393.381 146.261 394.276 C 146.577 395.17 147.041 395.878 147.655 396.398 C 148.277 396.909 149.044 397.165 149.956 397.165 Z M 175.729 392.639 L 175.729 381.364 L 181.175 381.364 L 181.175 401 L 175.946 401 L 175.946 397.433 L 175.741 397.433 C 175.298 398.584 174.561 399.509 173.53 400.207 C 172.507 400.906 171.258 401.256 169.784 401.256 C 168.471 401.256 167.317 400.957 166.319 400.361 C 165.322 399.764 164.542 398.916 163.98 397.817 C 163.426 396.717 163.145 395.401 163.136 393.866 L 163.136 381.364 L 168.582 381.364 L 168.582 392.895 C 168.591 394.054 168.902 394.97 169.515 395.643 C 170.129 396.317 170.952 396.653 171.983 396.653 C 172.639 396.653 173.253 396.504 173.824 396.206 C 174.395 395.899 174.855 395.447 175.204 394.851 C 175.562 394.254 175.737 393.517 175.729 392.639 Z M 185.531 401 L 185.531 381.364 L 190.811 381.364 L 190.811 384.79 L 191.015 384.79 C 191.373 383.571 191.974 382.651 192.818 382.028 C 193.661 381.398 194.633 381.082 195.732 381.082 C 196.005 381.082 196.299 381.099 196.615 381.134 C 196.93 381.168 197.207 381.214 197.445 381.274 L 197.445 386.107 C 197.19 386.03 196.836 385.962 196.384 385.902 C 195.933 385.842 195.519 385.812 195.144 385.812 C 194.343 385.812 193.627 385.987 192.997 386.337 C 192.374 386.678 191.88 387.155 191.514 387.768 C 191.156 388.382 190.977 389.089 190.977 389.891 L 190.977 401 L 185.531 401 Z M 95.6681 445 L 95.6681 418.818 L 101.204 418.818 L 101.204 440.436 L 112.428 440.436 L 112.428 445 L 95.6681 445 Z M 124.864 445.384 C 122.878 445.384 121.161 444.962 119.712 444.118 C 118.271 443.266 117.159 442.081 116.375 440.564 C 115.591 439.038 115.199 437.27 115.199 435.259 C 115.199 433.23 115.591 431.457 116.375 429.94 C 117.159 428.415 118.271 427.23 119.712 426.386 C 121.161 425.534 122.878 425.108 124.864 425.108 C 126.85 425.108 128.563 425.534 130.003 426.386 C 131.452 427.23 132.568 428.415 133.352 429.94 C 134.137 431.457 134.529 433.23 134.529 435.259 C 134.529 437.27 134.137 439.038 133.352 440.564 C 132.568 442.081 131.452 443.266 130.003 444.118 C 128.563 444.962 126.85 445.384 124.864 445.384 Z M 124.889 441.165 C 125.793 441.165 126.547 440.909 127.152 440.398 C 127.757 439.878 128.213 439.17 128.52 438.276 C 128.835 437.381 128.993 436.362 128.993 435.22 C 128.993 434.078 128.835 433.06 128.52 432.165 C 128.213 431.27 127.757 430.562 127.152 430.043 C 126.547 429.523 125.793 429.263 124.889 429.263 C 123.977 429.263 123.21 429.523 122.588 430.043 C 121.975 430.562 121.51 431.27 121.195 432.165 C 120.888 433.06 120.735 434.078 120.735 435.22 C 120.735 436.362 120.888 437.381 121.195 438.276 C 121.51 439.17 121.975 439.878 122.588 440.398 C 123.21 440.909 123.977 441.165 124.889 441.165 Z M 140.799 452.364 C 140.109 452.364 139.461 452.308 138.856 452.197 C 138.259 452.095 137.765 451.963 137.373 451.801 L 138.6 447.736 C 139.24 447.932 139.815 448.038 140.326 448.055 C 140.846 448.072 141.294 447.953 141.669 447.697 C 142.052 447.442 142.363 447.007 142.602 446.393 L 142.921 445.562 L 135.877 425.364 L 141.605 425.364 L 145.67 439.784 L 145.874 439.784 L 149.978 425.364 L 155.744 425.364 L 148.112 447.122 C 147.745 448.179 147.247 449.099 146.616 449.884 C 145.994 450.676 145.205 451.286 144.251 451.712 C 143.296 452.146 142.146 452.364 140.799 452.364 Z M 163.603 445.371 C 162.35 445.371 161.233 445.153 160.253 444.719 C 159.273 444.276 158.498 443.624 157.927 442.763 C 157.364 441.893 157.083 440.811 157.083 439.516 C 157.083 438.425 157.283 437.509 157.684 436.767 C 158.084 436.026 158.63 435.429 159.32 434.977 C 160.01 434.526 160.795 434.185 161.672 433.955 C 162.559 433.724 163.488 433.562 164.459 433.469 C 165.601 433.349 166.522 433.239 167.221 433.136 C 167.92 433.026 168.427 432.864 168.742 432.651 C 169.057 432.437 169.215 432.122 169.215 431.705 L 169.215 431.628 C 169.215 430.818 168.959 430.192 168.448 429.749 C 167.945 429.305 167.229 429.084 166.3 429.084 C 165.32 429.084 164.54 429.301 163.961 429.736 C 163.381 430.162 162.998 430.699 162.81 431.347 L 157.773 430.938 C 158.029 429.744 158.532 428.713 159.282 427.844 C 160.032 426.966 160.999 426.293 162.184 425.824 C 163.377 425.347 164.758 425.108 166.326 425.108 C 167.417 425.108 168.461 425.236 169.458 425.491 C 170.464 425.747 171.354 426.143 172.13 426.68 C 172.914 427.217 173.532 427.908 173.983 428.751 C 174.435 429.587 174.661 430.588 174.661 431.756 L 174.661 445 L 169.496 445 L 169.496 442.277 L 169.343 442.277 C 169.028 442.891 168.606 443.432 168.077 443.901 C 167.549 444.361 166.914 444.723 166.172 444.987 C 165.431 445.243 164.574 445.371 163.603 445.371 Z M 165.162 441.612 C 165.964 441.612 166.671 441.455 167.285 441.139 C 167.898 440.815 168.38 440.381 168.729 439.835 C 169.079 439.29 169.253 438.672 169.253 437.982 L 169.253 435.898 C 169.083 436.009 168.849 436.111 168.55 436.205 C 168.26 436.29 167.932 436.371 167.566 436.447 C 167.199 436.516 166.833 436.58 166.466 436.639 C 166.1 436.69 165.768 436.737 165.469 436.78 C 164.83 436.874 164.272 437.023 163.795 437.227 C 163.317 437.432 162.947 437.709 162.682 438.058 C 162.418 438.399 162.286 438.825 162.286 439.337 C 162.286 440.078 162.555 440.645 163.091 441.037 C 163.637 441.42 164.327 441.612 165.162 441.612 Z M 184.332 418.818 L 184.332 445 L 178.886 445 L 178.886 418.818 L 184.332 418.818 Z M 199.139 425.364 L 199.139 429.455 L 187.314 429.455 L 187.314 425.364 L 199.139 425.364 Z M 189.999 420.659 L 195.445 420.659 L 195.445 438.966 C 195.445 439.469 195.521 439.861 195.675 440.142 C 195.828 440.415 196.041 440.607 196.314 440.717 C 196.595 440.828 196.919 440.884 197.286 440.884 C 197.541 440.884 197.797 440.862 198.053 440.82 C 198.308 440.768 198.504 440.73 198.641 440.705 L 199.497 444.757 C 199.225 444.842 198.841 444.94 198.347 445.051 C 197.852 445.17 197.252 445.243 196.544 445.268 C 195.232 445.32 194.081 445.145 193.093 444.744 C 192.112 444.344 191.35 443.722 190.804 442.878 C 190.259 442.034 189.99 440.969 189.999 439.682 L 189.999 420.659 Z M 206.049 452.364 C 205.359 452.364 204.711 452.308 204.106 452.197 C 203.509 452.095 203.015 451.963 202.623 451.801 L 203.85 447.736 C 204.49 447.932 205.065 448.038 205.576 448.055 C 206.096 448.072 206.544 447.953 206.919 447.697 C 207.302 447.442 207.613 447.007 207.852 446.393 L 208.171 445.562 L 201.127 425.364 L 206.855 425.364 L 210.92 439.784 L 211.124 439.784 L 215.228 425.364 L 220.994 425.364 L 213.362 447.122 C 212.995 448.179 212.497 449.099 211.866 449.884 C 211.244 450.676 210.455 451.286 209.501 451.712 C 208.546 452.146 207.396 452.364 206.049 452.364 Z M 104.627 474.963 L 99.6408 475.27 C 99.5556 474.844 99.3723 474.46 99.0911 474.119 C 98.8098 473.77 98.4391 473.493 97.9789 473.288 C 97.5272 473.075 96.986 472.969 96.3553 472.969 C 95.5115 472.969 94.7999 473.148 94.2203 473.506 C 93.6408 473.855 93.351 474.324 93.351 474.912 C 93.351 475.381 93.5385 475.777 93.9135 476.101 C 94.2885 476.425 94.932 476.685 95.8439 476.881 L 99.3979 477.597 C 101.307 477.989 102.73 478.619 103.668 479.489 C 104.605 480.358 105.074 481.5 105.074 482.915 C 105.074 484.202 104.695 485.331 103.936 486.303 C 103.186 487.274 102.155 488.033 100.843 488.578 C 99.5385 489.115 98.0343 489.384 96.3297 489.384 C 93.7303 489.384 91.6593 488.842 90.1167 487.76 C 88.5826 486.669 87.6834 485.186 87.4192 483.311 L 92.7757 483.03 C 92.9377 483.822 93.3297 484.428 93.9519 484.845 C 94.574 485.254 95.3709 485.459 96.3425 485.459 C 97.2971 485.459 98.0641 485.276 98.6436 484.909 C 99.2317 484.534 99.53 484.053 99.5385 483.464 C 99.53 482.97 99.3212 482.565 98.9121 482.25 C 98.503 481.926 97.8723 481.679 97.0201 481.509 L 93.6195 480.831 C 91.7019 480.447 90.2743 479.783 89.3368 478.837 C 88.4078 477.891 87.9434 476.685 87.9434 475.219 C 87.9434 473.957 88.2843 472.871 88.9661 471.959 C 89.6564 471.047 90.6238 470.344 91.8681 469.849 C 93.1209 469.355 94.5868 469.108 96.2658 469.108 C 98.7459 469.108 100.698 469.632 102.121 470.68 C 103.553 471.729 104.388 473.156 104.627 474.963 Z M 117.376 489.384 C 115.39 489.384 113.672 488.962 112.224 488.118 C 110.783 487.266 109.671 486.081 108.887 484.564 C 108.103 483.038 107.711 481.27 107.711 479.259 C 107.711 477.23 108.103 475.457 108.887 473.94 C 109.671 472.415 110.783 471.23 112.224 470.386 C 113.672 469.534 115.39 469.108 117.376 469.108 C 119.361 469.108 121.074 469.534 122.515 470.386 C 123.964 471.23 125.08 472.415 125.864 473.94 C 126.648 475.457 127.04 477.23 127.04 479.259 C 127.04 481.27 126.648 483.038 125.864 484.564 C 125.08 486.081 123.964 487.266 122.515 488.118 C 121.074 488.962 119.361 489.384 117.376 489.384 Z M 117.401 485.165 C 118.305 485.165 119.059 484.909 119.664 484.398 C 120.269 483.878 120.725 483.17 121.032 482.276 C 121.347 481.381 121.505 480.362 121.505 479.22 C 121.505 478.078 121.347 477.06 121.032 476.165 C 120.725 475.27 120.269 474.562 119.664 474.043 C 119.059 473.523 118.305 473.263 117.401 473.263 C 116.489 473.263 115.722 473.523 115.1 474.043 C 114.486 474.562 114.022 475.27 113.706 476.165 C 113.4 477.06 113.246 478.078 113.246 479.22 C 113.246 480.362 113.4 481.381 113.706 482.276 C 114.022 483.17 114.486 483.878 115.1 484.398 C 115.722 484.909 116.489 485.165 117.401 485.165 Z M 136.028 462.818 L 136.028 489 L 130.581 489 L 130.581 462.818 L 136.028 462.818 Z M 152.982 480.639 L 152.982 469.364 L 158.428 469.364 L 158.428 489 L 153.2 489 L 153.2 485.433 L 152.995 485.433 C 152.552 486.584 151.815 487.509 150.784 488.207 C 149.761 488.906 148.512 489.256 147.038 489.256 C 145.725 489.256 144.57 488.957 143.573 488.361 C 142.576 487.764 141.796 486.916 141.234 485.817 C 140.68 484.717 140.399 483.401 140.39 481.866 L 140.39 469.364 L 145.836 469.364 L 145.836 480.895 C 145.845 482.054 146.156 482.97 146.769 483.643 C 147.383 484.317 148.205 484.653 149.237 484.653 C 149.893 484.653 150.507 484.504 151.078 484.206 C 151.649 483.899 152.109 483.447 152.458 482.851 C 152.816 482.254 152.991 481.517 152.982 480.639 Z M 173.229 469.364 L 173.229 473.455 L 161.404 473.455 L 161.404 469.364 L 173.229 469.364 Z M 164.089 464.659 L 169.535 464.659 L 169.535 482.966 C 169.535 483.469 169.611 483.861 169.765 484.142 C 169.918 484.415 170.131 484.607 170.404 484.717 C 170.685 484.828 171.009 484.884 171.376 484.884 C 171.631 484.884 171.887 484.862 172.143 484.82 C 172.398 484.768 172.594 484.73 172.731 484.705 L 173.587 488.757 C 173.314 488.842 172.931 488.94 172.437 489.051 C 171.942 489.17 171.341 489.243 170.634 489.268 C 169.322 489.32 168.171 489.145 167.182 488.744 C 166.202 488.344 165.439 487.722 164.894 486.878 C 164.349 486.034 164.08 484.969 164.089 483.682 L 164.089 464.659 Z M 176.777 489 L 176.777 469.364 L 182.223 469.364 L 182.223 489 L 176.777 489 Z M 179.513 466.832 C 178.703 466.832 178.008 466.564 177.429 466.027 C 176.858 465.482 176.572 464.83 176.572 464.071 C 176.572 463.321 176.858 462.678 177.429 462.141 C 178.008 461.595 178.703 461.322 179.513 461.322 C 180.322 461.322 181.013 461.595 181.584 462.141 C 182.163 462.678 182.453 463.321 182.453 464.071 C 182.453 464.83 182.163 465.482 181.584 466.027 C 181.013 466.564 180.322 466.832 179.513 466.832 Z M 195.458 489.384 C 193.472 489.384 191.754 488.962 190.306 488.118 C 188.865 487.266 187.753 486.081 186.969 484.564 C 186.185 483.038 185.793 481.27 185.793 479.259 C 185.793 477.23 186.185 475.457 186.969 473.94 C 187.753 472.415 188.865 471.23 190.306 470.386 C 191.754 469.534 193.472 469.108 195.458 469.108 C 197.443 469.108 199.156 469.534 200.597 470.386 C 202.046 471.23 203.162 472.415 203.946 473.94 C 204.73 475.457 205.122 477.23 205.122 479.259 C 205.122 481.27 204.73 483.038 203.946 484.564 C 203.162 486.081 202.046 487.266 200.597 488.118 C 199.156 488.962 197.443 489.384 195.458 489.384 Z M 195.483 485.165 C 196.387 485.165 197.141 484.909 197.746 484.398 C 198.351 483.878 198.807 483.17 199.114 482.276 C 199.429 481.381 199.587 480.362 199.587 479.22 C 199.587 478.078 199.429 477.06 199.114 476.165 C 198.807 475.27 198.351 474.562 197.746 474.043 C 197.141 473.523 196.387 473.263 195.483 473.263 C 194.571 473.263 193.804 473.523 193.182 474.043 C 192.568 474.562 192.104 475.27 191.789 476.165 C 191.482 477.06 191.328 478.078 191.328 479.22 C 191.328 480.362 191.482 481.381 191.789 482.276 C 192.104 483.17 192.568 483.878 193.182 484.398 C 193.804 484.909 194.571 485.165 195.483 485.165 Z M 214.11 477.648 L 214.11 489 L 208.664 489 L 208.664 469.364 L 213.854 469.364 L 213.854 472.828 L 214.084 472.828 C 214.519 471.686 215.247 470.783 216.27 470.118 C 217.293 469.445 218.533 469.108 219.99 469.108 C 221.354 469.108 222.543 469.406 223.557 470.003 C 224.571 470.599 225.36 471.452 225.922 472.56 C 226.485 473.659 226.766 474.972 226.766 476.497 L 226.766 489 L 221.32 489 L 221.32 477.469 C 221.328 476.267 221.021 475.33 220.399 474.656 C 219.777 473.974 218.921 473.634 217.83 473.634 C 217.097 473.634 216.449 473.791 215.887 474.107 C 215.333 474.422 214.898 474.882 214.583 475.487 C 214.276 476.084 214.118 476.804 214.11 477.648 Z" stroke-linecap="round" />
</g>
</g>
</g>
</svg>