<?xml version="1.0" encoding="UTF-8" standalone="no" ?>
<!DOCTYPE svg PUBLIC "-//W3C//DTD SVG 1.1//EN" "http://www.w3.org/Graphics/SVG/1.1/DTD/svg11.dtd">
<svg xmlns="http://www.w3.org/2000/svg" xmlns:xlink="http://www.w3.org/1999/xlink" version="1.1" width="1080" height="1080" viewBox="0 0 1080 1080" xml:space="preserve">
<desc>Created with Fabric.js 5.2.4</desc>
<defs>
</defs>
<rect x="0" y="0" width="100%" height="100%" fill="transparent"></rect>
<g transform="matrix(1 0 0 1 540 540)" id="05a30473-ba3d-442b-bda3-5679aae44cdc"  >
<rect style="stroke: none; stroke-width: 1; stroke-dasharray: none; stroke-linecap: butt; stroke-dashoffset: 0; stroke-linejoin: miter; stroke-miterlimit: 4; fill: rgb(255,255,255); fill-rule: nonzero; opacity: 1; visibility: hidden;" vector-effect="non-scaling-stroke"  x="-540" y="-540" rx="0" ry="0" width="1080" height="1080" />
</g>
<g transform="matrix(1 0 0 1 540 540)" id="802c676c-f0d3-4d9e-8685-e031ca4b3aec"  >
</g>
<g transform="matrix(NaN NaN NaN NaN 0 0)"  >
<g style=""   >
</g>
</g>
<g transform="matrix(NaN NaN NaN NaN 0 0)"  >
<g style=""   >
</g>
</g>
<g transform="matrix(NaN NaN NaN NaN 0 0)"  >
<g style=""   >
</g>
</g>
<g transform="matrix(NaN NaN NaN NaN 0 0)"  >
<g style=""   >
</g>
</g>
<g transform="matrix(1.63 0 0 1.63 540 540)"  >
<g style=""   >
		<g transform="matrix(1 0 0 1 245.5 -7)"  >
<path style="stroke: none; stroke-width: 1; stroke-dasharray: none; stroke-linecap: butt; stroke-dashoffset: 0; stroke-linejoin: miter; stroke-miterlimit: 4; fill: rgb(255,255,255); fill-rule: evenodd; opacity: 1;" vector-effect="non-scaling-stroke"  transform=" translate(-576.5, -70)" d="M 620.761 109.819 L 621.987 109.819 L 621.987 118.848 L 614.493 112.014 L 614.493 118.512 L 613.232 118.512 L 613.232 109.391 L 620.761 116.255 L 620.761 109.819 Z M 585.535 109.819 L 585.535 115.34 C 585.535 116.315 585.219 117.108 584.588 117.719 C 583.924 118.39 583.013 118.695 581.857 118.695 C 580.772 118.695 579.862 118.39 579.196 117.719 C 578.531 117.108 578.215 116.315 578.215 115.34 L 578.215 109.819 L 579.477 109.819 L 579.477 114.973 C 579.477 116.773 580.247 117.689 581.857 117.689 C 583.503 117.689 584.309 116.773 584.309 114.973 L 584.309 109.819 L 585.535 109.819 Z M 589.386 109.819 L 595.374 109.819 L 595.374 110.826 L 592.993 110.826 L 592.993 118.512 L 591.803 118.512 L 591.803 110.826 L 589.386 110.826 L 589.386 109.819 Z M 587.216 109.819 L 588.476 109.819 L 588.476 118.512 L 587.216 118.512 L 587.216 109.819 Z M 576.185 109.819 L 577.551 109.819 L 573.208 119 L 568.866 109.819 L 570.232 109.819 L 573.209 116.255 L 576.185 109.819 Z M 610.921 114.18 C 610.921 115.156 610.536 115.98 609.731 116.682 C 608.996 117.353 608.05 117.688 606.964 117.688 C 605.878 117.688 604.933 117.353 604.128 116.682 C 603.322 115.98 602.937 115.156 602.937 114.18 C 602.937 113.204 603.287 112.381 604.058 111.71 C 604.828 111.009 605.809 110.673 606.964 110.673 C 608.119 110.673 609.065 111.009 609.8 111.71 C 610.536 112.381 610.921 113.204 610.921 114.18 Z M 610.641 110.978 C 609.592 110.093 608.365 109.636 606.964 109.636 C 605.529 109.636 604.304 110.093 603.253 110.978 C 602.238 111.862 601.712 112.93 601.712 114.18 C 601.712 115.461 602.238 116.529 603.253 117.413 C 604.268 118.267 605.494 118.695 606.964 118.695 C 608.401 118.695 609.661 118.267 610.641 117.413 C 611.657 116.529 612.182 115.461 612.182 114.18 C 612.183 112.93 611.658 111.862 610.641 110.978 Z M 601.432 109.819 L 601.432 110.826 L 599.086 110.826 L 599.086 118.512 L 597.825 118.512 L 597.825 110.826 L 595.445 110.826 L 595.445 109.819 L 601.432 109.819 Z M 543.514 111.71 C 544.249 112.381 544.599 113.204 544.599 114.18 C 544.599 115.156 544.214 115.98 543.444 116.682 C 542.674 117.353 541.728 117.688 540.642 117.688 C 539.557 117.688 538.611 117.353 537.806 116.682 C 537.071 115.98 536.651 115.156 536.651 114.18 C 536.651 113.204 537.036 112.381 537.771 111.71 C 538.542 111.009 539.488 110.673 540.643 110.673 C 541.798 110.673 542.779 111.009 543.514 111.71 Z M 544.32 110.978 C 543.269 110.093 542.043 109.636 540.643 109.636 C 539.207 109.636 537.947 110.093 536.966 110.978 C 535.916 111.862 535.391 112.93 535.391 114.18 C 535.391 115.461 535.916 116.529 536.966 117.413 C 537.947 118.267 539.173 118.695 540.643 118.695 C 542.114 118.695 543.339 118.267 544.32 117.413 C 545.37 116.529 545.86 115.461 545.86 114.18 C 545.86 112.93 545.37 111.862 544.32 110.978 Z M 548.136 114.973 C 548.136 116.773 548.942 117.688 550.553 117.688 C 552.129 117.688 552.969 116.773 552.969 114.973 L 552.969 109.819 L 554.194 109.819 L 554.194 115.339 C 554.194 116.315 553.879 117.108 553.214 117.719 C 552.549 118.39 551.638 118.695 550.553 118.695 C 549.432 118.695 548.557 118.39 547.892 117.719 C 547.191 117.108 546.877 116.315 546.877 115.339 L 546.877 109.819 L 548.137 109.819 L 548.136 114.973 Z M 532.238 109.819 L 532.238 117.536 L 535.285 117.536 L 535.285 118.512 L 531.013 118.512 L 531.013 109.819 L 532.238 109.819 L 532.238 109.819 Z M 562.248 113.387 C 563.929 113.966 564.734 114.82 564.734 115.98 C 564.734 116.773 564.419 117.413 563.789 117.932 C 563.194 118.451 562.458 118.695 561.583 118.695 C 560.777 118.695 560.077 118.481 559.482 117.993 C 558.922 117.536 558.572 116.956 558.466 116.255 L 559.727 116.011 C 559.727 116.499 559.902 116.895 560.287 117.231 C 560.673 117.536 561.093 117.688 561.653 117.688 C 562.179 117.688 562.598 117.505 562.984 117.17 C 563.299 116.865 563.474 116.468 563.474 115.98 C 563.474 115.309 562.914 114.761 561.758 114.333 L 561.058 114.12 C 559.657 113.54 558.922 112.808 558.922 111.893 C 558.922 111.222 559.237 110.642 559.797 110.245 C 560.393 109.819 561.058 109.636 561.864 109.636 C 563.019 109.636 563.859 110.093 564.419 110.978 L 563.439 111.466 C 563.054 110.947 562.529 110.673 561.828 110.673 C 561.408 110.673 560.987 110.764 560.672 110.978 C 560.322 111.221 560.147 111.527 560.147 111.892 C 560.147 112.411 560.602 112.808 561.582 113.113 L 562.248 113.387 Z M 555.875 109.819 L 557.136 109.819 L 557.136 118.512 L 555.875 118.512 L 555.875 109.819 Z M 605.048 31.237 L 580.896 80.8902 L 574.233 68.1546 L 586.54 38.9753 C 587.466 36.7187 590.704 35.6706 596.164 35.6706 L 598.107 31.237 L 569.421 31.237 L 567.57 35.6706 C 571.642 35.6706 573.307 36.7182 572.659 38.9753 L 566.552 53.8067 L 554.523 31.237 C 552.302 28.819 553.412 27.6095 557.762 27.6095 L 557.762 22.3708 L 530 22.3708 L 530 27.6101 C 535.183 27.6101 538.421 28.8196 539.809 31.2375 L 560.168 68.9613 L 550.636 91.1277 C 550.45 94.1098 545.084 95.5618 534.719 95.5618 L 532.776 99.9948 L 611.988 99.9948 L 623 79.6016 L 617.262 79.6016 C 611.896 90.1607 605.696 95.5618 598.756 95.5618 L 562.388 95.5618 L 567.755 83.0677 L 572.382 91.1277 L 582.746 91.1277 L 611.987 31.238 C 613.376 27.6106 616.985 25.6766 622.63 25.6766 L 622.63 21 L 598.755 21 L 598.755 25.6756 C 605.973 25.6756 608.009 27.6101 605.048 31.237 Z" stroke-linecap="round" />
</g>
		<g transform="matrix(1 0 0 1 -243.5 -11.5)" clip-path="url(#CLIPPATH_22)"  >
<clipPath id="CLIPPATH_22" >
	<rect transform="matrix(1 0 0 1 0 0)" id="clip0_0_1" x="-55.5" y="-17.5" rx="0" ry="0" width="111" height="35" />
</clipPath>
<path style="stroke: none; stroke-width: 1; stroke-dasharray: none; stroke-linecap: butt; stroke-dashoffset: 0; stroke-linejoin: miter; stroke-miterlimit: 4; fill: rgb(255,255,255); fill-rule: nonzero; opacity: 1;" vector-effect="non-scaling-stroke"  transform=" translate(-87.5, -65.5)" d="M 44.2441 82.9857 C 40.9368 82.8694 38.2309 82.0687 36.1151 80.5816 C 35.7113 80.2975 34.7491 79.4457 34.4263 79.0864 C 33.5683 78.1319 32.985 77.203 32.5959 76.1723 C 31.3987 72.9996 32.0149 68.8363 34.3584 64.2672 C 36.3648 60.3555 39.4609 56.4758 44.8626 51.1025 C 45.6582 50.3118 48.0278 47.9995 48.043 47.9995 C 48.0487 47.9995 47.9196 48.1974 47.7571 48.4384 C 46.3526 50.5198 45.1508 52.9714 44.4961 55.0939 C 43.4445 58.4996 43.5713 61.4222 44.8677 63.6885 C 45.7619 65.2498 47.2949 66.6021 49.0188 67.3497 C 52.0368 68.658 56.4552 68.7662 61.8512 67.6664 C 62.2227 67.5902 80.6317 63.2666 102.76 58.0581 C 124.889 52.8492 142.997 48.5907 143 48.5942 C 143.006 48.5987 91.589 68.0647 64.8975 78.1635 C 60.6704 79.7624 59.54 80.1662 57.5528 80.7835 C 52.4728 82.3618 47.9224 83.1149 44.2441 82.9857 Z" stroke-linecap="round" />
</g>
		<g transform="matrix(1 0 0 1 -109.03 37.54)"  >
<path style="stroke: none; stroke-width: 1; stroke-dasharray: none; stroke-linecap: butt; stroke-dashoffset: 0; stroke-linejoin: miter; stroke-miterlimit: 4; fill: rgb(250,250,250); fill-rule: nonzero; opacity: 1;" vector-effect="non-scaling-stroke"  transform=" translate(-221.97, -114.54)" d="M 210.446 122.138 C 210.446 115.078 210.446 108.104 210.446 101.085 C 210.763 101.067 211.019 101.04 211.275 101.04 C 215.348 101.037 219.423 100.971 223.494 101.058 C 227.181 101.136 230.367 102.217 232.226 105.224 C 233.562 107.385 233.689 109.745 233.287 112.12 C 232.502 116.767 228.754 118.966 223.849 119.182 C 222.008 119.263 220.158 119.195 218.248 119.195 C 218.248 122.214 218.248 125.118 218.248 128.075 C 215.65 128.075 213.119 128.075 210.446 128.075 C 210.446 126.12 210.446 124.173 210.446 122.138 Z M 224.708 112.056 C 224.83 111.792 224.985 111.535 225.07 111.263 C 225.673 109.342 224.777 107.349 222.938 107.004 C 221.426 106.721 219.829 106.786 218.268 106.697 C 218.268 109.07 218.268 111.247 218.268 113.477 C 219.5 113.477 220.688 113.531 221.866 113.461 C 222.976 113.394 223.988 113.054 224.708 112.056 Z" stroke-linecap="round" />
</g>
		<g transform="matrix(1 0 0 1 30.22 41.96)"  >
<path style="stroke: none; stroke-width: 1; stroke-dasharray: none; stroke-linecap: butt; stroke-dashoffset: 0; stroke-linejoin: miter; stroke-miterlimit: 4; fill: rgb(249,249,249); fill-rule: nonzero; opacity: 1;" vector-effect="non-scaling-stroke"  transform=" translate(-361.22, -118.96)" d="M 368.814 116.606 C 369.797 114.467 370.733 112.382 371.731 110.32 C 371.855 110.065 372.304 109.772 372.61 109.766 C 374.794 109.718 376.981 109.74 379.308 109.74 C 378.59 111.242 377.902 112.686 377.211 114.128 C 375.221 118.281 373.231 122.433 371.239 126.584 C 371.062 126.954 370.93 127.355 370.669 127.674 C 370.484 127.9 370.123 128.138 369.827 128.152 C 368.672 128.207 367.505 128.117 366.352 128.194 C 365.517 128.25 365.25 127.958 365.011 127.312 C 363.907 124.317 362.729 121.344 361.575 118.363 C 361.493 118.151 361.398 117.942 361.224 117.533 C 361.032 117.969 360.901 118.24 360.792 118.518 C 359.616 121.537 358.424 124.552 357.287 127.582 C 357.105 128.067 356.861 128.197 356.315 128.185 C 354.894 128.154 353.471 128.175 351.992 128.175 C 349.047 122.06 346.11 115.963 343.141 109.799 C 345.59 109.799 347.985 109.799 350.502 109.799 C 351.754 112.525 353.038 115.321 354.405 118.295 C 355.219 116.448 355.968 114.754 356.711 113.059 C 357.075 112.228 357.483 111.408 357.769 110.558 C 357.979 109.933 358.304 109.69 359.082 109.722 C 360.57 109.784 362.064 109.767 363.553 109.727 C 364.166 109.711 364.415 109.925 364.611 110.398 C 365.593 112.768 366.611 115.126 367.625 117.485 C 367.727 117.721 367.893 117.936 368.079 118.243 C 368.342 117.657 368.564 117.163 368.814 116.606 Z" stroke-linecap="round" />
</g>
		<g transform="matrix(1 0 0 1 0.28 37.61)"  >
<path style="stroke: none; stroke-width: 1; stroke-dasharray: none; stroke-linecap: butt; stroke-dashoffset: 0; stroke-linejoin: miter; stroke-miterlimit: 4; fill: rgb(250,250,250); fill-rule: nonzero; opacity: 1;" vector-effect="non-scaling-stroke"  transform=" translate(-331.28, -114.61)" d="M 324.911 127.98 C 323.267 127.307 321.697 126.66 320.06 125.986 C 321.257 123.96 322.369 122.079 323.5 120.165 C 325.49 121.773 327.782 122.689 330.438 122.878 C 330.795 122.904 331.167 122.881 331.521 122.828 C 332.852 122.629 333.971 121.706 334.177 120.669 C 334.381 119.636 333.762 118.543 332.438 118.032 C 330.849 117.419 329.179 116.968 327.551 116.429 C 325.617 115.789 323.822 114.979 322.643 113.396 C 320.723 110.821 321.039 106.346 323.327 103.697 C 324.785 102.009 326.742 101.004 329.076 100.599 C 333.38 99.8516 337.365 100.755 341.277 102.514 C 340.219 104.36 339.192 106.154 338.213 107.864 C 336.884 107.348 335.653 106.716 334.324 106.407 C 333.397 106.192 332.314 106.322 331.337 106.473 C 330.285 106.635 329.769 107.351 329.655 108.265 C 329.541 109.174 329.992 109.873 330.902 110.241 C 332.118 110.734 333.397 111.106 334.645 111.54 C 335.803 111.944 337.014 112.269 338.1 112.79 C 341.58 114.46 342.777 117.185 342.458 120.487 C 341.981 125.427 337.895 128.575 331.696 128.868 C 329.39 128.977 327.162 128.64 324.911 127.98 Z" stroke-linecap="round" />
</g>
		<g transform="matrix(1 0 0 1 119.32 36.69)"  >
<path style="stroke: none; stroke-width: 1; stroke-dasharray: none; stroke-linecap: butt; stroke-dashoffset: 0; stroke-linejoin: miter; stroke-miterlimit: 4; fill: rgb(247,247,247); fill-rule: nonzero; opacity: 1;" vector-effect="non-scaling-stroke"  transform=" translate(-450.32, -113.69)" d="M 439.455 122.312 C 439.455 114.585 439.455 106.946 439.455 99.2411 C 441.912 99.2411 444.31 99.2411 446.845 99.2411 C 446.845 103.354 446.845 107.478 446.845 111.829 C 448.208 110.636 449.564 109.871 451.219 109.596 C 454.188 109.102 456.947 109.399 459.2 111.345 C 460.533 112.497 461.124 113.98 461.149 115.563 C 461.216 119.629 461.171 123.696 461.166 127.763 C 461.166 127.873 461.119 127.983 461.084 128.131 C 458.688 128.131 456.316 128.131 453.843 128.131 C 453.843 127.826 453.845 127.516 453.843 127.206 C 453.82 124.064 453.848 120.921 453.755 117.781 C 453.685 115.441 452.416 114.42 450.067 114.623 C 447.943 114.805 446.878 115.928 446.861 118.09 C 446.836 121.118 446.855 124.147 446.855 127.175 C 446.855 127.484 446.855 127.793 446.855 128.139 C 444.355 128.139 441.979 128.139 439.455 128.139 C 439.455 126.233 439.455 124.315 439.455 122.312 Z" stroke-linecap="round" />
</g>
		<g transform="matrix(1 0 0 1 -83.61 41.99)"  >
<path style="stroke: none; stroke-width: 1; stroke-dasharray: none; stroke-linecap: butt; stroke-dashoffset: 0; stroke-linejoin: miter; stroke-miterlimit: 4; fill: rgb(249,249,249); fill-rule: nonzero; opacity: 1;" vector-effect="non-scaling-stroke"  transform=" translate(-247.39, -118.99)" d="M 259.776 119.006 C 259.649 121.103 259.054 122.984 257.683 124.653 C 255.652 127.124 252.802 128.404 249.437 128.772 C 245.065 129.252 241.037 128.474 237.943 125.547 C 232.181 120.096 235.312 111.246 243.595 109.516 C 247.784 108.641 251.806 108.979 255.376 111.283 C 258.303 113.172 259.652 115.792 259.776 119.006 Z M 252.004 119.701 C 252.222 118.145 251.778 116.767 250.385 115.738 C 248.457 114.314 245.848 114.426 244.124 115.939 C 242.39 117.461 242.249 120.037 243.799 121.698 C 244.994 122.979 246.548 123.518 248.37 123.142 C 250.333 122.737 251.528 121.572 252.004 119.701 Z" stroke-linecap="round" />
</g>
		<g transform="matrix(1 0 0 1 -45.2 41.74)"  >
<path style="stroke: none; stroke-width: 1; stroke-dasharray: none; stroke-linecap: butt; stroke-dashoffset: 0; stroke-linejoin: miter; stroke-miterlimit: 4; fill: rgb(250,250,250); fill-rule: nonzero; opacity: 1;" vector-effect="non-scaling-stroke"  transform=" translate(-285.8, -118.74)" d="M 296.525 128.117 C 294.1 128.164 291.753 128.164 289.269 128.164 C 289.269 127.814 289.27 127.51 289.269 127.205 C 289.259 124.148 289.25 121.092 289.24 118.035 C 289.24 117.949 289.244 117.862 289.239 117.776 C 289.108 115.648 287.922 114.483 285.936 114.533 C 283.696 114.588 282.301 115.869 282.287 117.947 C 282.265 121.004 282.281 124.061 282.281 127.118 C 282.281 127.433 282.281 127.748 282.281 128.118 C 279.842 128.118 277.444 128.118 274.984 128.118 C 274.984 122.029 274.984 115.931 274.984 109.787 C 277.383 109.787 279.785 109.787 282.249 109.787 C 282.249 110.433 282.249 111.056 282.249 111.652 C 283.327 111.053 284.297 110.289 285.434 109.924 C 288.484 108.948 291.473 109.083 294.128 110.922 C 295.752 112.046 296.534 113.615 296.57 115.358 C 296.658 119.594 296.602 123.832 296.525 128.117 Z" stroke-linecap="round" />
</g>
		<g transform="matrix(1 0 0 1 93.86 42.01)"  >
<path style="stroke: none; stroke-width: 1; stroke-dasharray: none; stroke-linecap: butt; stroke-dashoffset: 0; stroke-linejoin: miter; stroke-miterlimit: 4; fill: rgb(249,249,249); fill-rule: nonzero; opacity: 1;" vector-effect="non-scaling-stroke"  transform=" translate(-424.86, -119.01)" d="M 434.97 121.791 C 435.393 121.791 435.722 121.791 436.151 121.791 C 436.046 123.803 435.122 125.412 433.467 126.697 C 431.669 128.091 429.453 128.623 427.124 128.815 C 424.46 129.033 421.854 128.849 419.396 127.794 C 416.253 126.446 414.47 124.167 413.84 121.272 C 412.977 117.309 414.067 113.793 417.682 111.075 C 419.255 109.892 421.2 109.377 423.218 109.21 C 426.158 108.966 429.031 109.208 431.602 110.668 C 433.911 111.979 435.217 113.856 435.785 116.22 C 433.61 116.22 431.497 116.22 429.296 116.22 C 429.087 114.608 427.938 113.727 426.135 113.456 C 423.695 113.088 422.025 113.921 421.361 116.087 C 420.683 118.302 420.757 120.543 422.076 122.623 C 423.369 124.661 426.854 124.909 428.519 123.079 C 428.828 122.738 428.97 122.281 429.236 121.791 C 431.041 121.791 432.958 121.791 434.97 121.791 Z" stroke-linecap="round" />
</g>
		<g transform="matrix(1 0 0 1 68.14 39.62)"  >
<path style="stroke: none; stroke-width: 1; stroke-dasharray: none; stroke-linecap: butt; stroke-dashoffset: 0; stroke-linejoin: miter; stroke-miterlimit: 4; fill: rgb(248,248,248); fill-rule: nonzero; opacity: 1;" vector-effect="non-scaling-stroke"  transform=" translate(-399.14, -116.62)" d="M 401.601 128.534 C 399.914 128.157 398.361 127.705 397.087 126.717 C 395.167 125.227 394.74 123.258 394.717 121.164 C 394.697 119.292 394.713 117.42 394.713 115.462 C 393.946 115.462 393.237 115.462 392.487 115.462 C 392.487 113.538 392.487 111.701 392.487 109.768 C 393.186 109.768 393.893 109.768 394.692 109.768 C 394.692 107.901 394.692 106.127 394.692 104.308 C 397.191 104.308 399.596 104.308 402.111 104.308 C 402.111 104.625 402.111 104.93 402.111 105.236 C 402.111 110.054 402.111 114.873 402.111 119.691 C 402.111 122.38 402.799 123.114 405.79 123.594 C 405.79 125.312 405.79 127.035 405.79 128.938 C 404.393 128.804 403.039 128.674 401.601 128.534 Z" stroke-linecap="round" />
</g>
		<g transform="matrix(1 0 0 1 -24.68 39.58)"  >
<path style="stroke: none; stroke-width: 1; stroke-dasharray: none; stroke-linecap: butt; stroke-dashoffset: 0; stroke-linejoin: miter; stroke-miterlimit: 4; fill: rgb(250,250,250); fill-rule: nonzero; opacity: 1;" vector-effect="non-scaling-stroke"  transform=" translate(-306.32, -116.58)" d="M 301.967 108.797 C 301.967 107.247 301.967 105.783 301.967 104.291 C 304.434 104.291 306.811 104.291 309.326 104.291 C 309.326 104.581 309.326 104.885 309.326 105.188 C 309.326 110.092 309.326 114.996 309.326 119.9 C 309.326 122.364 310.139 123.194 312.958 123.579 C 312.958 125.318 312.958 127.062 312.958 128.867 C 310.44 128.811 308.012 128.642 305.799 127.619 C 303.145 126.391 301.996 124.364 301.97 121.808 C 301.952 119.991 301.967 118.173 301.967 116.356 C 301.967 116.074 301.967 115.792 301.967 115.45 C 301.171 115.45 300.453 115.45 299.672 115.45 C 299.672 113.534 299.672 111.677 299.672 109.769 C 300.41 109.769 301.13 109.769 301.967 109.769 C 301.967 109.439 301.967 109.161 301.967 108.797 Z" stroke-linecap="round" />
</g>
		<g transform="matrix(1 0 0 1 54.45 41.94)"  >
<path style="stroke: none; stroke-width: 1; stroke-dasharray: none; stroke-linecap: butt; stroke-dashoffset: 0; stroke-linejoin: miter; stroke-miterlimit: 4; fill: rgb(249,249,249); fill-rule: nonzero; opacity: 1;" vector-effect="non-scaling-stroke"  transform=" translate(-385.45, -118.94)" d="M 388.021 109.763 C 388.409 109.763 388.706 109.763 389.069 109.763 C 389.069 115.884 389.069 121.977 389.069 128.126 C 386.687 128.126 384.292 128.126 381.832 128.126 C 381.832 122.055 381.832 115.961 381.832 109.763 C 383.847 109.763 385.888 109.763 388.021 109.763 Z" stroke-linecap="round" />
</g>
		<g transform="matrix(1 0 0 1 -64.14 41.97)"  >
<path style="stroke: none; stroke-width: 1; stroke-dasharray: none; stroke-linecap: butt; stroke-dashoffset: 0; stroke-linejoin: miter; stroke-miterlimit: 4; fill: rgb(250,250,250); fill-rule: nonzero; opacity: 1;" vector-effect="non-scaling-stroke"  transform=" translate(-266.87, -118.97)" d="M 270.518 126.8 C 270.518 127.284 270.518 127.684 270.518 128.132 C 268.067 128.132 265.668 128.132 263.212 128.132 C 263.212 122.027 263.212 115.93 263.212 109.807 C 265.647 109.807 268.052 109.807 270.518 109.807 C 270.518 115.473 270.518 121.094 270.518 126.8 Z" stroke-linecap="round" />
</g>
		<g transform="matrix(1 0 0 1 76.57 36.42)"  >
<path style="stroke: none; stroke-width: 1; stroke-dasharray: none; stroke-linecap: butt; stroke-dashoffset: 0; stroke-linejoin: miter; stroke-miterlimit: 4; fill: rgb(132,2,252); fill-rule: nonzero; opacity: 1;" vector-effect="non-scaling-stroke"  transform=" translate(-407.57, -113.42)" d="M 409.139 116.797 C 406.799 117.68 404.174 116.469 403.61 114.293 C 403.041 112.097 404.621 110.065 407.085 109.775 C 408.893 109.563 410.63 110.483 411.332 112.028 C 412.06 113.626 411.471 115.447 409.899 116.429 C 409.685 116.562 409.441 116.657 409.139 116.797 Z" stroke-linecap="round" />
</g>
		<g transform="matrix(1 0 0 1 -16.25 36.41)"  >
<path style="stroke: none; stroke-width: 1; stroke-dasharray: none; stroke-linecap: butt; stroke-dashoffset: 0; stroke-linejoin: miter; stroke-miterlimit: 4; fill: rgb(132,2,251); fill-rule: nonzero; opacity: 1;" vector-effect="non-scaling-stroke"  transform=" translate(-314.75, -113.41)" d="M 317.797 110.96 C 319.754 113.276 318.754 116.234 315.84 116.942 C 313.953 117.401 312.06 116.668 311.162 115.134 C 310.211 113.508 310.748 111.517 312.439 110.404 C 313.907 109.437 316.018 109.548 317.467 110.67 C 317.566 110.746 317.655 110.832 317.797 110.96 Z" stroke-linecap="round" />
</g>
		<g transform="matrix(1 0 0 1 54.49 25.7)"  >
<path style="stroke: none; stroke-width: 1; stroke-dasharray: none; stroke-linecap: butt; stroke-dashoffset: 0; stroke-linejoin: miter; stroke-miterlimit: 4; fill: rgb(133,1,252); fill-rule: nonzero; opacity: 1;" vector-effect="non-scaling-stroke"  transform=" translate(-385.49, -102.7)" d="M 381.427 103.021 C 381.379 101.374 382.078 100.135 383.72 99.4109 C 385.06 98.8201 386.421 98.8994 387.681 99.621 C 389.318 100.559 389.957 102.324 389.301 103.965 C 388.667 105.549 386.964 106.513 385.065 106.363 C 383.201 106.215 381.798 104.949 381.427 103.021 Z" stroke-linecap="round" />
</g>
		<g transform="matrix(1 0 0 1 -64.15 25.72)"  >
<path style="stroke: none; stroke-width: 1; stroke-dasharray: none; stroke-linecap: butt; stroke-dashoffset: 0; stroke-linejoin: miter; stroke-miterlimit: 4; fill: rgb(132,2,252); fill-rule: nonzero; opacity: 1;" vector-effect="non-scaling-stroke"  transform=" translate(-266.85, -102.72)" d="M 270.914 103.031 C 270.311 105.476 268.289 106.782 265.967 106.297 C 263.857 105.857 262.545 104.139 262.813 102.168 C 263.049 100.436 264.816 99.052 266.805 99.0412 C 268.934 99.0297 270.676 100.433 270.909 102.353 C 270.933 102.553 270.918 102.756 270.914 103.031 Z" stroke-linecap="round" />
</g>
		<g transform="matrix(1 0 0 1 -0.13 -36.41)"  >
<path style="stroke: none; stroke-width: 1; stroke-dasharray: none; stroke-linecap: butt; stroke-dashoffset: 0; stroke-linejoin: miter; stroke-miterlimit: 4; fill: rgb(122,22,245); fill-rule: nonzero; opacity: 1;" vector-effect="non-scaling-stroke"  transform=" translate(-330.87, -40.59)" d="M 301.18 49.6724 L 291.563 42.922 L 382.736 42.922 L 382.736 38.3349 L 291.456 38.3349 L 301.18 31.5095 L 296.559 28.2658 L 279 40.5908 L 296.559 52.9159 L 301.18 49.6724 Z" stroke-linecap="round" />
</g>
		<g transform="matrix(1 0 0 1 0.13 -2.59)"  >
<path style="stroke: none; stroke-width: 1; stroke-dasharray: none; stroke-linecap: butt; stroke-dashoffset: 0; stroke-linejoin: miter; stroke-miterlimit: 4; fill: rgb(122,22,245); fill-rule: nonzero; opacity: 1;" vector-effect="non-scaling-stroke"  transform=" translate(-331.13, -74.41)" d="M 365.441 62.0841 L 360.82 65.3276 L 370.49 72.1156 L 279.264 72.1156 L 279.264 76.7027 L 370.49 76.7027 L 360.82 83.4905 L 365.441 86.7341 L 383 74.4092 L 365.441 62.0841 Z" stroke-linecap="round" />
</g>
		<g transform="matrix(1 0 0 1 -246.69 -8.95)"  >
<path style="stroke: rgb(237,237,237); stroke-width: 5; stroke-dasharray: none; stroke-linecap: round; stroke-dashoffset: 0; stroke-linejoin: round; stroke-miterlimit: 4; fill: none; fill-rule: nonzero; opacity: 1;" vector-effect="non-scaling-stroke"  transform=" translate(-84.31, -68.05)" d="M 145.29 72.1121 C 145.29 60.8915 154.396 51.785 165.617 51.785 L 165.617 43.6542 C 165.617 11.1308 157.486 3 124.962 3 L 43.6542 3 C 11.1308 3 3 11.1308 3 43.6542 L 3 47.7196 C 14.2205 47.7196 23.3271 56.8261 23.3271 68.0467 C 23.3271 79.2672 14.2205 88.3737 3 88.3737 L 3 92.4392 C 3 124.962 11.1308 133.093 43.6542 133.093 L 124.962 133.093 C 157.486 133.093 165.617 124.962 165.617 92.4392 C 154.396 92.4392 145.29 83.3326 145.29 72.1121 Z" stroke-linecap="round" />
</g>
		<g transform="matrix(1 0 0 1 246.31 -8.95)"  >
<path style="stroke: rgb(237,237,237); stroke-width: 5; stroke-dasharray: none; stroke-linecap: round; stroke-dashoffset: 0; stroke-linejoin: round; stroke-miterlimit: 4; fill: none; fill-rule: nonzero; opacity: 1;" vector-effect="non-scaling-stroke"  transform=" translate(-577.31, -68.05)" d="M 638.29 72.1121 C 638.29 60.8915 647.396 51.785 658.617 51.785 L 658.617 43.6542 C 658.617 11.1308 650.486 3 617.962 3 L 536.654 3 C 504.131 3 496 11.1308 496 43.6542 L 496 47.7196 C 507.221 47.7196 516.327 56.8261 516.327 68.0467 C 516.327 79.2672 507.221 88.3737 496 88.3737 L 496 92.4392 C 496 124.962 504.131 133.093 536.654 133.093 L 617.962 133.093 C 650.486 133.093 658.617 124.962 658.617 92.4392 C 647.396 92.4392 638.29 83.3326 638.29 72.1121 Z" stroke-linecap="round" />
</g>
</g>
</g>
</svg>